<?xml version="1.0" encoding="utf-8"?>
<!-- Generator: Adobe Illustrator 19.2.0, SVG Export Plug-In . SVG Version: 6.00 Build 0)  -->
<svg version="1.1" id="Layer_1" xmlns="http://www.w3.org/2000/svg" xmlns:xlink="http://www.w3.org/1999/xlink" x="0px" y="0px"
	 width="20.02px" height="18.99px" viewBox="0 0 20.02 18.99" style="enable-background:new 0 0 20.02 18.99;" xml:space="preserve"
	>

<path d="M10.02,4.69l1.19,2.53l0.47,1l1.09,0.14l2.77,0.35l-2.04,1.89l-0.81,0.75l0.21,1.08l0.52,2.74l-2.45-1.35
	L9.99,13.3l-0.96,0.53l-2.46,1.34l0.53-2.73l0.21-1.08l-0.8-0.76l-2.03-1.9l2.77-0.34l1.09-0.13l0.47-0.99L10.02,4.69 M10.03,0
	L7.01,6.36L0,7.22l5.14,4.83l-1.34,6.91l6.19-3.38l6.18,3.41l-1.31-6.91l5.16-4.8l-7-0.89L10.03,0L10.03,0z"/>
</svg>
