<?xml version="1.0" encoding="utf-8"?>
<!-- Generator: Adobe Illustrator 19.2.0, SVG Export Plug-In . SVG Version: 6.00 Build 0)  -->
<svg version="1.1" id="Layer_1" xmlns="http://www.w3.org/2000/svg" xmlns:xlink="http://www.w3.org/1999/xlink" x="0px" y="0px"
	 width="11px" height="15px" viewBox="0 0 11 15" style="enable-background:new 0 0 11 15;" xml:space="preserve">
<path d="M9,4V3.51h0c0,0,0-0.01,0-0.01C9,1.57,7.43,0,5.5,0C3.57,0,2.01,1.56,2,3.49h0V4C0.9,4,0,4.9,0,6v7
	c0,1.1,0.9,2,2,2h7c1.1,0,2-0.9,2-2V6C11,4.9,10.1,4,9,4z M5.5,1C6.88,1,8,2.12,8,3.5C8,3.67,7.98,3.84,7.95,4h-4.9
	C3.02,3.84,3,3.67,3,3.5C3,2.12,4.12,1,5.5,1z M10,13c0,0.55-0.45,1-1,1H2c-0.55,0-1-0.45-1-1V6c0-0.55,0.45-1,1-1h7
	c0.55,0,1,0.45,1,1V13z M5.5,8C4.67,8,4,8.67,4,9.5C4,10.33,4.67,11,5.5,11C6.33,11,7,10.33,7,9.5C7,8.67,6.33,8,5.5,8z"/>
</svg>
