<?xml version="1.0" encoding="utf-8"?>
<!-- Generator: Adobe Illustrator 19.2.0, SVG Export Plug-In . SVG Version: 6.00 Build 0)  -->
<svg version="1.1" id="Layer_1" xmlns="http://www.w3.org/2000/svg" xmlns:xlink="http://www.w3.org/1999/xlink" x="0px" y="0px"
	 width="20.01px" height="19.97px" viewBox="0 0 20.01 19.97" style="enable-background:new 0 0 20.01 19.97;" xml:space="preserve"
	>
<style type="text/css">
	.st0{fill:#919495;}
	.st1{fill-rule:evenodd;clip-rule:evenodd;fill:#919495;}
</style>
<g>
	<path class="st0" d="M18.01,2l0,6.72l-9.08,9.04c-0.18,0.18-0.39,0.2-0.5,0.2c-0.11,0-0.32-0.03-0.5-0.2l-5.73-5.7
		C2.03,11.89,2,11.68,2,11.58s0.03-0.31,0.2-0.48l8.96-8.93l0.12-0.12l0.03-0.04L18.01,2 M20.01,0l-8.82,0.01
		c-0.59,0-1.12,0.29-1.44,0.74L0.79,9.67c-1.05,1.05-1.05,2.75,0,3.8l5.73,5.7c0.53,0.53,1.22,0.79,1.91,0.79s1.38-0.26,1.91-0.79
		l9.15-9.11c0.29-0.29,0.42-0.55,0.44-0.8c0.04-0.15,0.07-0.31,0.07-0.48L20.01,0L20.01,0z"/>
</g>
<path class="st1" d="M14.01,4c1.1,0,2,0.9,2,2c0,1.1-0.9,2-2,2s-2-0.9-2-2C12.01,4.9,12.91,4,14.01,4z"/>
</svg>
