<?xml version="1.0" encoding="utf-8"?>
<!-- Generator: Adobe Illustrator 19.2.0, SVG Export Plug-In . SVG Version: 6.00 Build 0)  -->
<svg version="1.1" id="Layer_1" xmlns="http://www.w3.org/2000/svg" xmlns:xlink="http://www.w3.org/1999/xlink" x="0px" y="0px"
	 width="16px" height="16px" viewBox="0 0 16 16" style="enable-background:new 0 0 16 16;" xml:space="preserve">
<path fill="#FFFFFF" d="M14,0H2C0.9,0,0,0.9,0,2v8.2V14c0,1.1,0.9,2,2,2h0.72h7.06H14c1.1,0,2-0.89,2-2v-2.16V2C16,0.9,15.1,0,14,0z
	 M15,14c0,0.55-0.45,1-1,1H5.19l5.98-5.78c0.13-0.12,0.3-0.19,0.47-0.19c0.19,0,0.37,0.08,0.51,0.22L15,12.24V14z M3.76,15H2
	c-0.55,0-1-0.45-1-1v-3.36l3.59-3.38c0.15-0.14,0.35-0.22,0.56-0.22c0.23,0,0.44,0.09,0.6,0.26l2.85,3.02L3.76,15z M12.88,8.56
	c-0.33-0.35-0.78-0.53-1.23-0.53c-0.42,0-0.83,0.15-1.16,0.46L9.32,9.62L6.48,6.6C6.12,6.22,5.64,6.03,5.16,6.03
	c-0.45,0-0.9,0.16-1.25,0.5L1,9.26V2c0-0.55,0.45-1,1-1h12c0.55,0,1,0.45,1,1v8.79L12.88,8.56z"/>
</svg>
