<?xml version="1.0" encoding="utf-8"?>
<!-- Generator: Adobe Illustrator 19.2.0, SVG Export Plug-In . SVG Version: 6.00 Build 0)  -->
<svg version="1.1" id="Layer_1" xmlns="http://www.w3.org/2000/svg" xmlns:xlink="http://www.w3.org/1999/xlink" x="0px" y="0px"
	 width="72.45px" height="72.55px" viewBox="0 0 72.45 72.55" xml:space="preserve"
	>
<path fill="#EEE" d="M36.23,0c20.01,0,36.23,16.24,36.23,36.27c0,20.03-16.22,36.27-36.23,36.27C16.22,72.55,0,56.31,0,36.27
	C0,16.24,16.22,0,36.23,0z"/>
<g>
	<path fill="#999" d="M35.96,40.55c-8.57,0-15.5,3.58-15.5,8v4h31.01v-4C51.46,44.13,44.53,40.55,35.96,40.55z"/>
	<ellipse fill="#999" cx="35.96" cy="28.55" rx="7.75" ry="8"/>
	<path fill="#999" d="M57.97,32.37h-2.63v-2.61c0-0.73-0.59-1.32-1.32-1.32c-0.73,0-1.32,0.59-1.32,1.32v2.61h-2.62
		c-0.73,0-1.32,0.58-1.32,1.29c0,0.71,0.38,1.34,1.11,1.34h2.83v2.63c0,0.73,0.59,1.32,1.32,1.32c0.73,0,1.32-0.59,1.32-1.32V35
		h2.84c0.73,0,1.11-0.62,1.11-1.34C59.3,32.95,58.7,32.37,57.97,32.37z"/>
</g>
</svg>
