<?xml version="1.0" encoding="utf-8"?>
<!-- Generator: Adobe Illustrator 19.2.0, SVG Export Plug-In . SVG Version: 6.00 Build 0)  -->
<svg version="1.1" id="Layer_1" xmlns="http://www.w3.org/2000/svg" xmlns:xlink="http://www.w3.org/1999/xlink" x="0px" y="0px"
	 width="19px" height="13px" viewBox="0 0 19 13" style="enable-background:new 0 0 19 13;" xml:space="preserve">
<path fill="#C6FCEA" d="M4.33,9.55C2.52,8.1,1.27,6.5,1.27,6.5S5.13,1.17,9.5,1.17c0.89,0,1.76,0.24,2.59,0.61l0.83-0.83
	C11.84,0.38,10.68,0,9.5,0C4.45,0,0,6.5,0,6.5s1.48,2,3.6,3.78L4.33,9.55z M15.44,2.68L14.7,3.42c1.81,1.46,3.03,3.08,3.03,3.08
	s-4.17,5.33-8.23,5.33c-0.87,0-1.74-0.25-2.57-0.63L6.1,12.02C7.19,12.61,8.35,13,9.5,13c4.69,0,9.5-6.5,9.5-6.5
	S17.56,4.47,15.44,2.68z M15.16,0.14L3.14,12.16l0.71,0.71L15.86,0.84L15.16,0.14z"/>
</svg>
