<svg xmlns:rdf="http://www.w3.org/1999/02/22-rdf-syntax-ns#" xmlns="http://www.w3.org/2000/svg" viewBox="0 0 23 19.99" height="19.99" width="23" version="1.1" xmlns:cc="http://creativecommons.org/ns#" xmlns:dc="http://purl.org/dc/elements/1.1/">
 <path d="m11.548 18.622s-6.61-5.19-8.78-9.51c-0.42-0.73-0.68-1.57-0.68-2.48 0-2.76 2.24-5 5-5 1.6 0 3.03 0.49 3.94 1.64 0.09 0.23 0.32 0.39 0.58 0.39 0.27 0 0.5-0.17 0.59-0.41 0.91-1.14 2.3-1.62 3.89-1.62 2.76 0 5 2.24 5 5 0 0.83-0.22 1.61-0.58 2.3-2.4 4.68-8.96 9.69-8.96 9.69z"/>
</svg>
