<?xml version="1.0" encoding="utf-8"?>
<!-- Generator: Adobe Illustrator 19.2.0, SVG Export Plug-In . SVG Version: 6.00 Build 0)  -->
<svg version="1.1" id="Layer_1" xmlns="http://www.w3.org/2000/svg" xmlns:xlink="http://www.w3.org/1999/xlink" x="0px" y="0px"
	 width="216px" height="34px" viewBox="0 0 216 34" style="enable-background:new 0 0 216 34;" xml:space="preserve">
<g>
	<rect x="75.6" y="6.7" width="4.1" height="21.9"/>
	<polygon points="92,28.7 92,28.6 92,28.6 	"/>
	<path d="M70.6,13.4c-0.7,0.6-1.2,1.2-1.6,2H69l0,0v-2.5h-3.9v15.7h4.1V21c-0.1-1.3,0.3-2.6,1.3-3.6c0.9-0.8,2.1-1.1,3.3-0.9h0.1
		v-3.6c-0.3-0.1-0.6-0.1-0.9-0.1C72,12.7,71.2,12.9,70.6,13.4z"/>
	<polygon points="181.1,7.3 177.3,7.3 177.3,7.3 177.3,10.8 181.1,10.8 	"/>
	<path d="M62.3,6.7H58v14.8c0,1-0.3,2-1,2.8c-1.8,1.5-4.3,1.5-6.1,0c-0.6-0.8-1-1.8-0.9-2.8V6.7h-4.3v14.9c-0.1,2.1,0.6,4.1,2.1,5.5
		c1.4,1.3,3.5,1.9,6.3,1.9v0c2.7,0,4.8-0.6,6.2-1.9c1.4-1.4,2.2-3.4,2.1-5.5V6.7z"/>
	<polygon points="174.4,7.3 170.6,7.3 170.6,7.3 170.6,10.8 174.4,10.8 	"/>
	<path d="M23.5,23.7L23.5,23.7c-2,2.1-4.8,3.4-7.9,3.4c0,0,0,0,0,0c-5.9,0-10.7-4.8-10.7-10.7c0-5.9,4.8-10.7,10.7-10.7
		c2.8,0,5.4,1.1,7.3,2.9l-6.6,7.1l-3.7-3.9l-3.7,3.9l7.4,7.8L34.6,3.9L30.9,0l-4.7,5c-2.8-2.6-6.5-4.2-10.6-4.2c0,0,0,0,0,0
		C7,0.8,0,7.8,0,16.4S7,32,15.6,32c8.6,0,15.6-7,15.6-15.6c0-0.3,0-0.6,0-1L23.5,23.7z"/>
	<path d="M155.7,14.6L155.7,14.6c-0.5-0.6-1.1-1.2-1.8-1.5c-0.8-0.4-1.6-0.6-2.5-0.6c-0.9,0-1.8,0.2-2.7,0.5
		c-0.8,0.4-1.5,0.9-2.1,1.5c-0.6,0.7-1.1,1.5-1.4,2.4c-0.3,1-0.5,2.1-0.5,3.2c0,1.1,0.2,2.2,0.6,3.2c0.3,0.9,0.9,1.7,1.5,2.4
		c1.2,1.3,2.9,2,4.6,2c0.8,0,1.7-0.1,2.4-0.5c0.6-0.3,1.2-0.8,1.6-1.3h0.1v1.7c0,2.2-1.1,3.3-3.4,3.3c-0.7,0.1-1.5-0.1-2.1-0.5
		c-0.4-0.3-0.8-0.7-0.9-1.2h-4c0.2,1.5,1,2.8,2.2,3.6c1.5,0.9,3.2,1.4,5,1.3v0c1.1,0,2.1-0.1,3.1-0.4c0.9-0.3,1.7-0.7,2.4-1.3
		c0.6-0.5,1-1.2,1.3-2c0.3-0.9,0.5-1.9,0.5-2.8V12.9h-3.9V14.6z M155.7,21.7c-0.1,0.5-0.3,0.9-0.6,1.3c-0.3,0.4-0.7,0.7-1.1,0.9
		c-0.5,0.2-1.1,0.4-1.6,0.3v0c-1,0-1.9-0.4-2.5-1.1c-0.7-0.9-1-2-0.9-3.1c-0.1-1.1,0.3-2.2,0.9-3.1c0.6-0.8,1.5-1.2,2.5-1.1
		c0.6,0,1.1,0.1,1.6,0.3c0.4,0.2,0.8,0.5,1.1,0.9c0.3,0.4,0.5,0.9,0.7,1.4c0.2,0.5,0.2,1.1,0.2,1.6
		C155.9,20.6,155.8,21.2,155.7,21.7z"/>
	<path d="M178.6,22c0,0.9-0.3,1.8-0.8,2.6c-0.6,0.7-1.4,1-2.2,1c-0.7,0.1-1.4-0.2-1.9-0.7c-0.4-0.6-0.7-1.4-0.6-2.1v-9.8h-4v10.5
		c-0.1,1.5,0.4,3,1.4,4.1c1.8,1.6,4.4,2,6.5,0.9c0.7-0.4,1.3-1,1.8-1.7h0.1v1.8v0h3.9V12.9h-4.1V22z"/>
	<path d="M194.3,25.1c-0.6,0.5-1.3,0.7-2.1,0.7c-1.1,0.1-2.2-0.4-2.8-1.4c-0.6-1.1-0.9-2.3-0.9-3.6c-0.1-1.3,0.3-2.5,0.9-3.6
		c0.6-0.9,1.7-1.4,2.8-1.3c0.7,0,1.4,0.2,1.9,0.7c0.5,0.5,0.8,1.1,0.9,1.7h4c-0.1-0.8-0.4-1.6-0.8-2.3c-0.4-0.7-0.8-1.3-1.4-1.8
		c-0.6-0.5-1.3-0.9-2.1-1.2c-0.9-0.3-1.8-0.4-2.7-0.4c-1.1,0-2.2,0.2-3.2,0.6c-0.9,0.4-1.7,1-2.4,1.8c-0.7,0.8-1.2,1.7-1.5,2.6
		c-0.7,2.1-0.7,4.4,0,6.5c0.3,1,0.9,1.9,1.6,2.6c0.7,0.8,1.5,1.4,2.5,1.8c1,0.4,2.1,0.7,3.3,0.6v0c0.9,0,1.9-0.2,2.8-0.5
		c0.8-0.3,1.5-0.7,2.1-1.3c0.6-0.5,1.1-1.2,1.4-1.9c0.4-0.7,0.6-1.5,0.6-2.3h-3.9C195.3,23.9,194.9,24.6,194.3,25.1z"/>
	<polygon points="162.3,6.7 162.3,28.6 166.4,28.6 166.4,6.7 162.3,6.7 	"/>
	<polygon points="209.7,18.9 215.3,12.9 210.5,12.9 205,18.9 205,6.7 201,6.7 201,28.6 205,28.6 205,23.3 206.8,21.5 211.1,28.6
		216,28.6 	"/>
	<path d="M107.4,22c0,0.9-0.3,1.8-0.8,2.6c-0.6,0.7-1.4,1-2.3,1c-0.7,0.1-1.4-0.2-1.9-0.7c-0.4-0.6-0.7-1.4-0.6-2.1v-9.8h-4v10.5
		c-0.1,1.5,0.4,3,1.4,4.1c1,1.1,2.5,1.6,3.9,1.5c0.9,0,1.8-0.2,2.6-0.6c0.7-0.4,1.3-1,1.8-1.7h0.1v1.8v0h3.9V12.9h-4.1V22z"/>
	<path d="M141.9,20.4c-0.5-0.4-1.1-0.6-1.7-0.8c-0.7-0.2-1.3-0.3-1.9-0.5c-0.5-0.1-1.1-0.2-1.6-0.3c-0.5-0.1-0.9-0.2-1.3-0.3
		c-0.3-0.1-0.7-0.3-0.9-0.5c-0.2-0.2-0.4-0.5-0.4-0.8c0-0.5,0.3-1,0.7-1.3c1.3-0.6,2.7-0.6,4,0.1c0.6,0.4,0.9,1.1,0.9,1.8h3.7
		c-0.1-1.5-0.8-2.8-1.9-3.8c-1.3-1-3-1.5-4.7-1.4c-0.8,0-1.7,0.1-2.4,0.3c-0.7,0.2-1.4,0.5-2,0.9c-0.6,0.4-1,0.9-1.3,1.6
		c-0.3,0.7-0.5,1.5-0.5,2.2c0,0.7,0.1,1.5,0.5,2.1c0.3,0.5,0.7,1,1.2,1.3c0.5,0.4,1.1,0.6,1.7,0.8c0.6,0.2,1.3,0.3,2,0.5
		c0.5,0.1,1,0.2,1.5,0.3c0.4,0.1,0.9,0.2,1.3,0.4c0.3,0.1,0.6,0.3,0.9,0.6c0.2,0.2,0.4,0.6,0.3,0.9c0,0.5-0.3,1-0.7,1.3
		c-0.6,0.4-1.4,0.5-2.1,0.5c-0.8,0-1.6-0.2-2.2-0.6c-0.6-0.5-1-1.2-1.1-2H130c0.1,1.6,0.8,3,2,4c1.5,1.1,3.3,1.6,5.2,1.5v0
		c0.9,0,1.8-0.1,2.6-0.4c0.7-0.2,1.4-0.5,2-1c0.6-0.4,1-1,1.3-1.6c0.3-0.7,0.5-1.4,0.5-2.1c0-0.8-0.1-1.6-0.5-2.3
		C142.8,21.2,142.4,20.7,141.9,20.4z"/>
	<path d="M95.3,18.3c0.1-1.6-0.4-3.1-1.5-4.3c-1-1-2.7-1.5-4.9-1.5c-1,0-2,0.1-2.9,0.4c-0.7,0.2-1.4,0.6-2,1.1
		c-0.5,0.4-0.9,1-1.2,1.6c-0.3,0.6-0.4,1.3-0.4,2h3.6c0-0.6,0.3-1.3,0.8-1.7c0.6-0.4,1.4-0.6,2.2-0.5c0.7,0,1.4,0.1,1.9,0.5
		c0.4,0.3,0.7,0.8,0.6,1.4c0,0.6-0.3,1.1-0.9,1.2c-0.9,0.3-1.9,0.5-2.8,0.6c-0.8,0.1-1.6,0.3-2.4,0.5c-0.7,0.2-1.4,0.5-2,0.9
		c-0.5,0.4-1,0.9-1.3,1.5c-0.3,0.7-0.5,1.4-0.5,2.2c-0.1,1.4,0.5,2.7,1.5,3.6c1.1,0.9,2.5,1.3,3.8,1.2c0.6,0,1.1,0,1.7-0.2
		c0.4-0.1,0.8-0.2,1.2-0.4c0.3-0.2,0.6-0.4,0.9-0.7c0.3-0.3,0.5-0.5,0.7-0.8h0.1c0,0.3,0.1,0.7,0.2,1c0.1,0.3,0.2,0.5,0.3,0.7h3.9
		v-0.2c-0.4-0.3-0.5-1-0.5-2.2V18.3z M91.5,23.1c0,0.4-0.1,0.8-0.2,1.1c-0.2,0.4-0.4,0.7-0.7,1c-0.3,0.3-0.7,0.5-1.1,0.7
		c-0.5,0.2-1,0.3-1.5,0.3c-0.6,0-1.2-0.1-1.7-0.4c-0.1-0.1-0.1-0.1-0.2-0.2c-0.7-0.9-0.6-2.2,0.3-3c0.7-0.4,1.6-0.7,2.4-0.9
		c0.5-0.1,1-0.2,1.5-0.4c0.5-0.1,0.9-0.3,1.3-0.5V23.1z"/>
	<path d="M127.2,14.8c-0.6-0.7-1.3-1.3-2.1-1.7c-0.8-0.4-1.7-0.6-2.7-0.6c-0.9,0-1.8,0.2-2.6,0.7c-0.7,0.4-1.2,1-1.6,1.7h-0.1V6.7
		h-4.1v21.9h3.9v-2h0.1c0.5,0.7,1.1,1.3,1.8,1.8c0.8,0.5,1.8,0.7,2.7,0.7l0,0c1.8,0,3.6-0.8,4.7-2.2c0.6-0.8,1.1-1.7,1.3-2.6
		c0.3-1.1,0.5-2.3,0.5-3.4c0-1.1-0.2-2.3-0.5-3.4C128.3,16.5,127.8,15.6,127.2,14.8z M124.1,24.4c-0.5,0.8-1.4,1.3-2.4,1.3l0,0
		c-1.1,0-2.1-0.4-2.7-1.3c-0.7-1-1-2.2-1-3.4c0-0.7,0.1-1.4,0.2-2c0.1-0.6,0.3-1.1,0.6-1.6c0.3-0.4,0.6-0.8,1.1-1
		c0.5-0.3,1.1-0.4,1.6-0.4c1-0.1,2,0.5,2.6,1.4c0.6,1.1,0.9,2.3,0.8,3.6C125,22,124.8,23.3,124.1,24.4z"/>
</g>
</svg>
