<?xml version="1.0" encoding="utf-8"?>
<!-- Generator: Adobe Illustrator 19.2.0, SVG Export Plug-In . SVG Version: 6.00 Build 0)  -->
<svg version="1.1" id="Layer_1" xmlns="http://www.w3.org/2000/svg" xmlns:xlink="http://www.w3.org/1999/xlink" x="0px" y="0px"
	 width="34px" height="34px" viewBox="0 0 34 34" style="enable-background:new 0 0 34 34;" xml:space="preserve">
<g>
	<path style="fill:#FFFFFF" d="M23.5,23.7L23.5,23.7c-2,2.1-4.8,3.4-7.9,3.4c0,0,0,0,0,0c-5.9,0-10.7-4.8-10.7-10.7c0-5.9,4.8-10.7,10.7-10.7
		c2.8,0,5.4,1.1,7.3,2.9l-6.6,7.1l-3.7-3.9l-3.7,3.9l7.4,7.8L34.6,3.9L30.9,0l-4.7,5c-2.8-2.6-6.5-4.2-10.6-4.2c0,0,0,0,0,0
		C7,0.8,0,7.8,0,16.4S7,32,15.6,32c8.6,0,15.6-7,15.6-15.6c0-0.3,0-0.6,0-1L23.5,23.7z"/>
</g>
</svg>
