<?xml version="1.0" encoding="UTF-8" standalone="no"?>
<svg
   xmlns:dc="http://purl.org/dc/elements/1.1/"
   xmlns:cc="http://creativecommons.org/ns#"
   xmlns:rdf="http://www.w3.org/1999/02/22-rdf-syntax-ns#"
   xmlns:svg="http://www.w3.org/2000/svg"
   xmlns="http://www.w3.org/2000/svg"
   height="83"
   width="83"
   xml:space="preserve"
   viewBox="0 0 83 83"
   y="0px"
   x="0px"
   id="Capa_1"
   version="1.1"><metadata
     id="metadata39"><rdf:RDF><cc:Work
         rdf:about=""><dc:format>image/svg+xml</dc:format><dc:type
           rdf:resource="http://purl.org/dc/dcmitype/StillImage" /><dc:title></dc:title></cc:Work></rdf:RDF></metadata><defs
     id="defs37" /><g
     transform="translate(1.5,1.5)"
     id="_x37_7_Essential_Icons_6_"><path
       d="m 72,13 -8,0 0,-4 C 64,7.9 63.1,7 62,7 60.9,7 60,7.9 60,9 l 0,4 -40,0 0,-4 C 20,7.9 19.1,7 18,7 16.9,7 16,7.9 16,9 l 0,4 -8,0 c -4.4,0 -8,3.6 -8,8 l 0,44 c 0,4.4 3.6,8 8,8 l 64,0 c 4.4,0 8,-3.6 8,-8 l 0,-44 c 0,-4.4 -3.6,-8 -8,-8 z m 4,52 c 0,2.2 -1.8,4 -4,4 L 8,69 C 5.8,69 4,67.2 4,65 l 0,-30 72,0 0,30 z M 76,31 4,31 4,21 c 0,-2.2 1.8,-4 4,-4 l 8,0 0,6 c 0,1.1 0.9,2 2,2 1.1,0 2,-0.9 2,-2 l 0,-6 40,0 0,6 c 0,1.1 0.9,2 2,2 1.1,0 2,-0.9 2,-2 l 0,-6 8,0 c 2.2,0 4,1.8 4,4 l 0,10 z"
       id="Calendar" /></g><g
     transform="translate(1.5,1.5)"
     id="g5" /><g
     transform="translate(1.5,1.5)"
     id="g7" /><g
     transform="translate(1.5,1.5)"
     id="g9" /><g
     transform="translate(1.5,1.5)"
     id="g11" /><g
     transform="translate(1.5,1.5)"
     id="g13" /><g
     transform="translate(1.5,1.5)"
     id="g15" /><g
     transform="translate(1.5,1.5)"
     id="g17" /><g
     transform="translate(1.5,1.5)"
     id="g19" /><g
     transform="translate(1.5,1.5)"
     id="g21" /><g
     transform="translate(1.5,1.5)"
     id="g23" /><g
     transform="translate(1.5,1.5)"
     id="g25" /><g
     transform="translate(1.5,1.5)"
     id="g27" /><g
     transform="translate(1.5,1.5)"
     id="g29" /><g
     transform="translate(1.5,1.5)"
     id="g31" /><g
     transform="translate(1.5,1.5)"
     id="g33" /></svg>