<?xml version="1.0" encoding="UTF-8" standalone="no"?>
<svg
   xmlns:dc="http://purl.org/dc/elements/1.1/"
   xmlns:cc="http://creativecommons.org/ns#"
   xmlns:rdf="http://www.w3.org/1999/02/22-rdf-syntax-ns#"
   xmlns:svg="http://www.w3.org/2000/svg"
   xmlns="http://www.w3.org/2000/svg"
   xml:space="preserve"
   width="35"
   viewBox="0 0 35 35"
   version="1.1"
   id="Layer_1"
   height="35"
   enable-background="new 0 0 32 32"><metadata
     id="metadata24"><rdf:RDF><cc:Work
         rdf:about=""><dc:format>image/svg+xml</dc:format><dc:type
           rdf:resource="http://purl.org/dc/dcmitype/StillImage" /><dc:title></dc:title></cc:Work></rdf:RDF></metadata><defs
     id="defs22" /><g
     transform="translate(1.5,1.5)"
     id="Circular_Up_Circle"><path
       id="path4"
       d="M 16,0 C 7.163,0 0,7.164 0,16 0,24.837 7.163,32 16,32 24.836,32 32,24.837 32,16 32,7.164 24.836,0 16,0 Z m 0,30 C 8.28,30 1.969,23.72 1.969,16 1.969,8.28 8.28,2 16,2 c 7.72,0 14,6.28 14,14 0,7.72 -6.28,14 -14,14 z" /><path
       id="path6"
       d="m 16.699,11.293 c -0.384,-0.38 -1.044,-0.381 -1.429,0 l -6.999,6.899 c -0.394,0.391 -0.394,1.024 0,1.414 0.395,0.391 1.034,0.391 1.429,0 l 6.285,-6.195 6.285,6.196 c 0.394,0.391 1.034,0.391 1.429,0 0.394,-0.391 0.394,-1.024 0,-1.414 l -7,-6.9 z" /></g><g
     transform="translate(1.5,1.5)"
     id="g8" /><g
     transform="translate(1.5,1.5)"
     id="g10" /><g
     transform="translate(1.5,1.5)"
     id="g12" /><g
     transform="translate(1.5,1.5)"
     id="g14" /><g
     transform="translate(1.5,1.5)"
     id="g16" /><g
     transform="translate(1.5,1.5)"
     id="g18" /></svg>