<?xml version="1.0" encoding="UTF-8" standalone="no"?>
<svg
   xmlns:dc="http://purl.org/dc/elements/1.1/"
   xmlns:cc="http://creativecommons.org/ns#"
   xmlns:rdf="http://www.w3.org/1999/02/22-rdf-syntax-ns#"
   xmlns:svg="http://www.w3.org/2000/svg"
   xmlns="http://www.w3.org/2000/svg"
   id="svg2"
   width="35"
   viewBox="0 0 35 35"
   version="1.1"
   height="35">
  <metadata
     id="metadata15">
    <rdf:RDF>
      <cc:Work
         rdf:about="">
        <dc:format>image/svg+xml</dc:format>
        <dc:type
           rdf:resource="http://purl.org/dc/dcmitype/StillImage" />
        <dc:title></dc:title>
      </cc:Work>
    </rdf:RDF>
  </metadata>
  <desc
     id="desc6" />
  <defs
     id="defs8" />
  <g
     transform="translate(1.5,1.5)"
     style="fill:none;fill-rule:evenodd;stroke:none;stroke-width:1"
     id="Page-1">
    <g
       style="fill:#929292"
       id="icon-96-folders">
      <path
         id="folders"
         d="M 1,15 1,8.9918031 C 1,8.4553056 1.4440148,8 1.9917348,8 l 10.4082892,0 1.959961,4 12.637032,0 C 27.546172,12 28,12.448106 28,13.000872 L 28,15 1,15 1,15 Z m 0,1 0,11.008197 C 1,27.555955 1.4461086,28 1.9929654,28 L 27.007035,28 C 27.555434,28 28,27.555369 28,26.999128 L 28,16 1,16 1,16 Z M 3,6 3,4.991155 C 3,3.889674 3.8966663,3 5.0027601,3 L 16,3 18,7 29.994141,7 C 31.10294,7 32,7.8932319 32,8.9950893 L 32,23.004911 C 32,24.107377 31.107575,25 30.006713,25 L 30,25 l 0,-1 0.007,0 C 30.555434,24 31,23.555369 31,22.999128 L 31,9.0008717 C 31,8.4481055 30.546172,8 29.997017,8 L 17.359985,8 15.400024,4 4.9917348,4 C 4.4440148,4 4,4.4553056 4,4.9918031 L 4,6 3,6 3,6 3,6 Z M 15,11 13,7 2.0027601,7 C 0.89666625,7 0,7.8896739 0,8.991155 l 0,18.01769 C 0,28.108529 0.89971268,29 1.9932874,29 L 27.006713,29 C 28.107575,29 29,28.107377 29,27.004911 L 29,12.995089 C 29,11.893232 28.10294,11 26.994141,11 L 15,11 l 0,0 z" />
    </g>
  </g>
</svg>
