<?xml version="1.0" encoding="UTF-8" standalone="no"?>
<svg
   xmlns:dc="http://purl.org/dc/elements/1.1/"
   xmlns:cc="http://creativecommons.org/ns#"
   xmlns:rdf="http://www.w3.org/1999/02/22-rdf-syntax-ns#"
   xmlns:svg="http://www.w3.org/2000/svg"
   xmlns="http://www.w3.org/2000/svg"
   version="1.1"
   id="svg2"
   width="999.93597"
   height="785.664"
   viewBox="0 0 999 785">
  <metadata
     id="metadata10">
    <rdf:RDF>
      <cc:Work
         rdf:about="">
        <dc:format>image/svg+xml</dc:format>
        <dc:type
           rdf:resource="http://purl.org/dc/dcmitype/StillImage" />
        <dc:title></dc:title>
      </cc:Work>
    </rdf:RDF>
  </metadata>
  <defs
     id="defs8" />
  <path
     style="fill:#000000"
     id="path4"
     d="m 999.936,253.332 0,443.052 q 0,36.828 -26.226,63.054 -26.226,26.226 -63.054,26.226 l -821.376,0 q -36.828,0 -63.054,-26.226 Q 0,733.212 0,696.384 L 0,253.332 q 24.552,27.342 56.358,48.546 201.996,137.268 277.326,192.51 31.806,23.436 51.615,36.549 19.809,13.113 52.731,26.784 32.922,13.671 61.38,13.671 l 1.116,0 q 28.458,0 61.38,-13.671 32.922,-13.671 52.731,-26.784 19.809,-13.113 51.615,-36.549 94.86,-68.634 277.884,-192.51 31.806,-21.762 55.8,-48.546 z m 0,-164.052 q 0,44.082 -27.342,84.258 -27.342,40.176 -68.076,68.634 -209.808,145.638 -261.144,181.35 -5.58,3.906 -23.715,17.019 -18.135,13.113 -30.132,21.204 -11.997,8.091 -29.016,18.135 -17.019,10.044 -32.085,15.066 -15.066,5.022 -27.9,5.022 l -1.116,0 q -12.834,0 -27.9,-5.022 -15.066,-5.022 -32.085,-15.066 -17.019,-10.044 -29.016,-18.135 -11.997,-8.091 -30.132,-21.204 Q 362.142,427.428 356.562,423.522 305.784,387.81 210.366,321.687 114.948,255.564 95.976,242.172 61.38,218.736 30.69,177.723 0,136.71 0,101.556 0,58.032 23.157,29.016 46.314,0 89.28,0 l 821.376,0 q 36.27,0 62.775,26.226 26.505,26.226 26.505,63.054 z" />
</svg>
