<?xml version="1.0" encoding="utf-8"?>
<svg xmlns="http://www.w3.org/2000/svg"
	xmlns:xlink="http://www.w3.org/1999/xlink"
	width="16px" height="16px" viewBox="0 0 16 16">
<path fillRule="evenodd" d="M 15.88 3.83C 15.88 3.83 8.83 10.85 8.83 10.85 8.63 11.04 8.32 11.04 8.12 10.85 7.93 10.65 7.93 10.34 8.12 10.14 8.12 10.14 15.17 3.12 15.17 3.12 15.37 2.93 15.68 2.93 15.88 3.12 16.07 3.32 16.07 3.63 15.88 3.83ZM 1 2C 1 2 1 14 1 14 1 14.55 1.45 15 2 15 2 15 14 15 14 15 14.55 15 15 14.55 15 14 15 14 15 8 15 8 15 8 16 8 16 8 16 8 16 14 16 14 16 15.1 15.1 16 14 16 14 16 2 16 2 16 0.9 16-0 15.1-0 14-0 14-0 2-0 2-0 0.9 0.9-0 2-0 2-0 14-0 14-0 14-0 14 1 14 1 14 1 2 1 2 1 1.45 1 1 1.45 1 2Z" /></svg>