<?xml version="1.0" encoding="UTF-8" standalone="no"?>
<svg
   xmlns:dc="http://purl.org/dc/elements/1.1/"
   xmlns:cc="http://creativecommons.org/ns#"
   xmlns:rdf="http://www.w3.org/1999/02/22-rdf-syntax-ns#"
   xmlns:svg="http://www.w3.org/2000/svg"
   xmlns="http://www.w3.org/2000/svg"
   id="svg2"
   xml:space="preserve"
   viewBox="10 7 12.21875 3.8125002"
   height="9.3846159"
   width="30.076923"
   y="0px"
   x="0px"
   version="1.1"><metadata
     id="metadata11"><rdf:RDF><cc:Work
         rdf:about=""><dc:format>image/svg+xml</dc:format><dc:type
           rdf:resource="http://purl.org/dc/dcmitype/StillImage" /><dc:title></dc:title></cc:Work></rdf:RDF></metadata><defs
     id="defs9" /><g
     transform="matrix(0,1,-1,0,28.609375,-2.59375)"
     id="option-vertical"><path
       id="path5"
       d="M 13,8.5 C 13,9.328 12.328,10 11.5,10 10.672,10 10,9.328 10,8.5 10,7.672 10.672,7 11.5,7 12.328,7 13,7.672 13,8.5 Z M 11.5,11 C 10.672,11 10,11.672 10,12.5 10,13.328 10.672,14 11.5,14 12.328,14 13,13.328 13,12.5 13,11.672 12.328,11 11.5,11 Z m 0,4 C 10.672,15 10,15.672 10,16.5 10,17.328 10.672,18 11.5,18 12.328,18 13,17.328 13,16.5 13,15.672 12.328,15 11.5,15 Z"
       style="clip-rule:evenodd;fill-rule:evenodd" /></g></svg>