<?xml version="1.0" encoding="UTF-8" standalone="no"?>
<svg xmlns="http://www.w3.org/2000/svg" viewBox="10 7 3.0000002 11" height="27.076923" width="7.3846159" y="0px" x="0px" version="1.1">
	<g id="option-vertical">
		<path id="path5" d="M 13,8.5 C 13,9.328 12.328,10 11.5,10 10.672,10 10,9.328 10,8.5 10,7.672 10.672,7 11.5,7 12.328,7 13,7.672 13,8.5 Z M 11.5,11 C 10.672,11 10,11.672 10,12.5 10,13.328 10.672,14 11.5,14 12.328,14 13,13.328 13,12.5 13,11.672 12.328,11 11.5,11 Z m 0,4 C 10.672,15 10,15.672 10,16.5 10,17.328 10.672,18 11.5,18 12.328,18 13,17.328 13,16.5 13,15.672 12.328,15 11.5,15 Z"
			style="clip-rule:evenodd;fill-rule:evenodd" />
	</g>
</svg>