<?xml version="1.0" encoding="utf-8"?>
<svg xmlns="http://www.w3.org/2000/svg"
	xmlns:xlink="http://www.w3.org/1999/xlink"
	width="15px" height="18px" viewBox="0 0 15 18">
<path  d="M 14 17C 14 17 14 12 14 12 14 12 14 2 14 2 14 1.45 13.55 1 13 1 13 1 2 1 2 1 1.45 1 1 1.45 1 2 1 2 1 8 1 8 1 8 1 17 1 17 1 17 1.2 17 1.2 17 1.2 17 6.95 13.17 6.95 13.17 6.95 13.17 7.5 12.8 7.5 12.8 7.5 12.8 8.05 13.17 8.05 13.17 8.05 13.17 13.8 17 13.8 17 13.8 17 14 17 14 17M 15 18C 15 18 13.49 18 13.49 18 13.49 18 7.5 14 7.5 14 7.5 14 1.5 18 1.5 18 1.5 18 0 18 0 18 0 18 0 8 0 8 0 8 0 2 0 2 0 0.9 0.9-0 2-0 2-0 13-0 13-0 14.1-0 15 0.9 15 2 15 2 15 12 15 12 15 12 15 18 15 18 15 18 15 18 15 18Z" style="stroke-width:1"/></svg>