<?xml version="1.0" encoding="utf-8"?>
<!-- Generator: Adobe Illustrator 19.2.0, SVG Export Plug-In . SVG Version: 6.00 Build 0)  -->
<svg version="1.1" id="Layer_1" xmlns="http://www.w3.org/2000/svg" xmlns:xlink="http://www.w3.org/1999/xlink" x="0px" y="0px"
	 width="16.62px" height="16.62px" viewBox="0 0 16.62 16.62" style="enable-background:new 0 0 16.62 16.62;" xml:space="preserve"
	>
<g>
	<g>
		<path fill="#BCBCBC" d="M16.33,14.21l-2.54-2.54c-0.32-0.32-0.79-0.36-1.17-0.17l-0.15-0.15C13.43,10.16,14,8.65,14,7
			c0-3.87-3.13-7-7-7S0,3.13,0,7s3.13,7,7,7c1.65,0,3.16-0.57,4.35-1.52l0.15,0.15c-0.2,0.38-0.15,0.85,0.17,1.17l2.54,2.54
			c0.39,0.39,1.02,0.39,1.41,0l0.71-0.71C16.72,15.23,16.72,14.6,16.33,14.21z M7,12c-2.76,0-5-2.24-5-5s2.24-5,5-5s5,2.24,5,5
			S9.76,12,7,12z"/>
	</g>
</g>
</svg>
