<?xml version="1.0" encoding="utf-8"?>
<svg xmlns="http://www.w3.org/2000/svg"
	xmlns:xlink="http://www.w3.org/1999/xlink"
	width="17px" height="22px" viewBox="0 0 17 22">
<path fillRule="evenodd" d="M 15 22C 15 22 2 22 2 22 0.9 22 0 21.1 0 20 0 20 0 8 0 8 0 6.9 0.9 6 2 6 2 6 5 6 5 6 5 6 5 7 5 7 5 7 2 7 2 7 1.45 7 1 7.45 1 8 1 8 1 20 1 20 1 20.55 1.45 21 2 21 2 21 15 21 15 21 15.55 21 16 20.55 16 20 16 20 16 8 16 8 16 7.45 15.55 7 15 7 15 7 12 7 12 7 12 7 12 6 12 6 12 6 15 6 15 6 16.1 6 17 6.9 17 8 17 8 17 20 17 20 17 21.1 16.1 22 15 22 15 22 15 22 15 22ZM 9 10C 9 10 8 10 8 10 8 10 8 1.93 8 1.93 8 1.93 5.97 3.96 5.97 3.96 5.97 3.96 5.27 3.25 5.27 3.25 5.27 3.25 8.51 0 8.51 0 8.51 0 11.76 3.25 11.76 3.25 11.76 3.25 11.05 3.96 11.05 3.96 11.05 3.96 9 1.91 9 1.91 9 1.91 9 10 9 10 9 10 9 10 9 10Z"/></svg>