<?xml version="1.0" encoding="utf-8"?>
<!-- Generator: Adobe Illustrator 19.2.0, SVG Export Plug-In . SVG Version: 6.00 Build 0)  -->
<svg version="1.1" id="Layer_1" xmlns="http://www.w3.org/2000/svg" xmlns:xlink="http://www.w3.org/1999/xlink" x="0px" y="0px"
	 width="98.4px" height="146.38px" viewBox="0 0 98.4 146.38" style="enable-background:new 0 0 98.4 146.38;" xml:space="preserve"
	>
<style type="text/css">
	.st0{opacity:0.2;fill:#2B736D;}
</style>
<path class="st0" d="M0,146.38h98.4v-22.19H34.94c5.36-3.63,10.29-7.9,15.44-12.16c14.58-12.38,31.3-24.97,39.87-42.89
	c5.15-10.67,5.57-19.63,5.57-23.9c0-12.38-4.07-25.18-13.51-33.5C77.39,7.26,66.67,0,49.52,0C27.65,0,15.01,11.52,10.29,18.14
	C5.57,24.54,0,36.28,0,54.41v1.07l26.8,2.56v-2.77c0-11.1,0.64-30.73,20.37-30.73c12.86,0,19.08,9.82,19.08,21.55
	c0,18.14-12.22,31.37-15.65,35.21C42.88,89.83,24.87,107.76,0,125.47V146.38z"/>
</svg>
