<?xml version="1.0" encoding="utf-8"?>
<!-- Generator: Adobe Illustrator 19.2.0, SVG Export Plug-In . SVG Version: 6.00 Build 0)  -->
<svg version="1.1" id="Layer_1" xmlns="http://www.w3.org/2000/svg" xmlns:xlink="http://www.w3.org/1999/xlink" x="0px" y="0px"
	 width="102.26px" height="148.3px" viewBox="0 0 102.26 148.3" style="enable-background:new 0 0 102.26 148.3;"
	 xml:space="preserve">
<style type="text/css">
	.st0{opacity:0.2;fill:#2B736D;}
</style>
<path class="st0" d="M41.16,81.3h8.58c7.72,0,15.22,1.28,19.94,8.11c3.64,5.12,3.86,10.67,3.86,12.8c0,10.88-6.65,22.83-22.72,22.83
	c-21.22,0-22.72-17.92-22.72-20.91c0-2.13,0.21-4.27,0.43-4.91H0c0,4.48,0,23.26,12.86,36.06c12.43,12.59,33.44,13.02,37.52,13.02
	c27.23,0,51.88-14.94,51.88-44.38c0-22.41-14.58-32.22-27.44-34.78c22.94-5.97,24.01-25.18,24.01-30.94C98.83,5.76,65.39,0,52.74,0
	C13.08,0,3.86,31.79,2.79,41.82l28.3,5.97c0.64-23.05,16.94-24.11,20.79-24.11c10.93,0,18.44,7.68,18.44,18.35
	c0,1.49,0,5.97-3,10.24c-4.07,5.97-10.5,6.62-16.94,6.62h-9.22V81.3z"/>
</svg>
