<?xml version="1.0" encoding="utf-8"?>
<!-- Generator: Adobe Illustrator 19.2.0, SVG Export Plug-In . SVG Version: 6.00 Build 0)  -->
<svg version="1.1" id="Layer_1" xmlns="http://www.w3.org/2000/svg" xmlns:xlink="http://www.w3.org/1999/xlink" x="0px" y="0px"
	 width="584px" height="522px" viewBox="0 0 584 522" style="enable-background:new 0 0 584 522;" xml:space="preserve">
<path style="opacity:7.000000e-02;fill-rule:evenodd;clip-rule:evenodd;fill:#2B736D;enable-background:new;" d="M543.8,236l-1.3,1.4c0,0,0,0-0.1,0.1c0,0-99.8,98.1-99.8,98.1l0,0h-0.1L262.9,512.2c-0.5,0.6-0.8,1.2-1.4,1.7
	c-0.1,0.1-0.2,0.2-0.3,0.3c-5.3,5.2-12.2,7.7-19,7.7c-6.9,0-13.8-2.6-19-7.7c-0.4-0.4-0.7-0.9-1.1-1.4l-53.1-52.2l-0.4-0.1l0.1-0.1
	L43.9,337.8c-0.8-0.7-1.6-1.3-2.4-2.1c-55.3-54.3-55.3-142.4,0-196.8c27.6-27.2,63.9-40.8,100.1-40.8c36.2,0,72.5,13.6,100.1,40.7
	c0.1,0.1,0.2,0.2,0.3,0.3L315.5,67l28.2-27.6C371.2,13.1,406.9,0,442.5,0c36.2,0,72.4,13.6,100,40.7
	C597.4,94.6,597.7,181.6,543.8,236z M478.4,103.7c-9.6-9.4-22.3-14.6-35.9-14.6c-13.4,0-26,5.1-35.5,14.2l-5.2,5l-95.7,94l-63,62
	L179,203.3l-3.2-3.1l-0.1-0.1c-9.4-8.3-21.4-12.8-34.1-12.8c-13.6,0-26.4,5.2-36,14.7c-9.6,9.4-14.9,22-14.9,35.4
	c0,12.8,4.8,24.8,13.7,34.1c0.8,0.7,1.6,1.4,2.3,2.1l0.7,0.6l0.7,0.6l124.8,122.6l9.4,9.2l136.4-134l26.6-26.1l68.9-67.7l0-0.1
	l0.1-0.1l2.7-3.4l3.4-2.8C498.1,152.9,497.5,122.5,478.4,103.7z"/>
</svg>
