<?xml version="1.0" encoding="utf-8"?>
<!-- Generator: Adobe Illustrator 19.2.0, SVG Export Plug-In . SVG Version: 6.00 Build 0)  -->
<svg version="1.1" id="Layer_1" xmlns="http://www.w3.org/2000/svg" xmlns:xlink="http://www.w3.org/1999/xlink" x="0px" y="0px"
	 width="65px" height="72px" viewBox="0 0 65 72" style="enable-background:new 0 0 65 72;" xml:space="preserve">
<path style="fill-rule:evenodd;clip-rule:evenodd;fill:#FFFFFF;" d="M48.1,52.6c-6.7,0-12.8-3.6-15.5-8.8c-2.3,4.4-7.3,7.5-13.2,8.2c0.1,1.3,0.5,3.6,2.2,5.5
	C23.8,59.9,27.1,61,32,61c0,0,0,0,0.1,0c0,0,0,0,0.1,0c3,0,4.5,2.5,4.5,5.5c0,3-1.5,5.5-4.5,5.5c0,0-0.1,0-0.1,0c0,0,0,0-0.1,0
	c-0.1,0-0.8,0-2.6,0c-3.7,0-9.8-0.5-14.7-4.6c-4.6-3.9-7-10.2-7.1-17.6C3,47.2,0,43,0,38.1c0-0.6,0.3-13.2,0.3-13.8
	c0-1.6,1-2.3,2.3-2.3h4.1V1.3C6.7,0.6,7.3,0,8,0h8.7C17.4,0,18,0.6,18,1.3v20.8h44.7c0.7,0,2.3,0.7,2.3,2.3v15.1
	C65,46.3,57,52.6,48.1,52.6z M16.4,65.4c3.5,2.9,7.9,3.8,11.1,4c0,0,0,0,0,0c0.1,0,0.2,0,0.4,0c1.4,0,3.6,0,3.6,0l0,0
	c1.6-0.1,2.8-1.3,2.8-2.9c0-1.6-1.3-2.9-2.9-2.9c-0.1,0-0.1,0-0.2,0c-0.7-0.1-2.3-0.2-3.4-0.3c0,0,0,0,0,0c-3.5-0.6-6.2-2-8.1-4.1
	c-2.2-2.5-2.8-5.3-2.9-7c-2.3,0-4.6-0.4-6.6-1.2C10.5,57,12.6,62.3,16.4,65.4z M15.4,2.5H9.3v19.5h6.1V2.5z M62.4,24.6H2.8
	c-0.1,5.1-0.2,13.1-0.2,13.5c0,6.3,6.5,11.5,14.5,11.5c7.3,0,13.4-4.3,14.2-10.1c0.1-0.6,0.6-1.1,1.3-1.1c0.6,0,1.2,0.5,1.3,1.1
	C34.8,45.4,41,50,48.1,50c7.3,0,14.3-5.1,14.3-10.5V24.6z M46.4,31l1.7-1.9l8.7,7.4l-1.7,1.9L46.4,31z M52.9,44.2L40.1,33.8l1.7-2
	l12.8,10.4L52.9,44.2z"/>
</svg>
