<?xml version="1.0" encoding="utf-8"?>
<!-- Generator: Adobe Illustrator 19.2.0, SVG Export Plug-In . SVG Version: 6.00 Build 0)  -->
<svg version="1.1" id="Layer_1" xmlns="http://www.w3.org/2000/svg" xmlns:xlink="http://www.w3.org/1999/xlink" x="0px" y="0px"
	 width="57px" height="62px" viewBox="0 0 57 62" style="enable-background:new 0 0 57 62;" xml:space="preserve">
<g>
	<path style="fill:#FFFFFF;" d="M27,14c3.9,0,7-3.1,7-7c0-3.9-3.1-7-7-7c-3.9,0-7,3.1-7,7C20,10.9,23.2,14,27,14z M27,3c2.2,0,4,1.8,4,4
		c0,2.2-1.8,4-4,4c-2.2,0-4-1.8-4-4C23,4.8,24.8,3,27,3z"/>
	<path style="fill:#FFFFFF;" d="M48.5,20.8c2.1-1.2,3.5-3.3,3.5-5.9c0-3.8-3.1-7-7-7c-3.9,0-7,3.1-7,7c0,0.5-0.2,0.7-0.1,1.2
		c-3.6-0.5-8.4-0.6-8.4-0.6c-3.4,0-6.9,0.2-9.9,1.4c-2.4,1-4.4,3.2-5.5,4.5c-1-0.5-2.1-0.4-3.3-0.4C7.4,21,5,23.5,5,27
		c0,2.3,0.8,4.6,2.6,5.7c-2.5,0.4-5.9,1.7-6.8,4.5C-0.1,39.9,0,43.3,0,46c0,0.7,0,1.3,0,2c0,2.8,2.2,4.1,4.1,4.1
		c0.3,0,0.6,0,0.9-0.1l0,6c0,2.3,1.4,3.5,3,3.9L9,62c0,0,0,0,0,0c0,0,0,0,0,0c0,0,5,0,5,0c0,0,0,0,0,0c2,0,4-1.5,4-4.4L18,41
		c0.4-0.2,1.4-0.6,2-1c0,6.6-0.1,14-0.1,17c0,2.9,2,4.5,4.1,4.8l8,0.1c2-0.1,4-1.7,4-4.7c0-3.8,0-14.3,0-22.2c1.3-1,2.3-1.5,3-2
		c0.1,5.7-0.1,21.2,0,25c0,1.6,0.7,2.3,1.3,2.9C41,61.6,41.9,62,43,62c0,0,0,0,0,0l5,0c0,0,0.1,0,0.1,0c1,0,2-0.4,2.7-1.1
		c0.6-0.5,1.2-1.5,1.2-3.1c0-3.1-0.2-10.3,0-13.8c0.1,0,0.8,0.2,1,0.2c2,0,4-1.5,4-4.1V29C57,24.6,53.9,21.7,48.5,20.8z M45,11
		c2.2,0,4,1.8,4,4c0,2.2-1.8,4-4,4c-2.2,0-4-1.8-4-4C41,12.8,42.8,11,45,11z M11,24c1.7,0,3,1.3,3,3c0,1.7-1.3,3-3,3
		c-1.7,0-3-1.3-3-3C8,25.3,9.3,24,11,24z M20,36c-0.1,0.1-4.1,2.8-4.1,2.8C15.3,39,15,39.6,15,40.2v7.6c0,0.1,0,0.1,0,0.2v4.4V58
		v0.1c0,0.5-0.4,0.9-0.9,0.9H14h-4H8.9C8.4,59,8,58.6,8,58.1V57v-4.6V48v-6c0-0.9-0.6-2-1.4-2C5.7,40,5,41.1,5,42v6
		c0,1.1-0.6,1-0.9,1c-0.2,0-0.9-0.1-0.9-1.2c0-0.7,0-1.5,0-2.2C3.1,43,3,40.4,3.7,38.2c0.7-2,4.6-2.9,7.2-3.1
		c2.6-0.2,6.4-0.5,9.1-2.1C20,33.9,20,35,20,36z M34.8,23.9C34.2,24.3,33,24.8,33,27c0,3.3,0,19.2,0,30c0,0,0,0,0,0v1.1
		c0,0.5-0.4,0.9-0.9,0.9H30h-4h-2c-0.5,0-0.9-0.4-0.9-0.9v-3.2c0-8.3,0-27.6,0-27.8c0-1.5-1.3-1.9-2-2.1c-0.7-0.1-1.5,0.3-1.7,1
		l-1.8,4.9c-0.5,0.2-1.1,0.5-1.9,0.7c1.1-1.2,1.8-2.7,1.8-4.5c0-1.3-0.4-2.5-1-3.5c0.9-1.2,2.6-3,4.4-3.8c2.5-1,5.7-1.1,8.7-1.1
		c4.2,0,9.3,0.5,10.2,1c0.1,0.1,0.2,0.1,0.3,0.2c0.5,0.5,1,0.9,1.6,1.2C38.1,21.9,35,23.8,34.8,23.9z M53,41.1
		c-0.8,0-0.9-1.1-0.9-1.6v-10c0-0.9-0.7-1.6-1.5-1.6c-0.9,0-1.5,0.1-1.5,1v23c0,0.1,0,0.1,0,0.2v6.1c0,0.4-0.3,0.7-0.7,0.7h-5.6
		c-0.4,0-0.7-0.3-0.7-0.7v-3.1c0-0.7,0-1.2,0-1.2V31c0-1.5-0.8-1.9-1.3-2.2c-0.5-0.3-1.1-0.2-1.6,0.1C39,29,38,29.6,37,30.3
		c0.1-2.1,0.2-3.7,0.2-4.2c1.4-0.8,4.8-2.5,7.8-2.5c7.8,0,9,3.3,9,5.3v11.2h0C53.9,40.9,53.3,41.1,53,41.1z"/>
</g>
</svg>
