<?xml version="1.0" encoding="utf-8"?>
<!-- Generator: Adobe Illustrator 19.2.0, SVG Export Plug-In . SVG Version: 6.00 Build 0)  -->
<svg version="1.1" id="Layer_1" xmlns="http://www.w3.org/2000/svg" xmlns:xlink="http://www.w3.org/1999/xlink" x="0px" y="0px"
	 width="80px" height="30px" viewBox="0 0 80 30" style="enable-background:new 0 0 80 30;" xml:space="preserve">
<path id="Icon" style="fill:#FFFFFF;" d="M72.4,12.5c-0.1,0-0.1,0-0.2,0c-0.6-0.1-1.1-0.7-1-1.3c0,0,0,0,0,0c0.2-0.7,0.1-1.4-0.2-1.9
	c-0.4-0.5-1.2-0.8-2.7-1.1c-1.9-0.2-3.8-0.3-5.6-0.3h-0.6c-0.6,0-1.2-0.5-1.2-1.1c0-0.6,0.5-1.2,1.1-1.2c0,0,0.1,0,0.1,0h0.6
	c2,0,4,0.1,6.1,0.3c1.6,0.2,3.3,0.7,4.3,2c0.7,1.1,1,2.4,0.7,3.7C73.5,12.1,73,12.5,72.4,12.5z M79.8,8.3c-0.9-3.9-3.7-6.4-8.3-7.3
	c-2.6-0.5-5.3-0.8-8-0.9c-0.3,0-0.6,0-0.8,0c0,0-1.2-0.1-2.9-0.1C55,0,49.4,0.5,46,2.6c-1.1,0.5-3.5,1.9-6,1.9
	c-2.1-0.2-4.2-0.8-6-1.9C30.6,0.5,25,0,20.2,0c-1.7,0-2.9,0.1-2.9,0.1c-0.2,0-0.5,0-0.8,0c-2.7,0.1-5.4,0.4-8,0.9
	C3.9,1.9,1.1,4.5,0.2,8.3c-1.5,6.7,4,18.2,9.8,20.6c2,0.8,4,1.1,6.1,1.1c6.8,0,13.8-3,17.1-7.4c2.6-3.4,3.7-8.2,3.9-12c0,0,0,0,0,0
	c0.3-1.3,1.4-2.2,2.7-2.1h0.2c1.3,0,2.4,0.9,2.7,2.1c0,0,0,0,0,0l0,0c0.2,3.8,1.4,8.6,3.9,12C50,27,57.1,30,63.9,30l0,0
	c2.1,0,4.2-0.3,6.1-1.1C75.8,26.5,81.3,15,79.8,8.3z M30.7,20.8c-2.6,3.5-8.9,6.1-14.5,6.1c-1.7,0-3.3-0.3-4.9-0.8
	C6.9,24.2,2.2,14.2,3.4,9C4,6.3,5.9,4.7,9.2,4c2.5-0.5,5-0.7,7.5-0.8c0.3,0,0.6,0,0.9,0c0,0,1.1-0.1,2.7-0.1
	c7.7,0,12.9,1.4,13.5,3.8C34.5,9.9,33.7,16.8,30.7,20.8L30.7,20.8z M68.7,26.1c-1.6,0.6-3.2,0.9-4.9,0.8c-5.6,0-11.9-2.6-14.5-6.1
	c-3.1-4-3.9-10.9-3.1-13.9c0.6-2.3,5.8-3.8,13.5-3.8c1.6,0,2.7,0.1,2.7,0.1c0.2,0,0.5,0,0.9,0c2.5,0.1,5,0.3,7.5,0.8
	c3.3,0.7,5.2,2.3,5.8,5C77.8,14.2,73.1,24.2,68.7,26.1L68.7,26.1z"/>
</svg>
