<?xml version="1.0" encoding="utf-8"?>
<!-- Generator: Adobe Illustrator 19.2.0, SVG Export Plug-In . SVG Version: 6.00 Build 0)  -->
<svg version="1.1" id="Layer_1" xmlns="http://www.w3.org/2000/svg" xmlns:xlink="http://www.w3.org/1999/xlink" x="0px" y="0px"
	 width="69px" height="44px" viewBox="0 0 69 44" style="enable-background:new 0 0 69 44;" xml:space="preserve">
<path id="Icon" style="fill:#FFFFFF;" d="M65.6,10.2l-24.4-7c-2.5-0.7-5,0.7-5.8,3.2l-7.1,24.4c-0.7,2.5,0.7,5,3.2,5.8l24.4,7
	c2.5,0.7,5.1-0.7,5.8-3.2L68.8,16C69.5,13.5,68.1,10.9,65.6,10.2 M37.8,31.9c-1.8-0.5-2.8-2.4-2.3-4.2c0.5-1.8,2.4-2.8,4.2-2.3
	c1.8,0.5,2.8,2.4,2.3,4.2C41.5,31.4,39.6,32.4,37.8,31.9C37.8,31.9,37.8,31.9,37.8,31.9 M42.1,17c-1.8-0.5-2.8-2.4-2.3-4.2
	c0.5-1.8,2.4-2.8,4.2-2.3c1.8,0.5,2.8,2.4,2.3,4.2C45.8,16.5,43.9,17.5,42.1,17C42.1,17,42.1,17,42.1,17 M53.2,36.3
	c-1.8-0.5-2.8-2.4-2.3-4.2c0.5-1.8,2.4-2.8,4.2-2.3c1.8,0.5,2.8,2.4,2.3,4.2C56.9,35.8,55,36.9,53.2,36.3
	C53.2,36.3,53.2,36.3,53.2,36.3 M57.5,21.4c-1.8-0.5-2.8-2.4-2.3-4.2c0.5-1.8,2.4-2.8,4.2-2.3c1.8,0.5,2.8,2.4,2.3,4.2
	C61.2,20.9,59.3,21.9,57.5,21.4C57.5,21.4,57.5,21.4,57.5,21.4 M25.3,29.9l2.5-8.8c-1.8-0.6-2.7-2.6-2.1-4.3c0.6-1.6,2.3-2.6,4-2.2
	l2.7-9.2c0-0.1,0-0.1,0.1-0.2l-1.8-3c-1.3-2.2-4.1-3-6.4-1.7l-22,12.7c-2.2,1.3-3,4.1-1.7,6.4l12.8,22c1.3,2.2,4.1,3,6.4,1.7
	l8.5-4.9C25.6,36.5,24.4,33.1,25.3,29.9 M7.3,19.5c-0.9-1.6-0.4-3.7,1.3-4.7c1.6-0.9,3.7-0.4,4.7,1.3c0.9,1.6,0.4,3.7-1.2,4.7
	C10.4,21.7,8.3,21.1,7.3,19.5 M12.2,27.7c-0.9-1.6-0.4-3.7,1.2-4.7c1.6-0.9,3.7-0.4,4.7,1.2c0.9,1.6,0.4,3.7-1.2,4.7
	C15.3,29.9,13.2,29.3,12.2,27.7C12.2,27.7,12.2,27.7,12.2,27.7 M21.7,37.1c-1.6,0.9-3.7,0.4-4.7-1.3c-0.9-1.6-0.4-3.7,1.3-4.7
	c1.6-0.9,3.7-0.4,4.7,1.2C23.8,34.1,23.3,36.2,21.7,37.1 M21.2,11.5c-0.9-1.6-0.4-3.7,1.2-4.7s3.7-0.4,4.7,1.2
	c0.9,1.6,0.4,3.7-1.2,4.7C24.2,13.7,22.2,13.2,21.2,11.5C21.2,11.5,21.2,11.5,21.2,11.5"/>
</svg>
