<?xml version="1.0" encoding="utf-8"?>
<!-- Generator: Adobe Illustrator 19.2.0, SVG Export Plug-In . SVG Version: 6.00 Build 0)  -->
<svg version="1.1" id="Layer_1" xmlns="http://www.w3.org/2000/svg" xmlns:xlink="http://www.w3.org/1999/xlink" x="0px" y="0px"
	 width="59px" height="50px" viewBox="0 0 59 50" style="enable-background:new 0 0 59 50;" xml:space="preserve">
<g>
	<path style="fill:#FFFFFF;" d="M42.3,0c-5,0-9.7,2.2-12.8,6.1C26.4,2.2,21.7,0,16.7,0C8.4,0,0,6.5,0,18.9c0,12.9,14.4,22.6,27.9,30.7
		c1,0.6,2.2,0.6,3.1,0C44.6,41.5,59,31.7,59,18.9C59,6.5,50.6,0,42.3,0z M29.5,46.8C19.4,41.3,3.3,30,3.3,18
		c0-10.2,6.2-14.8,12-14.8c4.9,0,9.9,1.4,11.9,6.4c0.2-1.1,1.1-1.9,2.2-1.9c1.1,0,2,0.8,2.2,1.9c2.1-5,7.1-6.4,11.9-6.4
		c5.8,0,12,4.6,12,14.8C55.7,29.8,39.5,41.2,29.5,46.8z"/>
	<path style="fill:#FFFFFF;" d="M27.2,14h-4.1c0,0,0,0,0,0c-1.2,0-2.2,1-2.2,2.2c0,1.2,1,2.2,2.2,2.2h4.1v4c0,1.3,1,2.3,2.3,2.3s2.3-1,2.3-2.3
		v-4h4.1c0,0,0,0,0,0c1.2,0,2.2-1,2.3-2.2c0,0,0,0,0,0c0-1.2-1-2.2-2.3-2.2h-4.1v-4c0-0.1,0-0.3,0-0.4c0,0,0,0,0,0
		c-0.5,1.2-0.9,1.2-2.2,1.2s-1.7,0-2.2-1.2c0,0,0,0,0,0c0,0.1,0,0.2,0,0.4V14z"/>
</g>
</svg>
