<?xml version="1.0" encoding="utf-8"?>
<!-- Generator: Adobe Illustrator 19.2.0, SVG Export Plug-In . SVG Version: 6.00 Build 0)  -->
<svg version="1.1" id="Layer_1" xmlns="http://www.w3.org/2000/svg" xmlns:xlink="http://www.w3.org/1999/xlink" x="0px" y="0px"
	 width="380px" height="380px" viewBox="0 0 380 380" style="enable-background:new 0 0 380 380;" xml:space="preserve">
<style type="text/css">
	.st0{fill:#23B2C9;}
	.st1{fill:none;stroke:#7B331A;stroke-width:3;stroke-miterlimit:10;}
	.st2{fill:#721F17;}
	.st3{fill:#FFFFFF;}
	.st4{fill:none;stroke:#EE2C24;stroke-width:0.75;stroke-miterlimit:10;stroke-dasharray:1.9916,1.9916;}
	.st5{fill:#ED2826;}
	.st6{fill:#FEFEFB;}
	.st7{fill:#C3E5E3;}
	.st8{fill:#D12227;}
	.st9{opacity:0.5;fill:#7B2417;enable-background:new    ;}
	.st10{fill:#F9F9FA;}
	.st11{fill:#E9E9E9;}
	.st12{fill:#DEDDDD;}
	.st13{fill:#752C16;}
	.st14{fill:#7ACED7;}
	.st15{fill:#348597;}
	.st16{fill:#20989E;}
	.st17{fill:#5EC093;}
	.st18{fill:none;stroke:#DE3B27;stroke-width:2;stroke-miterlimit:10;}
	.st19{fill:#7B2417;}
	.st20{fill:#ED2426;}
	.st21{fill:none;stroke:#ED1C24;stroke-miterlimit:10;}
	.st22{fill:none;stroke:#ED1C24;stroke-miterlimit:10;stroke-dasharray:1.9449,1.9449;}
	.st23{fill:none;stroke:#ED1C24;stroke-miterlimit:10;stroke-dasharray:1.1663,1.1663;}
	.st24{fill:#198E8E;}
	.st25{fill:none;stroke:#20989E;stroke-miterlimit:10;}
	.st26{fill:none;stroke:#7B2417;stroke-miterlimit:10;}
	.st27{fill:none;}
	.st28{fill:none;stroke:#7B2417;stroke-linejoin:round;stroke-miterlimit:10;}
	.st29{opacity:0.4;fill:#F7F7F7;enable-background:new    ;}
	.st30{fill:#FFFFFB;}
	.st31{fill:#E2E2E1;}
	.st32{fill:#20B1C8;}
	.st33{fill:#ED2726;}
	.st34{fill:#C2E5E3;}
	.st35{fill:#5DBF92;}
	.st36{fill:#DE3B27;}
	.st37{fill:#348496;}
	.st38{fill:none;stroke:#ED2726;stroke-miterlimit:10;}
	.st39{fill:none;stroke:#ED2726;stroke-miterlimit:10;stroke-dasharray:2.0278,2.0278;}
	.st40{fill:#DD2627;}
	.st41{fill:#7ABC89;}
	.st42{fill:#8AC987;}
	.st43{fill:none;stroke:#752C16;stroke-miterlimit:10;}
	.st44{opacity:0.5;fill:#348496;}
	.st45{fill:none;stroke:#7B2417;stroke-linecap:round;stroke-linejoin:round;stroke-miterlimit:10;}
	.st46{fill:none;stroke:#348496;stroke-linejoin:round;stroke-miterlimit:10;}
	.st47{fill:none;stroke:#20B1C8;stroke-miterlimit:10;}
	.st48{fill:#21A7AE;}
	.st49{fill:#22B1C8;}
	.st50{fill:none;stroke:#ED2726;stroke-width:2;stroke-miterlimit:10;}
	.st51{fill:#189DAA;}
	.st52{fill:#1F979D;}
	.st53{fill:none;stroke:#752C16;stroke-width:0.75;stroke-linecap:round;stroke-linejoin:round;stroke-miterlimit:10;}
</style>
<path class="st33" d="M136.95,180.8c0,0-8.28,1.73-9.72,1.18c-1.44-0.55-38.2,0-38.2,0l-5.3-2.19c0,0,9.36-6.95,10.26-14.26
	c0.9-7.31,29.24-9.94,29.24-9.94"/>
<path class="st2" d="M99.99,274.04c0,0-1.1,2.61-1.1,3.63c0,1.03,1.1,1.92,1.1,1.92s-0.21,0.55-0.55,0.89s-0.79,0.62-0.15,0.82
	c0.63,0.21,0.29,0.52,1.73,0.43c1.44-0.09,7.56-0.99,8.24-0.98c0.68,0.01,0.84-1.94,0.54-2.16c-0.3-0.23-2.06-0.23-1.3-1.8
	c0.75-1.58,0.48-2.47-0.07-2.74s-1.78-0.75-1.78-0.75"/>
<path class="st33" d="M115.36,97.83c0,0-8.19-2.08-12.02,3.37c-3.83,5.45-7.74,36.17-7.74,36.17s0.02,37.05,1.55,40.89
	c0.99,2.48,12.01,4.96,12.38,4.89c0.36-0.08,28.99,0.77,28.99,0.77s-3.56-34.86-3.93-38.23c-0.37-3.36,1.53-4.09,0.32-5.54
	c-1.21-1.45-2.65-6.99-2.65-6.99s-4.11-18.75-4.71-20.31c-0.6-1.56,0.29-1.44-0.73-3.29C125.81,107.69,125.35,101.13,115.36,97.83z"
	/>
<polyline class="st30" points="101.15,281.56 102.58,326.77 108.86,327.19 108.61,280.7 "/>
<polyline class="st30" points="133.33,281.56 131.94,326.77 125.88,327.19 126.12,280.7 "/>
<path class="st2" d="M96.65,215.69c0,0,3.35,1.22,7.55,1.06c4.2-0.17,11.35-0.3,11.35-0.3l1.4,10.26l-4.22,0.55
	c0,0-1.51,31.35-2.92,36.86c-0.34,1.33-0.36,16.07-0.55,16.64c-0.19,0.57-9.2,1.04-9.2,1.04s-0.19-16.92-1.13-18.08
	C97.99,262.55,96.65,215.69,96.65,215.69z"/>
<path class="st2" d="M133.04,215.19c0,0-3.62,0.97-7.83,0.97c-4.21,0-11.36,0.16-11.36,0.16l-0.58,10.3l4.27,0.26
	c0,0,6.44,35.55,5.94,36.8c-0.5,1.25,2.65,16.13,2.23,16.58c-0.41,0.44,8.3,1.81,8.3,1.81s-0.52-18.03,0.29-19.22
	C135.11,261.65,133.04,215.19,133.04,215.19z"/>
<path class="st32" d="M109.52,322.69c0,0,0.15,0.07,0.35,0.2c0.38,0.25,0.92,0.71,0.92,1.28c0,0.87,0.25,4.58,0.62,5.69
	c0.37,1.11,0.58,6.71-2.44,7.3c-0.85,0.17-2.78,0.5-4.39,0.5c-1.61,0-7.78,0-7.78,0s-1.86-0.25-2.23-1.48
	c-0.37-1.24-0.67-0.65-0.67-1.51c0-0.87,0.79-2.7,1.54-3.32c0.74-0.62,3.47-1.11,3.96-1.11c0.5,0,0.45-6.36,2.57-6.73
	c2.12-0.37,3.49,1.16,3.49,1.16s1.11,3.84,1.98,3.84c0.87,0,1.86-0.62,1.86-0.62"/>
<path class="st40" d="M109.43,322.45c0,0,1.57,0.66,1.57,0.91c0,0.25,0.66,2.72,0.33,2.72c-0.33,0-1.9,0.25-1.98-0.58
	C109.26,324.67,109.43,322.45,109.43,322.45z"/>
<path class="st40" d="M105.88,324.67c0.02,0.09,0.04,0.18,0.05,0.29c0.12,0.8,0.15,2.02-0.22,2.02c-0.41,0-1.49-0.58-1.82-1.32
	c-0.33-0.74-1.16-0.71-1.74-0.71c-0.58,0-1.16,1.47-1.24,1.11c-0.08-0.36-0.41-0.86-0.16-1.68c0.25-0.83-0.01-1.49,0.58-1.49
	c0.59,0.01,1.99,0.38,2.73,0.71"/>
<polyline class="st45" points="103.24,325.99 102.1,326.21 103.74,327.23 101.58,327.4 104.07,329.66 99.94,329.93 103.57,330.49 
	98.12,330.49 "/>
<path class="st46" d="M104.92,326.69c0,0,1.79,4.05-0.11,4.29c-1.9,0.25-7.92,0-7.92,0"/>
<path class="st40" d="M109.87,322.9c0,0-1.18-0.12-1.68,1.12c-0.5,1.24-1.4,1.24-2.06,0.95c-0.66-0.29-1.65,0.79-1.65,0.79
	s-0.17,0.83,0.5,1.4c5.01,4.38-1.96,2.79,3.88,2.15c1.49-0.16,0.4-2.81,1.52-2.97C111.49,326.16,109.87,322.9,109.87,322.9z"/>
<path class="st32" d="M125.59,322.69c0,0-0.15,0.07-0.36,0.2c-0.38,0.25-0.94,0.71-0.94,1.28c0,0.87-0.25,4.58-0.63,5.69
	c-0.38,1.11-0.59,6.71,2.49,7.3c0.87,0.17,2.83,0.5,4.48,0.5c1.64,0,7.93,0,7.93,0s1.89-0.25,2.27-1.48
	c0.38-1.24,0.68-0.65,0.68-1.51c0-0.87-0.81-2.7-1.57-3.32c-0.76-0.62-3.53-1.11-4.04-1.11c-0.5,0-0.46-6.36-2.63-6.73
	c-2.17-0.37-3.56,1.16-3.56,1.16s-1.14,3.84-2.02,3.84c-0.88,0-1.89-0.62-1.89-0.62"/>
<path class="st40" d="M125.69,322.45c0,0-1.6,0.66-1.6,0.91c0,0.25-0.67,2.72-0.34,2.72c0.34,0,1.94,0.25,2.02-0.58
	C125.85,324.67,125.69,322.45,125.69,322.45z"/>
<path class="st40" d="M129.3,324.67c-0.02,0.09-0.04,0.18-0.05,0.29c-0.13,0.8-0.15,2.02,0.22,2.02c0.42,0,1.52-0.58,1.85-1.32
	c0.34-0.74,1.18-0.71,1.77-0.71c0.59,0,1.18,1.47,1.26,1.11c0.08-0.36,0.42-0.86,0.17-1.68c-0.25-0.83,0.01-1.49-0.59-1.49
	c-0.6,0.01-2.03,0.38-2.78,0.71"/>
<polyline class="st45" points="132,325.99 133.16,326.21 131.49,327.23 133.69,327.4 131.16,329.66 135.36,329.93 131.66,330.49 
	137.22,330.49 "/>
<path class="st46" d="M130.29,326.69c0,0-1.82,4.05,0.11,4.29c1.94,0.25,8.08,0,8.08,0"/>
<path class="st40" d="M125.24,322.9c0,0,1.21-0.12,1.71,1.12c0.51,1.24,1.43,1.24,2.1,0.95c0.67-0.29,1.68,0.79,1.68,0.79
	s0.17,0.83-0.51,1.4c-5.11,4.38,2,2.79-3.96,2.15c-1.52-0.16-0.41-2.81-1.55-2.97C123.58,326.16,125.24,322.9,125.24,322.9z"/>
<path class="st33" d="M115.83,109.78c0,0-8.19-2.08-12.02,3.37c-3.83,5.45-7.74,36.17-7.74,36.17s0.02,37.05,1.55,40.89
	c0.99,2.48,12.01,4.96,12.38,4.89c0.36-0.08,20.27-15.04,20.27-15.04s5.16-19.06,4.79-22.43c-0.37-3.36,1.53-4.09,0.32-5.54
	c-1.21-1.45-2.65-6.99-2.65-6.99s-4.11-18.75-4.71-20.31c-0.6-1.56,0.29-1.44-0.73-3.29C126.28,119.64,125.82,113.08,115.83,109.78z
	"/>
<path class="st32" d="M96.31,177.82c0,0-0.12,24.51,0.04,28.38c0.16,3.86-0.6,9.74-0.6,9.74s4.97,4.13,13.57,2.09
	c9.25-2.19,19.91-1.28,22.68-1.53c2.77-0.26,0.75-9.18,0.45-11.98c-0.3-2.8-1.77-26.99-1.77-28.31
	C130.69,174.89,98.24,176.32,96.31,177.82z"/>
<path class="st33" d="M103.37,277.87c-1.17-0.15,1.46,1.46,2.33,0.29S104.53,278.01,103.37,277.87z"/>
<path class="st33" d="M128.58,277.78c-1.23-0.15,1.54,1.54,2.47,0.31C131.97,276.86,129.81,277.94,128.58,277.78z"/>
<path class="st47" d="M98.29,217.21c0,0-1.05,0.27-1.01,1.3c0.05,1.03-1.39,3.63-2.56,2.74c-1.17-0.89-0.34-3.7,1.44-3.57
	c1.78,0.14,2.19-0.89,1.71-1.23c-0.48-0.34-1.1,1.78-1.92,2.33c-0.82,0.55-3.63-2.26-2.47-3.22c1.17-0.96,2.4,0.14,3.02,0.62
	c0.62,0.48,1.23-0.21,1.23-0.21"/>
<path class="st48" d="M98,217.85c0,0,2.64,0.18,4.43,0.37c1.79,0.18,5.81-0.18,7.28-0.82c1.46-0.64,4.02-0.64,4.02-0.64
	s-6.68,0.27-8.69,0.55s-6.69-0.38-7.41-0.83C96.9,216.03,97.54,217.67,98,217.85z"/>
<circle class="st37" cx="99.1" cy="192.22" r="1.1"/>
<circle class="st37" cx="104.21" cy="190.94" r="1.1"/>
<circle class="st37" cx="108.23" cy="190.3" r="1.1"/>
<circle class="st37" cx="112.63" cy="189.2" r="1.1"/>
<circle class="st37" cx="117.07" cy="188.38" r="1.1"/>
<circle class="st37" cx="121.59" cy="188.11" r="1.1"/>
<circle class="st37" cx="125.16" cy="187.65" r="1.1"/>
<circle class="st37" cx="128.82" cy="187.65" r="1.1"/>
<circle class="st37" cx="128.53" cy="183.91" r="1.1"/>
<circle class="st37" cx="128.33" cy="178.96" r="1.1"/>
<path class="st13" d="M171.58,284.27c0,0-7.79,4.24-6.03,7.8c0,0-1.51,1.78,0.38,2.88c0,0,0,5.07-0.63,7
	c-0.63,1.92-1.75,8.82-2.4,12.61c-1.83,10.59-0.28,26.59,8.17,26.89c4.19,0.15,24.24,0.14,26.37,0c2.13-0.14,4.14-4.95,3.64-12.14
	c-0.5-7.2-1.26-40.8-1.88-42.17c-0.63-1.37-0.63-2.33-0.38-3.29c0.25-0.96-0.5-2.19-1.13-2.33
	C197.06,281.38,171.58,284.27,171.58,284.27z"/>
<path class="st49" d="M263.57,330.05c0.83,1.73,4.16,6.16,5,6.73c0.83,0.58,2.83,5,2.83,6.54c0,1.54-1.33,3.27-3.91,3.27
	c-2.58,0-15.24-0.38-16.23-0.58c-1-0.19-5.5-0.96-5.83-2.69c-0.33-1.73-0.59-8.41-0.5-10.97c0.09-2.56,8.82-2.5,18.15-2.31"/>
<path class="st19" d="M213.04,201.37c0,0-2.66,3.01-2.3,5.33c1.1,7.04-1.65,16.44-1.65,16.44s0.76,44.52,0.38,46.86
	c-0.38,2.35,1.76,5.48,1.76,5.48s2.98,32.17,2.98,34.26c0,2.09-1.37,7.31-1.37,7.31s3.02,1.26,4.66,1.52
	c1.65,0.26,13.32,1.87,14.41,1.09c1.1-0.78,2.74-4.44,2.74-5.22s0.23-4.42,0-5.22c-1.52-5.22,1.05-61.29,1.59-77.73
	c0.03-0.94,4.81-29.25,4.81-29.25L213.04,201.37z"/>
<path class="st19" d="M267.57,201.37c0,0,2.66,3.01,2.3,5.33c-1.1,7.04,1.65,16.44,1.65,16.44s-1.85,44.52-1.48,46.86
	c0.38,2.35-1.76,5.48-1.76,5.48s-2.66,34.8-2.66,36.89c0,2.09,0.27,4.66,0.27,4.66s-0.15,3.04-1.79,3.3
	c-1.65,0.26-17.77,2.74-18.87,1.96c-1.1-0.78-0.7-4.37-0.7-5.15s-0.69-4.5-0.46-5.29c1.52-5.22,0.83-63.92,0.29-80.36
	c-0.03-0.94-4.81-29.25-4.81-29.25L267.57,201.37z"/>
<path class="st19" d="M236.8,223.16c2.47,0.82,5.49,1.1,9.06-1.1c3.57-2.19,4.11-16.46,3.29-16.46s-11.25-0.82-11.25-0.82"/>
<path class="st49" d="M209.54,167.9c0,0,1.56,25.6,1.56,26.15s-0.58,4.21-0.78,4.94c-0.19,0.73,2.14,2.38,2.72,2.38
	c0.58,0,24.72,0.73,28.02,0.91c3.31,0.18,23.55,0.37,24.33,0.37c0.78,0,3.89-0.55,4.09-1.83c0.19-1.28-0.78-4.02-0.78-5.3
	c0-1.28,0.8-2.19,0.8-2.19l1.14-48.28c0,0,0-11.52,0.2-12.98c0.19-1.46-1.36-18.47-1.36-18.47s-5.25-1.1-6.23-1.1
	c-0.97,0-8.17,12.25-22.57,9.88c-14.4-2.38-17.44-13.35-17.44-13.35c1.22,0.53-7.03-1.47-17.82,7.53
	c-10.05,8.38,8.6,37.64,8.6,37.64s18.88,12.62,19.85,12.8c0.97,0.18,11.29-3.11,11.29-3.11"/>
<path class="st30" d="M236.98,163.52h-27.61l0.55,13.17c0,0,29.27-1.07,43.08,0.85c13.81,1.92,16.84,1.83,16.84,1.83l0.28-12.13
	l-33.5-4.39"/>
<path class="st30" d="M101.57,142.66c0,0,4.5-2.19,5.93-3.53c1.43-1.33-0.73-5.02-0.73-5.02l-0.92-1.99c0,0-2.27-0.79-2.2-2.56
	c0.07-1.76,0.68-3.6,1.5-3.1c0.83,0.51,1.13-1.67,1.04-3.15c-0.09-1.49,0.19-5.53,1.12-6.92c0.92-1.39,2.13,1.77,3.8,2.93
	c1.67,1.16,6.14,3.51,8.15,3.59c2.01,0.08,3.35,0.64,3.4,1.01c0.05,0.37,0.66,4.53,0.73,5.02c0.07,0.49-0.04,5.76-0.62,8.6
	c-0.59,2.84,1.66,6.25,3.14,6.92c1.47,0.67,2.62,0.78,2.62,0.78s-7.18,5.66-7.78,5.81c-0.61,0.14-16.83-4.75-17.18-5.45
	C103.21,144.89,101.57,142.66,101.57,142.66z"/>
<path class="st30" d="M223.08,108.9c0,0,5.78,0.67,6.46-1.51c2.49-7.96,1.6-7.61,1.6-7.61l25.15,1.03l1.74,8.48
	c0,0,5.33,2.65,6.07,3.75c0.73,1.1-6.07,8.9-8.63,9.82s-14.45,5.85-18.11,3.66c-3.66-2.19-10.3-4.57-11.46-8.41
	s-2.82-9.01-2.82-9.01"/>
<path class="st49" d="M264.7,112.67c0,0,9.41,1.4,14.9,6.7c4.01,3.87,19.6,32.01,20.85,36.21c0.45,1.51,6.02,9.48,0.55,13.86
	c-10.81,8.67-22.13,20.55-22.13,20.55s-6.17-15.83-5.56-17.71c2.2-6.83,8.49-13.53,8.49-13.53s-10.56-9.32-12.12-12.43
	c-1.56-3.11-4.48-11.89-4.48-11.89L264.7,112.67z"/>
<path class="st30" d="M273.16,172.75l-4.24,3.9l0.23,15.22c0,0-0.96,9.18-0.6,9.77c0.37,0.59,5.17-3.9,5.17-7.8
	c0-3.9,4.36-4.97,4.36-4.97L273.16,172.75z"/>
<path class="st30" d="M268.68,177.09c0,0-4.57,6.73-6.5,7.02c-1.94,0.29-1.54,2.93-0.42,3.66c1.11,0.73,4.71-0.59,5.41-1.02
	c0.69-0.44,1.67,1.03,1.94,2.49c0.27,1.46,2.77,2.92,2.9,2.19c0.14-0.73,1.26-12.44,1.26-12.44L268.68,177.09z"/>
<path class="st30" d="M270.22,170.53c0,0-27.56-1.26-30.67-1.08c-3.11,0.18-29.63,1.31-29.63,1.31l2.56-43.34
	c0,0,17.56,6.95,30.18,6.22c12.62-0.73,20.12-6.4,23.41-11.16s4.39-8.05,4.39-8.05l9.58,5.4c0,0-8.48,14.17-10.68,16.18
	c-2.19,2.01,0.91,9.51,0.91,9.51l0.37,1.83c0,0-0.55,18.29-0.18,19.57S270.22,170.53,270.22,170.53z"/>
<path class="st30" d="M270.62,148l5.52,5.68c0,0,10.96-11.08,12.97-12.18c2-1.1,3.17-1.98,3.17-1.98l-11.36-19.68
	c0,0-6.3-4.91-10.46-5.41l-6.37,18.74l4.81,14.23l1.5,0.6"/>
<g>
	<path class="st35" d="M216.81,147.26h1.93c0.32,0,0.58-0.32,0.58-0.72c0-0.4-0.26-0.72-0.58-0.72h-1.93
		c-0.32,0-0.58,0.32-0.58,0.72C216.23,146.94,216.49,147.26,216.81,147.26z"/>
	<path class="st35" d="M221.58,147.26h1.93c0.32,0,0.58-0.32,0.58-0.72c0-0.4-0.26-0.72-0.58-0.72h-1.93
		c-0.32,0-0.58,0.32-0.58,0.72C221,146.94,221.26,147.26,221.58,147.26z"/>
	<path class="st35" d="M226.05,147.57h1.93c0.32,0,0.58-0.32,0.58-0.72c0-0.4-0.26-0.72-0.58-0.72h-1.93
		c-0.32,0-0.58,0.32-0.58,0.72C225.47,147.24,225.73,147.57,226.05,147.57z"/>
	<path class="st35" d="M230.78,147.57h1.93c0.32,0,0.58-0.32,0.58-0.72c0-0.4-0.26-0.72-0.58-0.72h-1.93
		c-0.32,0-0.58,0.32-0.58,0.72C230.2,147.24,230.46,147.57,230.78,147.57z"/>
	<path class="st35" d="M235.65,147.26h1.93c0.32,0,0.58-0.32,0.58-0.72c0-0.4-0.26-0.72-0.58-0.72h-1.93
		c-0.32,0-0.58,0.32-0.58,0.72C235.07,146.94,235.33,147.26,235.65,147.26z"/>
	<path class="st35" d="M240.42,147.26h1.93c0.32,0,0.58-0.32,0.58-0.72c0-0.4-0.26-0.72-0.58-0.72h-1.93
		c-0.32,0-0.58,0.32-0.58,0.72C239.84,146.94,240.1,147.26,240.42,147.26z"/>
	<path class="st35" d="M244.89,147.57h1.93c0.32,0,0.58-0.32,0.58-0.72c0-0.4-0.26-0.72-0.58-0.72h-1.93
		c-0.32,0-0.58,0.32-0.58,0.72C244.31,147.24,244.57,147.57,244.89,147.57z"/>
	<path class="st35" d="M249.62,147.57h1.93c0.32,0,0.58-0.32,0.58-0.72c0-0.4-0.26-0.72-0.58-0.72h-1.93
		c-0.32,0-0.58,0.32-0.58,0.72C249.04,147.24,249.3,147.57,249.62,147.57z"/>
	<path class="st35" d="M254.81,147.26h1.93c0.32,0,0.58-0.32,0.58-0.72c0-0.4-0.26-0.72-0.58-0.72h-1.93
		c-0.32,0-0.58,0.32-0.58,0.72C254.23,146.94,254.49,147.26,254.81,147.26z"/>
	<path class="st35" d="M259.58,147.26h1.93c0.32,0,0.58-0.32,0.58-0.72c0-0.4-0.26-0.72-0.58-0.72h-1.93
		c-0.32,0-0.58,0.32-0.58,0.72C259,146.94,259.26,147.26,259.58,147.26z"/>
	<path class="st35" d="M264.05,147.57h1.93c0.32,0,0.58-0.32,0.58-0.72c0-0.4-0.26-0.72-0.58-0.72h-1.93
		c-0.32,0-0.58,0.32-0.58,0.72C263.47,147.24,263.73,147.57,264.05,147.57z"/>
	<path class="st35" d="M217.09,149.7c0-0.4-0.26-0.72-0.58-0.72h-1.93c-0.32,0-0.58,0.32-0.58,0.72c0,0.4,0.26,0.72,0.58,0.72h1.93
		C216.83,150.42,217.09,150.1,217.09,149.7z"/>
	<path class="st35" d="M218.76,149.7c0,0.4,0.26,0.72,0.58,0.72h1.93c0.32,0,0.58-0.32,0.58-0.72c0-0.4-0.26-0.72-0.58-0.72h-1.93
		C219.02,148.98,218.76,149.3,218.76,149.7z"/>
	<path class="st35" d="M223.81,149.28c-0.32,0-0.58,0.32-0.58,0.72c0,0.4,0.26,0.72,0.58,0.72h1.93c0.32,0,0.58-0.32,0.58-0.72
		c0-0.4-0.26-0.72-0.58-0.72H223.81z"/>
	<path class="st35" d="M228.54,149.28c-0.32,0-0.58,0.32-0.58,0.72c0,0.4,0.26,0.72,0.58,0.72h1.93c0.32,0,0.58-0.32,0.58-0.72
		c0-0.4-0.26-0.72-0.58-0.72H228.54z"/>
	<path class="st35" d="M235.93,149.7c0-0.4-0.26-0.72-0.58-0.72h-1.93c-0.32,0-0.58,0.32-0.58,0.72c0,0.4,0.26,0.72,0.58,0.72h1.93
		C235.67,150.42,235.93,150.1,235.93,149.7z"/>
	<path class="st35" d="M237.61,149.7c0,0.4,0.26,0.72,0.58,0.72h1.93c0.32,0,0.58-0.32,0.58-0.72c0-0.4-0.26-0.72-0.58-0.72h-1.93
		C237.87,148.98,237.61,149.3,237.61,149.7z"/>
	<path class="st35" d="M242.66,149.28c-0.32,0-0.58,0.32-0.58,0.72c0,0.4,0.26,0.72,0.58,0.72h1.93c0.32,0,0.58-0.32,0.58-0.72
		c0-0.4-0.26-0.72-0.58-0.72H242.66z"/>
	<path class="st35" d="M247.39,149.28c-0.32,0-0.58,0.32-0.58,0.72c0,0.4,0.26,0.72,0.58,0.72h1.93c0.32,0,0.58-0.32,0.58-0.72
		c0-0.4-0.26-0.72-0.58-0.72H247.39z"/>
	<path class="st35" d="M255.09,149.7c0-0.4-0.26-0.72-0.58-0.72h-1.93c-0.32,0-0.58,0.32-0.58,0.72c0,0.4,0.26,0.72,0.58,0.72h1.93
		C254.83,150.42,255.09,150.1,255.09,149.7z"/>
	<path class="st35" d="M256.76,149.7c0,0.4,0.26,0.72,0.58,0.72h1.93c0.32,0,0.58-0.32,0.58-0.72c0-0.4-0.26-0.72-0.58-0.72h-1.93
		C257.02,148.98,256.76,149.3,256.76,149.7z"/>
	<path class="st35" d="M261.81,149.28c-0.32,0-0.58,0.32-0.58,0.72c0,0.4,0.26,0.72,0.58,0.72h1.93c0.32,0,0.58-0.32,0.58-0.72
		c0-0.4-0.26-0.72-0.58-0.72H261.81z"/>
	<path class="st35" d="M219.27,152.13h-1.93c-0.32,0-0.58,0.32-0.58,0.72c0,0.4,0.26,0.72,0.58,0.72h1.93
		c0.32,0,0.58-0.32,0.58-0.72C219.85,152.45,219.59,152.13,219.27,152.13z"/>
	<path class="st35" d="M224.05,152.13h-1.93c-0.32,0-0.58,0.32-0.58,0.72c0,0.4,0.26,0.72,0.58,0.72h1.93
		c0.32,0,0.58-0.32,0.58-0.72C224.63,152.45,224.37,152.13,224.05,152.13z"/>
	<path class="st35" d="M228.52,152.43h-1.93c-0.32,0-0.58,0.32-0.58,0.72c0,0.4,0.26,0.72,0.58,0.72h1.93
		c0.32,0,0.58-0.32,0.58-0.72C229.1,152.76,228.84,152.43,228.52,152.43z"/>
	<path class="st35" d="M233.24,152.43h-1.93c-0.32,0-0.58,0.32-0.58,0.72c0,0.4,0.26,0.72,0.58,0.72h1.93
		c0.32,0,0.58-0.32,0.58-0.72C233.82,152.76,233.57,152.43,233.24,152.43z"/>
	<path class="st35" d="M238.12,152.13h-1.93c-0.32,0-0.58,0.32-0.58,0.72c0,0.4,0.26,0.72,0.58,0.72h1.93
		c0.32,0,0.58-0.32,0.58-0.72C238.7,152.45,238.44,152.13,238.12,152.13z"/>
	<path class="st35" d="M242.89,152.13h-1.93c-0.32,0-0.58,0.32-0.58,0.72c0,0.4,0.26,0.72,0.58,0.72h1.93
		c0.32,0,0.58-0.32,0.58-0.72C243.47,152.45,243.21,152.13,242.89,152.13z"/>
	<path class="st35" d="M247.36,152.43h-1.93c-0.32,0-0.58,0.32-0.58,0.72c0,0.4,0.26,0.72,0.58,0.72h1.93
		c0.32,0,0.58-0.32,0.58-0.72C247.94,152.76,247.68,152.43,247.36,152.43z"/>
	<path class="st35" d="M252.09,152.43h-1.93c-0.32,0-0.58,0.32-0.58,0.72c0,0.4,0.26,0.72,0.58,0.72h1.93
		c0.32,0,0.58-0.32,0.58-0.72C252.67,152.76,252.41,152.43,252.09,152.43z"/>
	<path class="st35" d="M257.27,152.13h-1.93c-0.32,0-0.58,0.32-0.58,0.72c0,0.4,0.26,0.72,0.58,0.72h1.93
		c0.32,0,0.58-0.32,0.58-0.72C257.85,152.45,257.6,152.13,257.27,152.13z"/>
	<path class="st35" d="M262.05,152.13h-1.93c-0.32,0-0.58,0.32-0.58,0.72c0,0.4,0.26,0.72,0.58,0.72h1.93
		c0.32,0,0.58-0.32,0.58-0.72C262.63,152.45,262.37,152.13,262.05,152.13z"/>
	<path class="st35" d="M266.52,152.43h-1.93c-0.32,0-0.58,0.32-0.58,0.72c0,0.4,0.26,0.72,0.58,0.72h1.93
		c0.32,0,0.58-0.32,0.58-0.72C267.1,152.76,266.84,152.43,266.52,152.43z"/>
	<path class="st35" d="M218.05,155.23h-1.94c-0.32,0-0.58,0.32-0.58,0.72c0,0.4,0.26,0.72,0.58,0.72h1.94
		c0.32,0,0.58-0.32,0.58-0.72C218.63,155.55,218.37,155.23,218.05,155.23z"/>
	<path class="st35" d="M222.82,155.23h-1.93c-0.32,0-0.58,0.32-0.58,0.72c0,0.4,0.26,0.72,0.58,0.72h1.93
		c0.32,0,0.58-0.32,0.58-0.72C223.4,155.55,223.14,155.23,222.82,155.23z"/>
	<path class="st35" d="M227.3,155.54h-1.94c-0.32,0-0.58,0.32-0.58,0.72c0,0.4,0.26,0.72,0.58,0.72h1.94c0.32,0,0.58-0.32,0.58-0.72
		C227.88,155.86,227.62,155.54,227.3,155.54z"/>
	<path class="st35" d="M232.02,155.54h-1.93c-0.32,0-0.58,0.32-0.58,0.72c0,0.4,0.26,0.72,0.58,0.72h1.93
		c0.32,0,0.58-0.32,0.58-0.72C232.6,155.86,232.34,155.54,232.02,155.54z"/>
	<path class="st35" d="M236.9,155.23h-1.93c-0.32,0-0.58,0.32-0.58,0.72c0,0.4,0.26,0.72,0.58,0.72h1.93c0.32,0,0.58-0.32,0.58-0.72
		C237.48,155.55,237.22,155.23,236.9,155.23z"/>
	<path class="st35" d="M241.67,155.23h-1.93c-0.32,0-0.58,0.32-0.58,0.72c0,0.4,0.26,0.72,0.58,0.72h1.93
		c0.32,0,0.58-0.32,0.58-0.72C242.25,155.55,241.99,155.23,241.67,155.23z"/>
	<path class="st35" d="M246.14,155.54h-1.94c-0.32,0-0.58,0.32-0.58,0.72c0,0.4,0.26,0.72,0.58,0.72h1.94
		c0.32,0,0.58-0.32,0.58-0.72C246.72,155.86,246.46,155.54,246.14,155.54z"/>
	<path class="st35" d="M250.87,155.54h-1.93c-0.32,0-0.58,0.32-0.58,0.72c0,0.4,0.26,0.72,0.58,0.72h1.93
		c0.32,0,0.58-0.32,0.58-0.72C251.45,155.86,251.19,155.54,250.87,155.54z"/>
	<path class="st35" d="M256.05,155.23h-1.93c-0.32,0-0.58,0.32-0.58,0.72c0,0.4,0.26,0.72,0.58,0.72h1.93
		c0.32,0,0.58-0.32,0.58-0.72C256.63,155.55,256.37,155.23,256.05,155.23z"/>
	<path class="st35" d="M260.83,155.23h-1.93c-0.32,0-0.58,0.32-0.58,0.72c0,0.4,0.26,0.72,0.58,0.72h1.93
		c0.32,0,0.58-0.32,0.58-0.72C261.41,155.55,261.15,155.23,260.83,155.23z"/>
	<path class="st35" d="M265.3,155.54h-1.93c-0.32,0-0.58,0.32-0.58,0.72c0,0.4,0.26,0.72,0.58,0.72h1.93c0.32,0,0.58-0.32,0.58-0.72
		C265.88,155.86,265.62,155.54,265.3,155.54z"/>
</g>
<g>
	<path class="st35" d="M216.81,160.16h1.93c0.32,0,0.58-0.32,0.58-0.72c0-0.4-0.26-0.72-0.58-0.72h-1.93
		c-0.32,0-0.58,0.32-0.58,0.72C216.23,159.84,216.49,160.16,216.81,160.16z"/>
	<path class="st35" d="M221.58,160.16h1.93c0.32,0,0.58-0.32,0.58-0.72c0-0.4-0.26-0.72-0.58-0.72h-1.93
		c-0.32,0-0.58,0.32-0.58,0.72C221,159.84,221.26,160.16,221.58,160.16z"/>
	<path class="st35" d="M226.05,160.47h1.93c0.32,0,0.58-0.32,0.58-0.72c0-0.4-0.26-0.72-0.58-0.72h-1.93
		c-0.32,0-0.58,0.32-0.58,0.72C225.47,160.14,225.73,160.47,226.05,160.47z"/>
	<path class="st35" d="M230.78,160.47h1.93c0.32,0,0.58-0.32,0.58-0.72c0-0.4-0.26-0.72-0.58-0.72h-1.93
		c-0.32,0-0.58,0.32-0.58,0.72C230.2,160.14,230.46,160.47,230.78,160.47z"/>
	<path class="st35" d="M235.65,160.16h1.93c0.32,0,0.58-0.32,0.58-0.72c0-0.4-0.26-0.72-0.58-0.72h-1.93
		c-0.32,0-0.58,0.32-0.58,0.72C235.07,159.84,235.33,160.16,235.65,160.16z"/>
	<path class="st35" d="M240.42,160.16h1.93c0.32,0,0.58-0.32,0.58-0.72c0-0.4-0.26-0.72-0.58-0.72h-1.93
		c-0.32,0-0.58,0.32-0.58,0.72C239.84,159.84,240.1,160.16,240.42,160.16z"/>
	<path class="st35" d="M244.89,160.47h1.93c0.32,0,0.58-0.32,0.58-0.72c0-0.4-0.26-0.72-0.58-0.72h-1.93
		c-0.32,0-0.58,0.32-0.58,0.72C244.31,160.14,244.57,160.47,244.89,160.47z"/>
	<path class="st35" d="M249.62,160.47h1.93c0.32,0,0.58-0.32,0.58-0.72c0-0.4-0.26-0.72-0.58-0.72h-1.93
		c-0.32,0-0.58,0.32-0.58,0.72C249.04,160.14,249.3,160.47,249.62,160.47z"/>
	<path class="st35" d="M254.81,160.16h1.93c0.32,0,0.58-0.32,0.58-0.72c0-0.4-0.26-0.72-0.58-0.72h-1.93
		c-0.32,0-0.58,0.32-0.58,0.72C254.23,159.84,254.49,160.16,254.81,160.16z"/>
	<path class="st35" d="M259.58,160.16h1.93c0.32,0,0.58-0.32,0.58-0.72c0-0.4-0.26-0.72-0.58-0.72h-1.93
		c-0.32,0-0.58,0.32-0.58,0.72C259,159.84,259.26,160.16,259.58,160.16z"/>
	<path class="st35" d="M264.05,160.47h1.93c0.32,0,0.58-0.32,0.58-0.72c0-0.4-0.26-0.72-0.58-0.72h-1.93
		c-0.32,0-0.58,0.32-0.58,0.72C263.47,160.14,263.73,160.47,264.05,160.47z"/>
</g>
<path class="st30" d="M102.74,142.17c0,0-8.25,2.17-10.23,5.61c-1.98,3.45,3.8,27.27,4.96,30.79c1.15,3.51,20.8,6.66,32.18,1.76
	c0,0,5.78-22.66,6.27-26.27c0.5-3.61-2.95-8.71-8.9-10.37c0,0-4.47,9.41-10.66,8.55C110.18,151.38,102.74,142.17,102.74,142.17z"/>
<path class="st30" d="M96.2,158.39c0,0,1.18,8.82-0.03,9.67c-1.21,0.84-8.31,0.21-8.96,2.64c0,0-1.65-1.05-1.69-4.74
	c-0.04-3.68-0.01-13.25,4.11-16.99c4.13-3.74,8.23-6.13,8.23-6.13"/>
<path class="st30" d="M129.14,159.54c0,0,1.37,8.8,3.03,9.23c1.66,0.43,9.66-2.37,11.16-0.24c0,0,1.58-1.52,0.48-5.05
	c-1.1-3.53-3.87-14.85-9.79-17.15c-5.92-2.29-10.56-1.25-10.56-1.25"/>
<path class="st30" d="M104.81,178.53c-0.86,0.83-8.45,2.34-8.45,2.34s-2.16-13.34-2.36-13.81"/>
<path class="st32" d="M97.54,142.92c0,0,2.83,6.69,8.41,9.71c5.58,3.02,14.24,3.39,19.48,0c5.44-3.52,7.12-6.85,7.12-6.85
	l-2.93-1.04l-7.5,4.18l-6.29,1.06l-6.86-2.01l-5.39-4.39l-2.47-1.83L97.54,142.92z"/>
<path class="st30" d="M103.07,182.16l-7.32,4.8l-0.67-19.49c0,0-6.65,1.29-8.42,2.6l1.64,18.3c0,0,0.58,3.24,0.34,4.31
	c-0.24,1.07,4.31,3.68,5.21,3.79c0.9,0.11,16.66-7.5,18.45-7.92c1.79-0.42,10.28-1.16,11.82-1.29c1.54-0.13,1.68-2.25,2.01-2.64"/>
<path class="st33" d="M102.54,141.65c0,0,6.69,7.23,12.99,7.23c6.3,0,11.82-5.67,11.82-5.67l2.29,1.4c0,0-5.36,7.32-14.66,6.76
	c-9.29-0.56-15.01-9.53-15.01-9.53L102.54,141.65z"/>
<rect x="102.43" y="166.89" class="st13" width="25.07" height="17.64"/>
<path class="st30" d="M142.07,167.3c0,0,2.37,23.35,2.13,24.47c-0.25,1.12-3.63,2.65-5.55,0.64c-0.81-0.85-16.38-21.18-17-21.7
	c-0.62-0.51-7.43-3.73-8.66-3.73c-1.24,0-0.74-2.35-0.62-2.97c0.12-0.62,6.07-0.25,8.54,0c2.48,0.25,6.68,1.61,7.43,2.35
	c0.74,0.74,6.44,8.17,6.93,7.92c0.5-0.25-0.99-6.56-0.99-6.56"/>
<circle class="st30" cx="115.52" cy="176.07" r="6.19"/>
<path class="st30" d="M103.83,184.77c0,0,0.07-0.01,0.18-0.04c0.8-0.19,3.93-1.03,3.99-2.43c0.07-1.61-1.46-2.29-1.06-3.16
	c0.4-0.87,1.58-1.21,1.58-1.21s4.38,3.23,5.84,3.64c1.46,0.41,4.11,3.08,5.3,3.26c1.19,0.18,1.19,1.05,0.4,0.99
	c-0.79-0.06-9.27-0.06-10.13,0.19"/>
<path class="st30" d="M116.95,183.57c0,0,5.16-0.36,6.26-0.65c1.1-0.29,3.7,0.51,3.19,1.4c-0.51,0.9-2.25,2.61-2.64,2.53
	c-0.39-0.08-6.02-0.39-6.65-0.39"/>
<rect x="104.34" y="168.18" class="st30" width="4.52" height="1.82"/>
<path class="st38" d="M104.49,167.29c0,0-9.21-12.7-9.51-23.41"/>
<path class="st38" d="M127.23,164.96c0,0,5.87-12.34,6.09-19.85"/>
<path class="st13" d="M230.71,146.82l10.8,32.68c0,0,2.38,0.14,2.65-0.87c0.27-1.01,6.61-31.69,6.61-31.69s-2.16-0.5-3-0.08
	c-0.83,0.41-10.13-0.23-13.94-0.58C230.01,145.93,230.71,146.82,230.71,146.82z"/>
<path class="st13" d="M192.32,279.16c-1.1,0.18-9.23-8.41-18.57-6.65c-7.18,1.36-7.79,13.56-4.16,13.9
	c1.78,0.16,0.29,0.28,1.38,0.31c1.1,0.03,22.74,1.34,23.86,0.47c1.12-0.87,3.58-0.59,3.6-1.21c0.02-0.62,1.55-6.19-0.64-6.46
	c-2.19-0.27-4.11-0.32-4.11-0.32l-0.69,0.12"/>
<polyline class="st33" points="234.98,153.03 235.05,153.27 242,175.8 242.52,175.52 238.75,152.68 "/>
<path class="st30" d="M231.05,155.05l18.44-1.45c0,0,1.31,2.28,1.72,2.83c0.41,0.54-2.61,14.05-3.02,14.98s-7-0.41-8.09-0.7
	c-1.1-0.29-5.35-0.98-5.76-0.98"/>
<path class="st49" d="M218.97,111.37c0,0-11.22,3.07-14.13,5.63c-2.91,2.56-15.63,24.75-13.96,44.5c0.47,5.53,2.71,6.89,7.7,8.72
	c4.99,1.83,31.42,1.1,37.86,0.73c0,0-3.66-13.9-3.66-17.01c0,0-18.79-3.66-20.46-4.57C210.66,148.45,218.97,111.37,218.97,111.37z"
	/>
<path class="st30" d="M212.48,146.26c0,0-5.12-3.47-10.97-3.84c-5.85-0.37-8.73,0.74-8.73,0.74s5.7-17.81,6.72-18.67
	s4.72-8.96,9.6-11.34c4.88-2.38,4.49-1.79,4.49-1.79s4.75,20.62,26.69,22.09c21.95,1.46-4.21,10.24-4.21,10.24l-8,0.55l-7.36-5.3"/>
<circle class="st49" cx="235.5" cy="144.15" r="5.97"/>
<path class="st50" d="M206.49,114.59c0,0,5.76,12.62,8.92,15.5c3.15,2.88,13.44,8.64,24.96,8.64s22.91-2.74,27.84-9.46
	c4.94-6.72,8.5-12.48,8.5-12.48"/>
<circle class="st32" cx="115.52" cy="176.07" r="4.73"/>
<circle class="st30" cx="114.33" cy="173.97" r="3.11"/>
<path class="st13" d="M85.45,167.47c0,0,0.45,3.89,1.34,3.39c0.88-0.5,6.92-0.93,8.29-0.17c0,0,1.01-0.06,1.01-1.62
	c0-1.55,0-2.02,0-2.02S90.82,164.86,85.45,167.47z"/>
<path class="st13" d="M132.43,169.24c0,0,6.73-1.72,9.69-1.39l0.16,1.61c0,0,1.19-0.58,1.52-1.66c0.32-1.09,0.46-2.76,0.14-3.83
	c-0.32-1.07-3.7-1.09-5.62-0.81s-6.22,2.01-6.22,2.01S131.69,168.55,132.43,169.24z"/>
<path class="st33" d="M166.05,292.27c0,0-0.65-0.34-0.81,0.9c-0.16,1.24,0.49,2.14,2.2,1.46c1.71-0.68,10.42-7.77,15.3-7.77
	c4.88,0,6.93,0.04,6.83-0.44c-0.1-0.48-0.1-0.48-0.1-0.48l-6.57-0.32c0,0-10.91,2.81-14.41,6.31
	C168.49,291.93,166.94,292.49,166.05,292.27z"/>
<ellipse transform="matrix(0.0284 -0.9996 0.9996 0.0284 -87.0016 446.7692)" class="st33" cx="186.31" cy="268.14" rx="14.13" ry="14.13"/>
<ellipse transform="matrix(0.0284 -0.9996 0.9996 0.0284 -87.0083 446.7589)" class="st13" cx="186.31" cy="268.14" rx="12.56" ry="12.56"/>
<path class="st33" d="M192.07,279.21c0,0-13.68-2.14-15.94-12.59c0,0,1.94,10.41,10.96,13.32
	C196.12,282.84,192.68,279.33,192.07,279.21z"/>
<path class="st33" d="M174.52,263.81c0,0,1.8-2.6,3.31-3.01c1.51-0.41-1.22-1.65,1.11-3.15s5.56-2.88,6.62-2.88s3.11,0.96,3.52,2.19
	c0.41,1.23,1.94-0.18,3.44,0.25c1.5,0.43,6.3,5.51,5.75,7.98c-0.55,2.47-1.28,2.19,0.04,3.15c1.33,0.96,0.37,3.92,0.37,3.92
	l0.96-6.12l-2.88-6.17l-3.7-3.57l-6.17-1.92h-3.15l-5.62,2.61l-3.58,3.98l-0.47,2.88l0.49,0.14"/>
<path class="st32" d="M97.68,142.88l-1.41,1.43l2.29,0.78l-0.78,2.01l2.56,0.32l-0.69,2.79l2.78-0.23l-0.31,2.74l2.9-0.65l0.6,2.84
	l2.63-1.25l0.68,2.9l2.74-2.06l1.23,2.61l1.64-2.13l1.65,2.31l1.6-2.32l2.83,1.77l0.86-2.4l2.84,1.21l0.37-2.61l2.97,0.73l0.18-2.64
	l2.65,0.49v-2.65l2.51,0.05l-0.91-2.15l2.18-0.34l-1.95-0.81c0,0-7.91,5.3-8.05,5.3s-6.54,1.92-6.54,1.92l-5.99-1.55l-6.14-1.74
	l-3.41-3.57l-3.11-3.34"/>
<path class="st33" d="M228.49,213.76c0,0,5.62,7.15,6.14,7.6c0.52,0.45,1.68-2.35,1.68-2.35c-0.1-1.34-2.59-3.07-4.57-3.86
	c-1.98-0.78-4.39-3.32-4.39-3.32L228.49,213.76z"/>
<path class="st33" d="M238.87,206.73c0,0-1.26,13.84-1.15,14.64c0.12,0.8,1.72,1.49,1.72,1.49l1.38-4.09c0,0-1.28-11.34-1.28-11.74
	C239.55,206.63,238.87,206.73,238.87,206.73z"/>
<path class="st33" d="M252.31,215.43c0,0-7.58,9.16-7.81,9.85c-0.23,0.69,0.92,12.86,1.03,13.32c0.11,0.46,1.88-1.53,2.11-2.67
	c0.23-1.15,1.05-14.04,2.19-15.72c1.15-1.68,2.47-5.14,2.47-5.14"/>
<path class="st33" d="M212.24,219.49c-0.89,1.38-2.25,3.44-2.37,3.74c-0.12,0.3,1.54-5.28,2.19-6.23
	c0.65-0.95,5.57-11.39,5.69-12.28c0.12-0.89,0.77-0.47,0.77-0.47S219.89,207.57,212.24,219.49z"/>
<path class="st33" d="M268.23,205.49c0,1.96,0.42,4.33,0.59,4.39c0.18,0.06,0.83-2.37,0.83-3.03s-0.83-2.13-0.95-2.43
	c-0.12-0.3-0.71,1.07-0.71,1.07"/>
<path class="st33" d="M210.04,270.89c0.36,0.06,4.98,1.07,5.34,0.71c0.36-0.36-2.97-4.92-3.14-6.29c-0.18-1.36,0.3,3.2,0.36,3.74
	c0.06,0.53-1.48,1.96-1.9,0.71C210.28,268.51,210.04,270.89,210.04,270.89z"/>
<path class="st33" d="M245.34,309.22c-0.12,0.77-0.65,1.72-0.82,2.02c-0.18,0.3,2.06,0.53,3.52,0.41c1.47-0.12-1.41-0.74-1.88-1.2
	C245.69,309.99,245.34,309.22,245.34,309.22z"/>
<path class="st33" d="M122.55,217.21c0.48,0.07,6.17,0.48,7.48,0.89s3.02,21.71,3.02,22.19s-0.82-22.19-0.89-22.81
	c-0.07-0.62-0.55-0.75-0.55-0.75L122.55,217.21z"/>
<path class="st33" d="M99.37,263.13c0.14,0.52,4.39,1.51,4.94,1.51c0.55,0-3.15-1.65-3.84-2.81
	C99.78,260.66,99.03,261.9,99.37,263.13z"/>
<path class="st33" d="M134.14,261.14c-0.21,0.62-0.96,2.06-1.1,2.74s1.2-0.25,1.25-1.05c0.05-0.8,0-5.33,0-5.33"/>
<path class="st33" d="M100.28,220.36c-0.67,2.91-1.88,7.96-2.15,7.98c-0.27,0.02,0.43-8.8,0.15-9.26
	C98,218.62,100.73,218.39,100.28,220.36z"/>
<circle class="st30" cx="234.98" cy="142.66" r="3.77"/>
<path class="st13" d="M277.27,186.86l1.51,3.44c0,0,2.33-1.6,2.74-2.65c0.41-1.05-5.76-19.29-5.76-19.29s-1.19-0.08-1.23,0.46
	c-0.04,0.54-1.65,3.1-1.65,3.52S277.27,186.86,277.27,186.86z"/>
<path class="st13" d="M228.43,153.04c0,0,0.01-0.46,0.86-0.34c0.85,0.12,4.01,1.12,4.01,1.12s0.64,5.6,1.06,6.53
	c0.42,0.93,2.89,11.03,2.89,11.03s-3.51,0.64-4.3,0.18C232.15,171.1,230.22,164.26,228.43,153.04z"/>
<path class="st33" d="M223.76,109.14c0,0-4.81,0.41-5.29,0.46c-0.48,0.05-0.05,1.38-0.05,1.38s3.93,11.51,12.65,16.65
	c6.36,3.75,17.51,5.09,27.28-2.83c7.98-6.47,8.47-11.28,8.79-11.93c0.29-0.59,0.58-0.95,0.1-0.89c-0.48,0.05-4.94-0.79-4.94-0.79
	s-3.01,7.48-10.13,11.29c-5.96,3.19-16.16,3.62-21.87-1.92C224.4,114.83,223.76,109.14,223.76,109.14z"/>
<path class="st13" d="M224.26,108.69c0,0-4.67,0.44-5.15,0.49c-0.47,0.05-0.05,1.34-0.05,1.34s3.82,11.16,12.29,16.16
	c6.17,3.64,17.01,4.95,26.5-2.75c7.75-6.29,8.23-10.96,8.54-11.58c0.29-0.57,0.57-0.92,0.1-0.87c-0.47,0.05-4.79-0.76-4.79-0.76
	s-2.92,7.26-9.84,10.97c-5.79,3.1-15.7,3.52-21.25-1.87C224.88,114.25,224.26,108.69,224.26,108.69z"/>
<circle class="st49" cx="240.71" cy="135.23" r="5.97"/>
<circle class="st30" cx="240.7" cy="134.41" r="3.77"/>
<circle class="st49" cx="246.34" cy="144.15" r="5.97"/>
<circle class="st30" cx="245.7" cy="142.76" r="3.77"/>
<path class="st33" d="M199.47,289.42c0,0-0.06,2.47-0.97,3.66c-0.91,1.19,1.35,3.66,1.35,3.66L199.47,289.42z"/>
<path class="st33" d="M200.68,320.42c0,0-1.37,3.38-2.01,3.66c-0.64,0.27,0.89-0.02,1.55,0.86c0.67,0.88,0.27,7.37-0.18,7.64
	s1.02,1.44,0.93,2.09C200.88,335.33,201.5,328.47,200.68,320.42z"/>
<path class="st33" d="M191.36,341.54c0,0,2.29-0.64,2.74-1c0.46-0.37,1.92,1.04,3.02,1"/>
<circle class="st3" cx="170.61" cy="317.82" r="3.99"/>
<rect x="168.49" y="296.77" transform="matrix(0.8559 -0.5172 0.5172 0.8559 -129.8473 132.531)" class="st33" width="8.74" height="4.92"/>
<rect x="178.28" y="304.13" transform="matrix(0.5351 -0.8448 0.8448 0.5351 -176.5965 296.0938)" class="st3" width="4.92" height="8.74"/>
<path class="st30" d="M266.55,320.37c0,0-4.55,0.52-6.22,0.76c-1.67,0.24-6.91,2.42-8.85,2.22c-1.95-0.2-6.17-0.55-6.3-1.46
	c-0.13-0.91-1.24-2.18-1.24-2.86c0-0.68,0.46-0.97,1.48-0.68c1.02,0.29,6.02,0.49,6.58,0.49c0.56,0,8.52-0.39,9.08-0.49
	c0.56-0.1,4.17-0.75,4.45-0.67C265.8,317.77,267.49,318.88,266.55,320.37z"/>
<path class="st34" d="M231.13,104.88c0,0,1.71,7.36,3.73,9.66c2.01,2.31,10.17,6.63,15.51,1.15c5.34-5.48,5.03-9.52,4.93-10.24
	C255.2,104.74,231.13,104.88,231.13,104.88z"/>
<g>
	<path class="st30" d="M231.06,84.39c0,0-0.86-0.55-1.54-0.56c-0.68,0-1.96,1.22-1.56,3.17c0.39,1.95,2.43,2.27,2.43,2.27
		l-0.17,0.87c0,0-2.54-0.31-3.11-2.76c-0.57-2.45,0.76-4.62,1.7-4.85c1.39-0.34,2.33,0.53,2.33,0.53L231.06,84.39z"/>
	<path class="st30" d="M239.54,70.83l-5.52,4.11l-3.67,4.08l-0.19,4.29l-1.3,0.06l-1.42,2.03l0.38,2.77l1.51,1.08
		c0,0,1.25,9.91,1.25,10.12c-0.01,0.21,7.7,5.86,7.7,5.86l11.77-3.44c0,0,1.63,1.36,1.83,1.37c0.2,0.01,4.14-2.98,4.14-2.98
		l1.8-4.77l-0.06-4.66l0.92-0.45l1.08-1.97l0.11-1.75l-1.01-1.4l-0.82-0.05c0,0-3.93-6.16-4.04-6.66c-0.11-0.5-2.27-5.43-2.27-5.43
		l-11.19-3.85L239.54,70.83z"/>
	<path class="st30" d="M256.09,85.91c0,0,1-0.44,1.75-0.35c0.74,0.08,1.97,1.46,1.3,3.34c-0.68,1.88-2.93,1.94-2.93,1.94l0.07,0.88
		c0,0,2.8,0.02,3.73-2.35c0.93-2.36-0.24-4.68-1.23-5.02c-1.47-0.51-2.6,0.22-2.6,0.22L256.09,85.91z"/>
	<g>
		<path class="st27" d="M256.62,85.69c0,0,0.07,0.02,0.18,0.03c-0.14-0.82-0.99-2.36-1.74-2.69c-0.84-0.38-1.81-2.11-2.18-2.83
			c-0.36-0.72-0.66,0.47-0.66,0.47c-0.77,0-0.88-0.38-1.46-0.5c-0.58-0.13,0.22,0.85,0.22,0.85c-9.4-1.5-11.16-8.07-11.16-8.07
			c-3.17,3.27-7.06,5.72-8.07,6.08c-1.02,0.36-0.04,0.17-0.04,0.17s-0.26,0.54-0.27,1.43c-0.01,0.73-0.52,2.79-0.7,3.51
			c0.07,0,0.13-0.01,0.13-0.01c0.18,0.57-0.86,6.4-0.95,7.83c-0.09,1.42,0.14,3.86,0.56,4.82c0,0-0.34,3.09,2.05,3.94
			c0,0,2.46,0.34,2.86-0.85c0.39-1.19-0.11-4,3.49-4.31c3.65-0.31,4.23-0.34,4.23-0.34l0,0c0,0,0.15,0.01,3.57-0.25
			c3.41-0.26,3.29,4.58,3.54,5.8c0.25,1.22,2.73,1.19,2.73,1.19c2.48-0.56,2.51-3.67,2.51-3.67c0.54-0.9,1.06-3.29,1.14-4.71
			C256.7,92.15,256.37,86.23,256.62,85.69z"/>
		<path class="st33" d="M258,97.99c-0.01-0.62-0.41-3.22-0.03-7.25c0,0,0.21-3.64,0.13-4.68l0,0c0,0-0.19-1.54,0.09-3.29
			c0.29-1.75-0.5-6.48-2.06-10.07c-1.64-3.78-3.92-5.66-8-6.66c-2.45-0.59-2.39-0.13-3.31-0.21c-0.94-0.09-4,0.46-4.92,0.68
			c-0.92,0.22-0.51,1-0.07,1.16c0.44,0.17-0.05,0.84-0.05,0.84s-1.36-1.39-3.04-0.47c-1.68,0.92-1.99,2.3-3.23,2.55
			c-1.23,0.25-1.85,2.21-2.32,2.47c-0.47,0.25,0.31,1.72,0.05,2.14c-0.25,0.41-0.22,1.63-0.54,2.4c-0.32,0.77-0.96,1.47-0.94,1.89
			c0.02,0.39-0.21,4.25-0.24,4.77c-0.2,0.94,0.17,4.61,0.17,4.61c-0.66,1.2,0.14,7.4-0.14,7.96c-0.89,1.78,0.82,1.58,1.6,7.41
			c0,0,0.25,4.43,3.27,6.65c3.83,2.82,5.57,2.11,7.62,2.24c2.06,0.12,5.02,0.87,9.2-1.39c4.18-2.26,4.64-5.85,4.64-5.85
			C256.49,100.32,258.02,98.8,258,97.99z M255.47,98.29c0,0-2.19,3.58-2.51,3.67c0,0-2.49,0.04-2.73-1.19
			c-0.25-1.23-0.17-5.22-2.53-5.01c-3.42,0.31-6.47-0.21-6.47-0.21l1.6,0.67c0,0,1.13-1.03-2.52-0.72
			c-3.61,0.31-3.26,3.03-3.65,4.22c-0.39,1.19-4.12,1-4.12,1c-1.28-1.28-2.05-3.94-2.05-3.94c-0.42-0.96-0.65-3.39-0.56-4.82
			c0.09-1.42,1-7.25,0.82-7.82c0,0,0.07,0,0,0c0.19-0.73,1.99-1.86,1.99-2.59c0.01-0.88,0.85-2.3,0.85-2.3s-0.98,0.19,0.04-0.17
			c1.02-0.36,3.03-2.86,6.2-6.13c0,0,1.76,6.57,11.16,8.07c0,0-0.8-0.98-0.22-0.85c0.58,0.13,0.69,0.51,1.46,0.5
			c0,0,0.3-1.19,0.66-0.47c0.36,0.72,1.34,2.46,2.18,2.83c0.75,0.34,1.6,1.87,1.74,2.69c-0.11-0.02-0.18-0.03-0.18-0.03
			c-0.25,0.54,0.08,6.46-0.01,7.89C256.53,95,256.01,97.39,255.47,98.29z"/>
	</g>
</g>
<path class="st33" d="M167.84,340.22c0,0-1.4-2.19-1.4-2.95c0-0.75-2.13-1.81-2.19-2.55c-0.07-0.74-0.69-3.69-0.62-4.44
	c0.07-0.75-0.48-1.58-0.69-2.4c-0.21-0.82-0.67-2.6-0.67-2.6S160.74,336.65,167.84,340.22z"/>
<path class="st51" d="M211.09,199.02c0,0,15.9,1.29,18.47,1.46c2.58,0.17-1.22,0.52-1.51,0.52c-0.29,0-11.2,0-12.24-0.17
	C214.78,200.66,212.21,200.91,211.09,199.02z"/>
<path class="st51" d="M267.67,200.79c-1.44,0.41-3.5,0.7-5.04,0.73c-1.54,0.03,3.4-1,3.81-1.21c0.41-0.21,1.4-1.51,1.56-3.15
	c0.16-1.65-0.19-6.52-0.5-7.54c-0.31-1.03-0.99-1.51-1.47-1.51s1.1-0.82,1.78,0c0.69,0.82,0.82,2.54,0.89,2.88
	c0.07,0.34,0.07,4.39,0,4.66c-0.07,0.27-0.24,4.66-0.24,4.66l-0.65,0.27"/>
<path class="st49" d="M244.83,332.54c0,0-0.07-5.56-0.21-6.38c-0.14-0.82-1.1-4.87-0.34-5.49s5.9-0.69,6.17,0.34
	c0.27,1.03,0.21,1.65,1.85,2.06c1.65,0.41,3.08-2.65,3.08-2.65s9.81-0.98,10.5-0.85c0.69,0.14,0.27,2.11,0.07,2.74
	c-0.21,0.62-1.03,1.31-1.03,2.34s-0.27,6.1,0.48,7.2c0.75,1.1,1.17,3.87,3.15,4.65c1.99,0.77,3.98,0.96,4.94,1.18
	c0.96,0.21,2.47,0.35,2.54,1.17s2.06,5.14,0.55,6.58c-1.51,1.44-6.79,1.1-7.2,1.1"/>
<path class="st33" d="M243.7,320.95c0,0,0,0.04,0,0.1c0,0.51,0.03,2.79,0.24,3.12c0.24,0.38,0.89,0.38,1.34,0.34
	c0.45-0.03,3.39-0.03,3.63,0.21c0.24,0.24,1.75,1.78,2.81,1.82c1.06,0.03,2.85-0.14,3.15-0.41c0.31-0.27,1.61-2.43,1.95-2.5
	c0.34-0.07,5.76-0.21,6.21-0.21c0.45,0,2.09,0.21,2.43,0c0.34-0.21,0.93-1.03,1.06-1.58c0.14-0.55,0.38-2.3,0.14-2.43
	c-0.24-0.14-1.1-0.03-1.41,0.03c-0.31,0.07-8.54,0.51-8.54,0.51s-1.44-0.07-1.68,0.34c-0.24,0.41-1.68,2.23-1.78,2.26
	c-0.1,0.03-1.78,0.48-2.02-0.17c-0.24-0.65-0.45-1.51-0.69-1.85c-0.24-0.34-3.05-0.69-3.7-0.69c-0.65,0-2.5,0.15-2.71,0.32"/>
<path class="st52" d="M257.62,324.62c0,0,0.23,7.3,0.15,7.44c-0.08,0.14,0.76,3.3,1.75,4.19c0.99,0.89,4.03,1.99,7.98,2.19
	c3.95,0.21,6.08-0.21,5.36-0.34c-0.72-0.14-4.98-0.86-5.55-1.1c-0.57-0.24-2.62-2.95-3-4.08c-0.38-1.13-0.76-8.26-0.76-8.64
	C263.55,323.9,257.73,323.9,257.62,324.62z"/>
<path class="st52" d="M258.44,324.55c0,0,0.23,7.3,0.15,7.44c-0.08,0.14,0.76,3.3,1.75,4.19c0.99,0.89,4.03,1.99,7.98,2.19
	c3.95,0.21,6.08-0.21,5.36-0.34c-0.72-0.14-4.98-0.86-5.55-1.1c-0.57-0.24-2.62-2.95-3-4.08c-0.38-1.13-0.76-8.26-0.76-8.64
	C264.37,323.83,258.56,323.83,258.44,324.55z"/>
<path class="st53" d="M257.96,324.65c0.58,0.21,5.66,0.89,5.86,1.1c0.21,0.21-5.52,1.85-5.62,2.02c-0.1,0.17,5.42,0.72,5.69,0.99
	c0.27,0.27-6.82,2.06-5.66,2.54c1.17,0.48,6.76,0.33,6.38,0.75c-0.38,0.42-5.21,2.54-5.76,2.61c-0.55,0.07,5.93,0.57,6.65,0.66
	c0.72,0.09-4.8,1.91-4.15,2.01c0.65,0.1,5.86-0.38,6.48-0.38s-2.81,1.13-1.78,1.27c1.03,0.14,3.78-0.48,4.26-0.5"/>
<path class="st52" d="M246.24,332.13c0.17,0.02,5.22,0.53,6.01,0.45c0.8-0.08,0.63,0.67,0.38,0.78c-0.25,0.11-5.9-0.06-6.58-0.38
	C245.36,332.67,245.21,332.04,246.24,332.13z"/>
<path class="st49" d="M215.99,330.05c-0.83,1.73-2.26,6.16-3.09,6.73c-0.83,0.58-0.45,5-0.45,6.54c0,1.54,7.32,3.27,9.9,3.27
	c2.58,0,4.97-0.38,5.97-0.58c1-0.19,3.3-0.96,3.63-2.69c0.33-1.73,0.59-8.41,0.5-10.97c-0.09-2.56-6.63-2.5-15.95-2.31"/>
<path class="st30" d="M213.01,320.37c0,0,4.55,0.52,6.22,0.76c1.67,0.24,6.91,2.42,8.85,2.22c1.95-0.2,3.97-0.55,4.11-1.46
	c0.13-0.91,1.24-2.18,1.24-2.86c0-0.68-0.46-0.97-1.48-0.68c-1.02,0.29-3.83,0.49-4.38,0.49c-0.56,0-8.52-0.39-9.08-0.49
	c-0.56-0.1-4.17-0.75-4.45-0.67C213.76,317.77,212.07,318.88,213.01,320.37z"/>
<path class="st49" d="M232.54,332.54c0,0,0.07-5.56,0.21-6.38c0.14-0.82,1.1-4.87,0.34-5.49c-0.75-0.62-3.7-0.69-3.98,0.34
	c-0.27,1.03-0.21,1.65-1.85,2.06c-1.65,0.41-3.08-2.65-3.08-2.65s-9.81-0.98-10.5-0.85c-0.69,0.14-0.27,2.11-0.07,2.74
	c0.21,0.62,1.03,1.31,1.03,2.34s0.27,6.1-0.48,7.2c-0.75,1.1,0.74,3.87-1.25,4.65c-1.99,0.77-1.6,0.96-2.56,1.18
	c-0.96,0.21-1.12,0.46-1.71,1.04c-1.82,1.78-1.33,5.33,0.18,6.77c1.51,1.44,11.21,1.05,11.62,1.05"/>
<path class="st33" d="M233.67,320.95c0,0,0,0.04,0,0.1c0,0.51-0.03,2.79-0.24,3.12c-0.24,0.38-0.89,0.38-1.34,0.34
	c-0.45-0.03-1.2-0.03-1.44,0.21c-0.24,0.24-1.75,1.78-2.81,1.82c-1.06,0.03-2.85-0.14-3.15-0.41c-0.31-0.27-1.61-2.43-1.95-2.5
	c-0.34-0.07-5.76-0.21-6.21-0.21c-0.45,0-2.09,0.21-2.43,0c-0.34-0.21-0.93-1.03-1.06-1.58s-0.38-2.3-0.14-2.43
	c0.24-0.14,1.1-0.03,1.41,0.03c0.31,0.07,8.54,0.51,8.54,0.51s1.44-0.07,1.68,0.34c0.24,0.41,1.68,2.23,1.78,2.26
	c0.1,0.03,1.78,0.48,2.02-0.17c0.24-0.65,0.45-1.51,0.69-1.85c0.24-0.34,0.86-0.69,1.51-0.69c0.65,0,2.5,0.15,2.71,0.32"/>
<path class="st52" d="M223.68,324.62c0,0-0.23,7.3-0.15,7.44c0.08,0.14-0.01,2.04,0.74,4.19c0.44,1.26,0.41,2.72-3.55,2.93
	c-3.95,0.21-8.28-0.05-8-1.07c0.19-0.71,2.27-2.21,1.96-1.67c0.8-1.41,2.81-5.01,2.31-3.51c0.38-1.13,0.76-8.26,0.76-8.64
	C217.74,323.9,223.56,323.9,223.68,324.62z"/>
<path class="st53" d="M223.33,324.65c-0.58,0.21-5.66,0.89-5.86,1.1c-0.21,0.21,5.52,1.85,5.62,2.02c0.1,0.17-5.42,0.72-5.69,0.99
	s6.82,2.06,5.66,2.54c-1.17,0.48-6.76,0.33-6.38,0.75c0.38,0.42,5.21,2.54,5.76,2.61c0.55,0.07-4.4,0.57-5.12,0.66
	c-0.72,0.09,7.55,1.91,6.9,2.01c-0.65,0.1-8.24-0.38-8.86-0.38c-0.62,0,5.19,1.13,4.16,1.27c-1.03,0.14-3.78-0.48-4.26-0.5"/>
<path class="st52" d="M231.72,332.31c-0.1,0.02-3.04,0.64-3.52,0.47c-0.47-0.17-0.34,1.06-0.19,1.24c0.15,0.19,3.46,0.16,3.85-0.33
	C232.26,333.21,232.32,332.21,231.72,332.31z"/>
<path class="st19" d="M265.61,317.11c0,0,0.34-1.23,0.75-1.71c0.41-0.48,0.14-1.37,0-2.26c-0.14-0.89-0.33,0.34-0.27-1.17
	c0.06-1.51,0.15-2.4,0.49-3.57c0.33-1.17,0.57,0.13,0.19-3.84c-0.37-3.97-0.41-4.39-0.41-5.42c0-1.03-1.01-3.63-1.05-3.84
	c-0.05-0.21-2.31,6.65-2.45,7.96"/>
<path class="st19" d="M244.69,316.49c-0.36-1.1-0.28-1.44-0.75-2.33c-0.48-0.89-0.41-1.44,0-1.99c0.41-0.55,0.34-0.89-0.48-1.58
	c-0.82-0.69-0.89-1.1,0-2.47c0.89-1.37,1.22-2.06,1.23-3.02s-0.62-0.96-0.75-2.33c-0.14-1.37-0.35-1.1,0.27-2.19
	c0.62-1.1,1.03-3.22,1.78-5.21c0.75-1.99,1.44-5.69,1.71-6.31"/>
<path class="st19" d="M245.26,277.4c0,0-1.19-2.19-0.91-2.67c0.27-0.48,0.32-0.69,0.91-1.58c0.6-0.89,0.18-0.89,0.12-2.88
	c-0.07-1.99-0.32-9.05-0.41-9.94c-0.1-0.89-1.04-1.44,0.21-3.91c1.25-2.47,0.75-1.71,1.1-4.11c0.34-2.4,0.96-6.79,1.58-6.72"/>
<path class="st19" d="M232.17,318c0.93,0.48,0.9,1.71,1.26,2.13c0.36,0.41,1.18-0.48,1.11-1.06c-0.07-0.58-1.17-1.34-0.48-1.95
	c0.69-0.62,0.82,0.14,1.37-0.82c0.55-0.96,1.15-1.51,0.21-2.19c-0.94-0.69-1.82-0.55-0.91-1.44c0.91-0.89,0.43-0.99-0.05-2.41
	c-0.48-1.43-0.21,1.04-0.75-4.24s-0.82-8.44-0.75-8.78"/>
<path class="st19" d="M214.18,317.38c-0.62-0.21-1.65-0.96-1.65-1.23s0.34-0.89,1.3-2.4c0.96-1.51,0.34-0.65-0.21-2.21
	s-0.73-6.43-0.19-8.28c0.54-1.85,0.81-2.67,0.4-3.63c-0.41-0.96-0.82-2.67-0.07-3.91c0.75-1.23,5.9-5.56,7.96,1.3
	c2.06,6.86,5.35,14.81,5.28,16.32"/>
<path class="st19" d="M211.91,279.52c-0.21,0-1.03-0.69-0.89-1.51s0.41-2.4,0.62-2.54c0.21-0.14,0.75-0.55,1.65,0"/>
<path class="st19" d="M235.09,238.31c0.21-0.62,1.3-2.13,1.3-3.15c0-1.03-0.41-2.61-0.89-3.57"/>
<path class="st19" d="M212.19,202.23c0,0-1.65,0.27-1.44,1.3c0.21,1.03,0.75,2.26,0.48,2.74c-0.27,0.48,0.07,1.03-0.69,2.47
	c-0.75,1.44-0.14,2.26,0,2.81c0.14,0.55,0.22,0.13,0.35,1.57c0.13,1.44,3.69-4.18,3.83-5.28"/>
<path class="st19" d="M209.1,223.36c0,0-1.1,1.37-0.89,2.19c0.21,0.82,1.23,3.5,1.44,3.84c0.21,0.34,1.3,1.78,2.33-1.17"/>
<path class="st19" d="M270.14,216.7c0,0,1.16,2.13,1.57,2.74c0.41,0.62-0.48,1.05-0.55,1.97c-0.07,0.91-0.14,1.81,0,2.08
	c0.14,0.27-1.23,2.26-2.26,1.78c-1.03-0.48-3.44-5.42-3.36-5.69"/>
<path class="st2" d="M125.17,275.82c0,0,0.69,1.57,0.37,2.33c-0.31,0.76-0.63,0.97-0.37,1.65c0.26,0.69-0.97,0.6,0.61,0.82
	c1.57,0.23,2.81,0.2,3.63,0.89c0.82,0.69,0.75,1.03,1.71,1.03s0.96-0.48,1.44-0.48s0.85,0.2,1.11,0.2c0.26,0,1,0.76,0.64-0.41
	s-0.73-1.58-0.73-1.58s-4.18-0.41-5.01-0.55c-0.82-0.14-1.1-1.37-1.1-1.37"/>
</svg>
