<?xml version="1.0" encoding="utf-8"?>
<!-- Generator: Adobe Illustrator 19.2.0, SVG Export Plug-In . SVG Version: 6.00 Build 0)  -->
<svg version="1.1" id="Layer_1" xmlns="http://www.w3.org/2000/svg" xmlns:xlink="http://www.w3.org/1999/xlink" x="0px" y="0px"
	 width="380px" height="380px" viewBox="0 0 380 380" style="enable-background:new 0 0 380 380;" xml:space="preserve">
<style type="text/css">
	.st0{fill:#23B2C9;}
	.st1{fill:none;stroke:#7B331A;stroke-width:3;stroke-miterlimit:10;}
	.st2{fill:#721F17;}
	.st3{fill:#FFFFFF;}
	.st4{fill:none;stroke:#EE2C24;stroke-width:0.75;stroke-miterlimit:10;stroke-dasharray:1.9916,1.9916;}
	.st5{fill:#ED2826;}
	.st6{fill:#FEFEFB;}
	.st7{fill:#C3E5E3;}
	.st8{fill:#D12227;}
	.st9{opacity:0.5;fill:#7B2417;enable-background:new    ;}
	.st10{fill:#F9F9FA;}
	.st11{fill:#E9E9E9;}
	.st12{fill:#DEDDDD;}
	.st13{fill:#752C16;}
	.st14{fill:#7ACED7;}
	.st15{fill:#348597;}
	.st16{fill:#20989E;}
	.st17{fill:#5EC093;}
	.st18{fill:none;stroke:#DE3B27;stroke-width:2;stroke-miterlimit:10;}
	.st19{fill:#7B2417;}
	.st20{fill:#ED2426;}
	.st21{fill:none;stroke:#ED1C24;stroke-miterlimit:10;}
	.st22{fill:none;stroke:#ED1C24;stroke-miterlimit:10;stroke-dasharray:1.9449,1.9449;}
	.st23{fill:none;stroke:#ED1C24;stroke-miterlimit:10;stroke-dasharray:1.1663,1.1663;}
	.st24{fill:#198E8E;}
	.st25{fill:none;stroke:#20989E;stroke-miterlimit:10;}
	.st26{fill:none;stroke:#7B2417;stroke-miterlimit:10;}
	.st27{fill:none;}
	.st28{fill:none;stroke:#7B2417;stroke-linejoin:round;stroke-miterlimit:10;}
	.st29{opacity:0.4;fill:#F7F7F7;enable-background:new    ;}
	.st30{fill:#FFFFFB;}
	.st31{fill:#E2E2E1;}
	.st32{fill:#20B1C8;}
	.st33{fill:#ED2726;}
	.st34{fill:#C2E5E3;}
	.st35{fill:#5DBF92;}
	.st36{fill:#DE3B27;}
	.st37{fill:#348496;}
	.st38{fill:none;stroke:#ED2726;stroke-miterlimit:10;}
	.st39{fill:none;stroke:#ED2726;stroke-miterlimit:10;stroke-dasharray:2.0278,2.0278;}
	.st40{fill:#DD2627;}
	.st41{fill:#7ABC89;}
	.st42{fill:#8AC987;}
	.st43{fill:none;stroke:#752C16;stroke-miterlimit:10;}
	.st44{opacity:0.5;fill:#348496;}
	.st45{fill:none;stroke:#7B2417;stroke-linecap:round;stroke-linejoin:round;stroke-miterlimit:10;}
	.st46{fill:none;stroke:#348496;stroke-linejoin:round;stroke-miterlimit:10;}
	.st47{fill:none;stroke:#20B1C8;stroke-miterlimit:10;}
	.st48{fill:#21A7AE;}
	.st49{fill:#22B1C8;}
	.st50{fill:none;stroke:#ED2726;stroke-width:2;stroke-miterlimit:10;}
	.st51{fill:#189DAA;}
	.st52{fill:#1F979D;}
	.st53{fill:none;stroke:#752C16;stroke-width:0.75;stroke-linecap:round;stroke-linejoin:round;stroke-miterlimit:10;}
</style>
<g>
	<path class="st0" d="M258.25,324.36c0,0-1.09-1.38-1.48-2.31c-0.38-0.94-3.9-6.39-3.82-6.78c0.07-0.39-0.16-1.08,2.18-0.89
		s12.17,0.66,12.17,0.66s2.11,2.5,2.5,2.65c0.39,0.16,2.97,0.94,2.97-0.23c0-1.17-1.58-3.84,0.94-4.83
		c2.52-0.98,4.52-2.04,4.52-2.04s2.18,0.94,2.18,1.87c0,0.94-0.86,3.58-0.47,4.6c0.39,1.01,0.78,6.39,0.78,6.39l-7.65,2.26
		l-10.45-0.16L258.25,324.36z"/>
	<g>
		<path class="st1" d="M85.34,266.22c0,2.17-1.76,3.94-3.94,3.94H61.09c-2.17,0-3.94-1.76-3.94-3.94v-16.17
			c0-2.17,1.76-3.94,3.94-3.94h20.32c2.17,0,3.94,1.76,3.94,3.94C85.34,250.05,85.34,266.22,85.34,266.22z"/>
		<path class="st2" d="M104.67,335.74c0,3.34-2.71,6.05-6.05,6.05H46.26c-3.34,0-6.05-2.71-6.05-6.05v-69.8
			c0-3.34,2.71-6.05,6.05-6.05h52.37c3.34,0,6.05,2.71,6.05,6.05L104.67,335.74L104.67,335.74z"/>
		<g>
			<path class="st3" d="M54.48,274.05c0,2.48,2.32,4.48,5.18,4.48h23.1c2.86,0,5.18-2.01,5.18-4.48v-8.77H54.48V274.05z"/>
		</g>
		<g>
			<path class="st4" d="M100.87,332.13c0,2.97-2.39,5.36-5.34,5.36H49.34c-2.95,0-5.33-2.4-5.33-5.36v-61.88
				c0-2.97,2.39-5.37,5.33-5.37h46.19c2.95,0,5.34,2.4,5.34,5.37V332.13z"/>
		</g>
		<g>
			<path class="st5" d="M39.14,336.72c0,3.4,2.75,6.16,6.16,6.16h7.58l-13.74-13.74V336.72z"/>
		</g>
		<g>
			<path class="st5" d="M105.74,336.72c0,3.4-2.75,6.16-6.16,6.16H92l13.74-13.74V336.72z"/>
		</g>
		<circle class="st3" cx="69.33" cy="316.31" r="5.69"/>
		
			<rect x="80.94" y="293.56" transform="matrix(0.2692 -0.9631 0.9631 0.2692 -227.0105 300.4263)" class="st5" width="7.02" height="12.47"/>
		
			<rect x="57.4" y="294.89" transform="matrix(0.9138 -0.4062 0.4062 0.9138 -115.7204 51.5753)" class="st3" width="12.47" height="7.02"/>
	</g>
	<path class="st6" d="M171.45,138.74c0,0,0.66,7.33-7.75,8.64c-2.26,0.36,5.1,15.28,18.51,14.97c13.41-0.31,24.1-12.9,24.1-12.9
		s-8.4-5.27-8.5-11.67C197.73,132.95,171.45,138.74,171.45,138.74z"/>
	<ellipse class="st7" cx="184.59" cy="141.37" rx="13.33" ry="11.86"/>
	<path class="st8" d="M145.26,274.33c0,0-3.76-2.11-3.76-8.66c0-6.55-3.74-76.5-4.79-84.69c-1.05-8.19-3.39-16.14,0.36-17.78
		s7.95-1.87,8.89-2.11c0.94-0.23,19.21,38.6,19.21,38.6l5.62,47.96l2.31,19.65l-19.76,6.08L145.26,274.33z"/>
	<path class="st9" d="M154.05,272.68c0,0-3.76-2.11-3.76-8.66c0-6.55-3.74-76.5-4.79-84.69s-3.39-16.14,0.36-17.78
		s7.95-1.87,8.89-2.11c0.94-0.23,19.21,38.6,19.21,38.6l5.62,47.96l2.31,19.65l-19.76,6.08L154.05,272.68z"/>
	<path class="st0" d="M162.9,147.1l1.18-0.28c0,0,6.32,13.68,19.54,13.68s20.7-10.87,21.29-14.39c0,0,11.12,3.63,16.49,9v62H147
		l-1.4-5.61"/>
	<path class="st6" d="M164.59,184.81c0,0,37.49,0.84,52.25-1.71l0.63,34.47l-50.69,0.78l-6.08-0.31
		C160.7,218.03,153.83,186.99,164.59,184.81z"/>
	<path class="st0" d="M162.9,147.1c0,0-11.3,3.75-12.97,4.52c-2.57,1.17-5.26,4.57-5.26,8.66c0,5.96-1.4,33.41-1.4,34.62
		s1.46,10.7,1.05,11.9c-0.4,1.22,2.32,7.08,3.73,7.08s12.93-2.53,14.85-10.41c0.89-3.64,1.71-11.17,2.34-18.64
		c0.73-8.68,1.2-17.27,1.2-19.56C166.44,161.05,165.52,149.73,162.9,147.1z"/>
	<rect x="81.46" y="216.76" class="st10" width="250.38" height="6.12"/>
	<g>
		<path class="st11" d="M105.35,222.88c0,0-1.4-0.33-1.4,0.45S72.44,342.33,72.44,342.33s-0.16,0.78,1.09,0.78c1.25,0,7.02,0,7.02,0
			s0.63-0.94,0.94-1.56c0.31-0.63,39.46-118.74,39.46-118.74L105.35,222.88z"/>
		<path class="st11" d="M307.95,222.88c0,0,1.4-0.33,1.4,0.45s31.5,119.01,31.5,119.01s0.16,0.78-1.09,0.78c-1.24,0-7.02,0-7.02,0
			s-0.63-0.94-0.94-1.56c-0.31-0.63-39.46-118.74-39.46-118.74L307.95,222.88z"/>
	</g>
	<rect x="229.16" y="215.37" class="st12" width="26.36" height="1.38"/>
	<path class="st5" d="M162.19,149.21l2.94-0.98l0.71,1.33c0,0,6.86,10.76,17.15,10.76s20.04-8.96,20.66-10.29
		c0.63-1.33,1.92,1.17,1.92,1.17s-6.6,12.87-22.51,12.87S162.19,149.21,162.19,149.21z"/>
	<path class="st13" d="M162.19,147.34l2.94-0.98l0.71,1.33c0,0,6.86,10.76,17.15,10.76s20.04-8.96,20.66-10.29
		c0.63-1.33,1.92,1.17,1.92,1.17s-6.6,12.87-22.51,12.87S162.19,147.34,162.19,147.34z"/>
	<path class="st14" d="M211.62,187.58c0,0.36-0.3,0.66-0.66,0.66h-1.74c-0.36,0-0.66-0.29-0.66-0.66l0,0c0-0.36,0.29-0.66,0.66-0.66
		h1.74C211.32,186.92,211.62,187.21,211.62,187.58L211.62,187.58z"/>
	<ellipse class="st15" cx="151.1" cy="157.47" rx="2.22" ry="1.99"/>
	<ellipse class="st15" cx="158.36" cy="154.19" rx="2.22" ry="1.99"/>
	<ellipse class="st15" cx="154.61" cy="164.06" rx="2.22" ry="1.99"/>
	<ellipse class="st15" cx="163.5" cy="166.63" rx="2.22" ry="1.99"/>
	<ellipse class="st15" cx="161.16" cy="160.2" rx="2.22" ry="1.99"/>
	<path class="st16" d="M222.69,166.01c0,0,7.49,25.02,7.95,29.95c0,0,18.17,1.81,24.87,2.42c6.71,0.62,10.45,3.43,10.45,3.43
		l-5.15,14.95h-42.11l-0.23-47.47"/>
	<path class="st10" d="M178.78,308.8c-1.64,0-2.97-1.17-2.97-2.61v-22.54c0-1.44,1.33-2.61,2.97-2.61l0,0
		c1.64,0,2.97,1.17,2.97,2.61v22.54C181.75,307.63,180.42,308.8,178.78,308.8L178.78,308.8z"/>
	<g>
		<path class="st17" d="M167.88,192.21h1.76c0.29,0,0.52-0.23,0.52-0.52c0-0.29-0.23-0.52-0.52-0.52h-1.76
			c-0.29,0-0.52,0.23-0.52,0.52C167.36,191.98,167.59,192.21,167.88,192.21z"/>
		<path class="st17" d="M172.22,192.21h1.76c0.29,0,0.52-0.23,0.52-0.52c0-0.29-0.23-0.52-0.52-0.52h-1.76
			c-0.29,0-0.52,0.23-0.52,0.52C171.69,191.98,171.92,192.21,172.22,192.21z"/>
		<path class="st17" d="M176.27,192.43h1.76c0.29,0,0.52-0.23,0.52-0.52c0-0.29-0.23-0.52-0.52-0.52h-1.76
			c-0.29,0-0.52,0.23-0.52,0.52C175.74,192.2,175.98,192.43,176.27,192.43z"/>
		<path class="st17" d="M180.55,192.43h1.76c0.29,0,0.52-0.23,0.52-0.52c0-0.29-0.23-0.52-0.52-0.52h-1.76
			c-0.29,0-0.52,0.23-0.52,0.52C180.03,192.2,180.26,192.43,180.55,192.43z"/>
		<path class="st17" d="M184.98,192.21h1.76c0.29,0,0.52-0.23,0.52-0.52c0-0.29-0.23-0.52-0.52-0.52h-1.76
			c-0.29,0-0.52,0.23-0.52,0.52C184.46,191.98,184.69,192.21,184.98,192.21z"/>
		<path class="st17" d="M189.31,192.21h1.76c0.29,0,0.52-0.23,0.52-0.52c0-0.29-0.23-0.52-0.52-0.52h-1.76
			c-0.29,0-0.52,0.23-0.52,0.52C188.79,191.98,189.01,192.21,189.31,192.21z"/>
		<path class="st17" d="M193.36,192.43h1.76c0.29,0,0.52-0.23,0.52-0.52c0-0.29-0.23-0.52-0.52-0.52h-1.76
			c-0.29,0-0.52,0.23-0.52,0.52C192.84,192.2,193.07,192.43,193.36,192.43z"/>
		<path class="st17" d="M197.65,192.43h1.76c0.29,0,0.52-0.23,0.52-0.52c0-0.29-0.23-0.52-0.52-0.52h-1.76
			c-0.29,0-0.52,0.23-0.52,0.52C197.13,192.2,197.36,192.43,197.65,192.43z"/>
		<path class="st17" d="M202.36,192.21h1.76c0.29,0,0.52-0.23,0.52-0.52c0-0.29-0.23-0.52-0.52-0.52h-1.76
			c-0.29,0-0.52,0.23-0.52,0.52C201.83,191.98,202.07,192.21,202.36,192.21z"/>
		<path class="st17" d="M206.68,192.21h1.76c0.29,0,0.52-0.23,0.52-0.52c0-0.29-0.23-0.52-0.52-0.52h-1.76
			c-0.29,0-0.52,0.23-0.52,0.52C206.16,191.98,206.39,192.21,206.68,192.21z"/>
		<path class="st17" d="M210.74,192.43h1.75c0.29,0,0.52-0.23,0.52-0.52c0-0.29-0.23-0.52-0.52-0.52h-1.75
			c-0.29,0-0.52,0.23-0.52,0.52C210.21,192.2,210.45,192.43,210.74,192.43z"/>
		<path class="st17" d="M168.13,193.99c0-0.29-0.23-0.52-0.52-0.52h-1.76c-0.29,0-0.52,0.23-0.52,0.52c0,0.29,0.23,0.52,0.52,0.52
			h1.76C167.9,194.52,168.13,194.28,168.13,193.99z"/>
		<path class="st17" d="M169.66,193.99c0,0.29,0.23,0.52,0.52,0.52h1.76c0.29,0,0.52-0.23,0.52-0.52c0-0.29-0.23-0.52-0.52-0.52
			h-1.76C169.89,193.46,169.66,193.7,169.66,193.99z"/>
		<path class="st17" d="M174.24,193.69c-0.29,0-0.52,0.23-0.52,0.52c0,0.29,0.23,0.52,0.52,0.52H176c0.29,0,0.52-0.23,0.52-0.52
			c0-0.29-0.23-0.52-0.52-0.52H174.24z"/>
		<path class="st17" d="M178.53,193.69c-0.29,0-0.52,0.23-0.52,0.52c0,0.29,0.23,0.52,0.52,0.52h1.76c0.29,0,0.52-0.23,0.52-0.52
			c0-0.29-0.23-0.52-0.52-0.52H178.53z"/>
		<path class="st17" d="M185.23,193.99c0-0.29-0.23-0.52-0.52-0.52h-1.76c-0.29,0-0.52,0.23-0.52,0.52c0,0.29,0.23,0.52,0.52,0.52
			h1.76C185,194.52,185.23,194.28,185.23,193.99z"/>
		<path class="st17" d="M186.76,193.99c0,0.29,0.23,0.52,0.52,0.52h1.76c0.29,0,0.52-0.23,0.52-0.52c0-0.29-0.23-0.52-0.52-0.52
			h-1.76C186.99,193.46,186.76,193.7,186.76,193.99z"/>
		<path class="st17" d="M191.33,193.69c-0.29,0-0.52,0.23-0.52,0.52c0,0.29,0.23,0.52,0.52,0.52h1.75c0.29,0,0.52-0.23,0.52-0.52
			c0-0.29-0.23-0.52-0.52-0.52H191.33z"/>
		<path class="st17" d="M195.63,193.69c-0.29,0-0.52,0.23-0.52,0.52c0,0.29,0.23,0.52,0.52,0.52h1.76c0.29,0,0.52-0.23,0.52-0.52
			c0-0.29-0.23-0.52-0.52-0.52H195.63z"/>
		<path class="st17" d="M202.61,193.99c0-0.29-0.23-0.52-0.52-0.52h-1.76c-0.29,0-0.52,0.23-0.52,0.52c0,0.29,0.23,0.52,0.52,0.52
			h1.76C202.38,194.52,202.61,194.28,202.61,193.99z"/>
		<path class="st17" d="M204.13,193.99c0,0.29,0.23,0.52,0.52,0.52h1.76c0.29,0,0.52-0.23,0.52-0.52c0-0.29-0.23-0.52-0.52-0.52
			h-1.76C204.36,193.46,204.13,193.7,204.13,193.99z"/>
		<path class="st17" d="M208.71,193.69c-0.29,0-0.52,0.23-0.52,0.52c0,0.29,0.23,0.52,0.52,0.52h1.75c0.29,0,0.52-0.23,0.52-0.52
			c0-0.29-0.23-0.52-0.52-0.52H208.71z"/>
		<path class="st17" d="M170.12,195.76h-1.76c-0.29,0-0.52,0.23-0.52,0.52s0.23,0.52,0.52,0.52h1.76c0.29,0,0.52-0.23,0.52-0.52
			C170.65,196,170.42,195.76,170.12,195.76z"/>
		<path class="st17" d="M174.45,195.76h-1.76c-0.29,0-0.52,0.23-0.52,0.52s0.23,0.52,0.52,0.52h1.76c0.29,0,0.52-0.23,0.52-0.52
			C174.98,196,174.74,195.76,174.45,195.76z"/>
		<path class="st17" d="M178.5,195.98h-1.76c-0.29,0-0.52,0.23-0.52,0.52c0,0.29,0.23,0.52,0.52,0.52h1.76
			c0.29,0,0.52-0.23,0.52-0.52C179.04,196.21,178.79,195.98,178.5,195.98z"/>
		<path class="st17" d="M182.8,195.98h-1.76c-0.29,0-0.52,0.23-0.52,0.52c0,0.29,0.23,0.52,0.52,0.52h1.76
			c0.29,0,0.52-0.23,0.52-0.52C183.32,196.21,183.09,195.98,182.8,195.98z"/>
		<path class="st17" d="M187.22,195.76h-1.76c-0.29,0-0.52,0.23-0.52,0.52s0.23,0.52,0.52,0.52h1.76c0.29,0,0.52-0.23,0.52-0.52
			C187.74,196,187.51,195.76,187.22,195.76z"/>
		<path class="st17" d="M191.55,195.76h-1.76c-0.29,0-0.52,0.23-0.52,0.52s0.23,0.52,0.52,0.52h1.76c0.29,0,0.52-0.23,0.52-0.52
			C192.07,196,191.84,195.76,191.55,195.76z"/>
		<path class="st17" d="M195.6,195.98h-1.76c-0.29,0-0.52,0.23-0.52,0.52c0,0.29,0.23,0.52,0.52,0.52h1.76
			c0.29,0,0.52-0.23,0.52-0.52C196.12,196.21,195.89,195.98,195.6,195.98z"/>
		<path class="st17" d="M199.89,195.98h-1.76c-0.29,0-0.52,0.23-0.52,0.52c0,0.29,0.23,0.52,0.52,0.52h1.76
			c0.29,0,0.52-0.23,0.52-0.52C200.42,196.21,200.18,195.98,199.89,195.98z"/>
		<path class="st17" d="M204.59,195.76h-1.76c-0.29,0-0.52,0.23-0.52,0.52s0.23,0.52,0.52,0.52h1.76c0.29,0,0.52-0.23,0.52-0.52
			C205.12,196,204.88,195.76,204.59,195.76z"/>
		<path class="st17" d="M208.92,195.76h-1.76c-0.29,0-0.52,0.23-0.52,0.52s0.23,0.52,0.52,0.52h1.76c0.29,0,0.52-0.23,0.52-0.52
			C209.45,196,209.21,195.76,208.92,195.76z"/>
		<path class="st17" d="M212.98,195.98h-1.75c-0.29,0-0.52,0.23-0.52,0.52c0,0.29,0.23,0.52,0.52,0.52h1.75
			c0.29,0,0.52-0.23,0.52-0.52C213.5,196.21,213.27,195.98,212.98,195.98z"/>
		<path class="st17" d="M169.01,198.02h-1.76c-0.29,0-0.52,0.23-0.52,0.52s0.23,0.52,0.52,0.52h1.76c0.29,0,0.52-0.23,0.52-0.52
			C169.54,198.25,169.3,198.02,169.01,198.02z"/>
		<path class="st17" d="M173.35,198.02h-1.76c-0.29,0-0.52,0.23-0.52,0.52s0.23,0.52,0.52,0.52h1.76c0.29,0,0.52-0.23,0.52-0.52
			S173.64,198.02,173.35,198.02z"/>
		<path class="st17" d="M177.4,198.25h-1.76c-0.29,0-0.52,0.23-0.52,0.52c0,0.29,0.23,0.52,0.52,0.52h1.76
			c0.29,0,0.52-0.23,0.52-0.52C177.92,198.48,177.69,198.25,177.4,198.25z"/>
		<path class="st17" d="M181.69,198.25h-1.76c-0.29,0-0.52,0.23-0.52,0.52c0,0.29,0.23,0.52,0.52,0.52h1.76
			c0.29,0,0.52-0.23,0.52-0.52C182.22,198.48,181.98,198.25,181.69,198.25z"/>
		<path class="st17" d="M186.11,198.02h-1.76c-0.29,0-0.52,0.23-0.52,0.52s0.23,0.52,0.52,0.52h1.76c0.29,0,0.52-0.23,0.52-0.52
			S186.4,198.02,186.11,198.02z"/>
		<path class="st17" d="M190.44,198.02h-1.76c-0.29,0-0.52,0.23-0.52,0.52s0.23,0.52,0.52,0.52h1.76c0.29,0,0.52-0.23,0.52-0.52
			C190.97,198.25,190.73,198.02,190.44,198.02z"/>
		<path class="st17" d="M194.5,198.25h-1.76c-0.29,0-0.52,0.23-0.52,0.52c0,0.29,0.23,0.52,0.52,0.52h1.76
			c0.29,0,0.52-0.23,0.52-0.52C195.02,198.48,194.79,198.25,194.5,198.25z"/>
		<path class="st17" d="M198.78,198.25h-1.76c-0.29,0-0.52,0.23-0.52,0.52c0,0.29,0.23,0.52,0.52,0.52h1.76
			c0.29,0,0.52-0.23,0.52-0.52C199.31,198.48,199.07,198.25,198.78,198.25z"/>
		<path class="st17" d="M203.49,198.02h-1.76c-0.29,0-0.52,0.23-0.52,0.52s0.23,0.52,0.52,0.52h1.76c0.29,0,0.52-0.23,0.52-0.52
			S203.78,198.02,203.49,198.02z"/>
		<path class="st17" d="M207.81,198.02h-1.76c-0.29,0-0.52,0.23-0.52,0.52s0.23,0.52,0.52,0.52h1.76c0.29,0,0.52-0.23,0.52-0.52
			S208.1,198.02,207.81,198.02z"/>
		<path class="st17" d="M211.86,198.25h-1.75c-0.29,0-0.52,0.23-0.52,0.52c0,0.29,0.23,0.52,0.52,0.52h1.75
			c0.29,0,0.52-0.23,0.52-0.52C212.4,198.48,212.15,198.25,211.86,198.25z"/>
	</g>
	<path class="st2" d="M275.62,304.35c0.69,2.17,0.81,2.05,1.29,5.67c0.2,1.48-0.84,1.78-1.36,1.76c0,0-1.76-0.31-1.91,1.09
		c-0.15,1.4-2.41,1.4-2.88,1.56c-0.47,0.16-15.77-0.16-17.33-0.01c-1.56,0.16-2.59-2.34-2.59-2.34s-0.16-2.18-0.94-2.97
		c-0.78-0.78-0.78-1.71-0.63-2.5c0.16-0.78-1.29-0.78-0.51-1.87c0.78-1.09-0.22-0.37-0.98-2.45c-0.76-2.11-1.94-1.81-3.12-4.57
		c-1.31-3.05-2.34-7.38-5.5-12.53c-2.61-4.26-6.82-13.34-8.69-15.71c-1.21-1.53-5.9-1.56-7.14-1.56s-11.23-0.16-19.34,0.31
		s-17,1.71-24.64-6.86c-7.65-8.58-3.71-18.86-3.71-20.42c0-1.56-0.17-4.38-0.17-4.38c1.64-0.86,24.92-2.03,27.73-2.19
		c2.81-0.16,9.14,0.16,26.32,0.16c13.18,0,21.06,12.24,24.64,19.81c2.45,5.17,14.52,32.91,15.4,34.82
		C269.59,289.19,273.21,296.8,275.62,304.35z"/>
	<path class="st6" d="M143.26,195.12c0,0,3.21-4.53,9.35-4.53s11.66,5.66,11.66,5.66s1.35-12.84,0.74-15.65
		c-0.61-2.81-7.36-12.61-20.88-7.53L143.26,195.12z"/>
	<path class="st18" d="M143.26,179.03c0,0,5.89-4.21,12.28-1.71c6.94,2.7,9.24,10.45,9.24,10.45l44.43-0.85"/>
	<g>
		<path class="st11" d="M281.56,194.31c0,0.9-0.73,1.64-1.64,1.64h-74.56c-0.9,0-1.64-0.73-1.64-1.64v-48.45
			c0-0.9,0.73-1.64,1.64-1.64h74.56c0.9,0,1.64,0.73,1.64,1.64V194.31z"/>
		<rect x="232.28" y="174.82" class="st12" width="16.38" height="21.13"/>
		<rect x="235.24" y="171.24" class="st10" width="14.2" height="45.53"/>
		<path class="st10" d="M279.93,144.23c0,0-17.36,6.46-36.78,6.46s-37.2-6.46-37.2-6.46H279.93z"/>
	</g>
	<path class="st16" d="M149.4,222.88c0,0,1.94,8.31,3.12,13.32c0,0,24.47-1.87,33.98-1.64c9.5,0.23,25.01,0.25,26.14-0.22
		s1.83-6.03,2.58-11.46"/>
	<path class="st11" d="M194.07,280.88c0,1.64-1.33,2.97-2.97,2.97h-25.58c-1.64,0-2.97-1.33-2.97-2.97l0,0
		c0-1.64,1.33-2.97,2.97-2.97h25.58C192.74,277.92,194.07,279.24,194.07,280.88L194.07,280.88z"/>
	<path class="st11" d="M186.58,284c0,1.64-0.69,2.97-1.55,2.97h-13.42c-0.86,0-1.55-1.33-1.55-2.97l0,0c0-1.64,0.69-2.97,1.55-2.97
		h13.42C185.89,281.04,186.58,282.36,186.58,284L186.58,284z"/>
	<path class="st19" d="M152.46,236.58c0,0,0.17,2.83,0.17,4.38c0,1.56-3.94,11.84,3.71,20.42c7.65,8.58,16.54,7.33,24.64,6.86
		c8.11-0.47,18.09-0.31,19.34-0.31c1.24,0,4.37-0.39,4.37,1.56c0,0.31,0.47,8.58-0.31,14.2c-0.68,4.95,1.09,15.6,0.63,18.56
		c-0.47,2.97-2.65,3.74-0.94,5.15c1.71,1.4,1.46,1.89,0.63,2.57c-0.83,0.68-0.83,0.68-1,1.17c-0.17,0.49-0.17,1.07,0.66,1.55
		c0.83,0.49,1,1.85,1,1.85s0,1.55,1.68,1.46c1.68-0.09,20.21,0.1,20.72,0s2.17-0.1,2.34-0.98c0.17-0.88,1.34-1.37,1.34-1.37
		s2-0.39,0.66-1.55c-1.34-1.17-1.59-1.46,0.46-2.24c2.05-0.78,2.24-3.41,2.08-4.03s-0.78-11.54-0.78-15.91s0.96-38.06,0.8-41.02
		c-0.17-2.97-0.64-13.41-17.79-14.35c-17.15-0.94-33.85-0.31-36.66-0.16C177.38,234.55,154.1,235.72,152.46,236.58z"/>
	<path class="st5" d="M203.57,268.12c0,0-16.99,0.06-21.36,0.06c-4.36,0-24.01-0.55-24.64-0.55s-13.26-0.78-13.1,11.7
		c0,0-0.78,1.71,2.65,1.71c3.43,0,56.62,0,56.62,0l0.94-0.16l0.47-11.07C205.15,269.81,204.81,268.12,203.57,268.12z"/>
	<path class="st6" d="M208.57,315.4c0,0,1.09,4.37,0.94,5.31s7.95,2.18,10.76,1.87c2.81-0.31,6.24-0.94,6.55-2.81
		c0.31-1.87,0-4.06,0-4.06"/>
	<polygon class="st11" points="184.71,323.61 172.54,323.61 174.26,304.59 182.69,304.59 	"/>
	<path class="st10" d="M173.8,320.08c0,0-0.06,0.03-0.15,0.07c-1.89,0.84-20.9,9.22-38.37,11.88c0,0-2.97,0.94-2.97,4.05h8.73
		c0,0,30.25-5.61,34.47-7.02l3.28-0.16l0.47-7.95"/>
	<path class="st10" d="M183.53,320.08c0,0,0.06,0.03,0.15,0.07c1.88,0.84,20.9,9.22,38.37,11.88c0,0,2.97,0.94,2.97,4.05h-8.73
		c0,0-30.25-5.61-34.47-7.02l-3.28-0.16l-0.47-7.95"/>
	<circle class="st10" cx="137.07" cy="339.6" r="3.51"/>
	<circle class="st10" cx="220.66" cy="339.6" r="3.51"/>
	<path class="st13" d="M261.89,199.78c0,0-4.46,7.99-4.81,10.33c-0.35,2.34-1.4,6.64-1.4,6.64h5.15l5.15-15.53l-3.74-1.98
		L261.89,199.78z"/>
	<path class="st6" d="M265.21,203.53c0,0,6.04,3.76,8.96,4.23s8.19,3.55,9.71,4.17s6.55,0.74,7.37,0.63s2.23,3.29,0.94,3.74
		c-1.29,0.45-16.26,1.15-18.01-0.24c-1.76-1.39-2.11,0.24-1.4,0.36c0.7,0.12-2.11,0.33-5.38,0.33s-6.32-1.38-6.32-1.38
		L265.21,203.53z"/>
	<path class="st20" d="M272.81,307.64c-2.34,1.17-6.66,2.92-8.18,2.92s6.66,0,8.53-0.82c1.87-0.82,4.1-1.64,1.98-1.87
		c-2.11-0.23-2.11-0.23-2.11-0.23"/>
	<path class="st20" d="M252.24,305.78c-0.48-0.05-2.26,0.75-2.26,1.51c0,0.75,1.56,1.97,2.79,2.16c1.23,0.19,8.75-0.09,9.78-0.56
		c1.04-0.47,0-0.47-3.11-0.28c-3.11,0.19-3.54-0.28-4.14-0.56C251.73,306.38,254.03,305.96,252.24,305.78z"/>
	<path class="st20" d="M205.15,305.53c1.07,0,11.43,0.73,13.79,0.54c2.36-0.18,7.64-0.54,7.64-0.54s-16.34-0.8-17.35-0.95
		C208.21,304.44,205.15,305.53,205.15,305.53z"/>
	<path class="st20" d="M190.95,235.02c-0.78,0-16.69,3.28-18.09,4.05c-1.4,0.78,9.2-2.5,10.13-2.88c0.94-0.39-6.01-0.07-8.23,0
		c-2.23,0.07-12.67,0.07-13.61,0c-0.94-0.07,19.49-1.64,22.93-1.64C187.52,234.55,190.95,235.02,190.95,235.02z"/>
	<g>
		<g>
			<path class="st21" d="M162.85,266.44c0,0-0.22-0.27-0.56-0.74"/>
			<path class="st22" d="M161.24,264.2c-1.49-2.24-3.51-5.79-3.81-8.9c-0.29-3-0.4-5.77-0.45-7.51"/>
			<path class="st21" d="M156.96,246.88c-0.01-0.6-0.01-0.94-0.01-0.94l-0.92-0.17"/>
			<line class="st23" x1="154.96" y1="245.57" x2="153.35" y2="245.27"/>
			<line class="st21" x1="152.81" y1="245.17" x2="151.89" y2="245"/>
		</g>
	</g>
	<path class="st20" d="M184.55,266.2c0.53-0.08,14.6,0.01,18.84-1.05c4.23-1.05,5.5-1.32,5.5-1.32l-1.48,1.7l-2.23,0.95
		L184.55,266.2z"/>
	<path class="st24" d="M152.01,230.39c0,0,18.44,2.06,23.58,2.06c5.15,0,7.33,0.47,7.33,0.47s-18.95-0.47-20.86,0.31
		s-5.73,2.5-5.73,2.5s-1.96-0.38-2.58-2.38C153.12,231.36,152.01,230.39,152.01,230.39z"/>
	<path class="st0" d="M206.46,322.39c0,0,0.04,0.34,0.08,0.89c0.04,0.44,0.02,1.54-0.03,2.99c-0.15,4.75,0.17,13.32,0.26,15.05
		c0.12,2.34,4.86,1.71,4.86,1.71l24.77-0.07l7.26-3.89c-0.32-5.22-4.89-5.49-9.35-7.11c-1.88-0.68-4.31-8.72-4.31-8.72l-2.84,1.43
		c0,0-9.86,0.8-13.58,0.05"/>
	<path class="st0" d="M218.18,342.99c0,0-0.85-5.01,2.02-5.74s9.55-1.25,15.54-1.11c5.76,0.14,8.83,1.22,8.44,6.56
		C244.19,342.7,224.83,343.1,218.18,342.99z"/>
	<path class="st0" d="M257.63,320.78c0,0,0.01,0.14,0.04,0.39c0.14,1.63,2.15,7.85,2.19,9.07c0.04,1.4-0.98,3.07-0.98,5.24
		c0,2.17,0.5,6.64,0.5,6.64l12.52-0.02c0,0,1.19-0.23,2.34-1s1.44,0.66,2.08,0.91c0.64,0.25,13.14,0.75,17.74,0.63
		c4.6-0.13,6.52-0.13,7.16-0.38c0.64-0.25-1.62-6.61-1.62-6.61s-8.44-5.26-9.46-5.38c-1.02-0.13-6.94-2.71-7.84-5.15
		c-0.9-2.43-0.77-4.35-0.77-4.35s-6.08,1.96-7.49,2.09c-1.4,0.13-12.04,0.35-13.58-0.29c-1.53-0.64-1.27-1.38-1.27-1.38"/>
	<path class="st25" d="M216.55,325.93c0,0,7.77,2.03,10.43,2.13s-5.52,3.07-7.94,3.17c-2.42,0.1,3.58,1.4,9.23,1.09
		c5.64-0.31,2.37,2.13-3.28,2.4c-5.64,0.26-1.46,2.19,7.52,1.67c8.98-0.52-5.94-2.34-10.5-2.97c-4.55-0.63,5.22-1.87,5.89-2.76
		c0.66-0.89-8.5-1.77-9.83-2.29c-1.34-0.52,6.06-2.7,7.1-4.01"/>
	<path class="st16" d="M278.37,324.86c0,0,3.82,5.46,7.18,6.63c3.35,1.17,4.45,2.57,6.08,1.71c1.64-0.86,1.89-1.21,1.89-1.21
		s-3.92-2.39-5.71-3.56c-1.8-1.17-5.22-4.21-5.46-4.91c-0.23-0.7-1.96-0.6-1.96-0.6"/>
	<path class="st16" d="M275.46,313.83c0,0,0.18,6.66,2.32,9.49c2.15,2.83,2.28,4.59,4.13,4.79c1.83,0.19,2.25,0.04,2.25,0.04
		s-1.96-4.15-2.81-6.11s-2.03-6.39-1.84-7.11c0.19-0.71-1.3-1.58-1.3-1.58"/>
	<path class="st26" d="M274.64,312.38c0.31,0.13,3.02,2.68,3.02,2.68s-0.38,0.59-1.25,0.76c-0.87,0.17-2.4,0.37-0.63,1.09
		c1.78,0.71,4.2,1,3.23,1.48c-0.97,0.48-3.52,0.95-1.85,1.68c1.67,0.73,4.28,1.39,3.33,1.58s-2.58,0.41-1.85,0.99
		c0.74,0.58,2.26,1.11,2.84,1.51c0.59,0.38-1.08,0.51-1.55,0.37s0.67-1.19,0.82-1.57c0.15-0.39-1.83-1.43-2.48-1.57
		c-0.65-0.15,0.74-1.11,1.1-1.53s-1.78-0.98-2.43-1.41c-0.66-0.43,0.63-1.61,1.13-1.84c0.51-0.23-1.23-1.39-2.07-1.96
		c-0.84-0.56,1.83-0.94,2.11-0.94"/>
	<path class="st8" d="M144.39,280.05c0,0-0.9-3.72,2.34-3.72c3.24,0,7.77,2.75,12.95,2.26c5.18-0.49,5.18-0.97,5.18-0.97
		s3.24,1.62,10.36,0.97c7.12-0.65,7.28-1.78,11.17-1.13c3.88,0.65,6.93,1.29,7.67,1.29s10.6-1.29,10.6-1.29v3.42l-53.89,0.16
		C150.79,281.04,145.62,281.34,144.39,280.05z"/>
	<path class="st0" d="M145.6,203.06c0,0,4.33-8.11,17.74-5.77c13.41,2.34,20.83,5.17,22.15,4.99c7.6-1.05,16.13,4.57,17.39,10.18
		c1.24,5.61-4.13,4.3-4.13,4.3h-50.84c0,0-3.12-0.92-2.97-3.72c0.15-2.81-2.54-6.03,0.66-9.67"/>
	<path class="st13" d="M187.71,201.69c0,0-6.94-1.64-11.54,2.7c-4.59,4.33-6.12,10.97-5.07,12.38l5.5-0.01c0,0,0.35-7.11,4.56-8.75
		c4.21-1.64,6.19-3.28,12.17-1.4c5.97,1.87,7.95,4.91,8.07,6.44s1.67,3.98,1.67,3.98l1.61-0.12c0,0-1.05-7.6-6.32-11.11
		C193.08,202.28,189,201.57,187.71,201.69z"/>
	<path class="st5" d="M185.96,216.8c0,0-0.2-7.46,5.47-7.46c5.66,0,16.78,1.13,17.16,7.79L185.96,216.8z"/>
	<path class="st10" d="M176.29,216.76l9.97,0.04c0,0,0.07-0.15,5.49-1.67c6.8-1.9,5.53-4.32,5.53-4.32s9.98,1.87,2.68-3.63
		c-3.13-2.35-8.68-1.95-12.28-1.8C184.09,205.54,175.04,208.48,176.29,216.76z"/>
	<g>
		<path class="st6" d="M171.2,120.33c0,0-0.89-0.5-1.56-0.47c-0.68,0.04-1.88,1.33-1.38,3.25c0.51,1.92,2.55,2.12,2.55,2.12
			l-0.12,0.87c0,0-2.55-0.17-3.25-2.57c-0.7-2.41,0.51-4.65,1.42-4.93c1.37-0.41,2.35,0.39,2.35,0.39L171.2,120.33z"/>
		<path class="st6" d="M178.87,106.35l-5.26,4.41l-3.43,4.27l0.05,4.29l-1.29,0.14l-1.3,2.1l0.53,2.74l1.56,0.99
			c0,0,1.81,9.81,1.82,10.01c0,0.21,8,5.41,8,5.41l11.52-4.09c0,0,1.69,1.26,1.9,1.26c0.21,0,3.96-3.2,3.96-3.2l1.53-4.86
			l-0.33-4.64l0.89-0.5l0.96-2.02l0.01-1.75l-1.09-1.34h-0.81c0,0-4.27-5.91-4.4-6.41c-0.13-0.49-2.56-5.28-2.56-5.28l-11.36-3.21
			L178.87,106.35z"/>
		<path class="st6" d="M196.21,120.44c0,0,0.97-0.5,1.72-0.45c0.75,0.04,2.05,1.35,1.48,3.25c-0.57,1.92-2.81,2.1-2.81,2.1
			l0.12,0.88c0,0,2.79-0.14,3.58-2.55c0.8-2.4-0.51-4.65-1.52-4.93c-1.5-0.43-2.57,0.36-2.57,0.36L196.21,120.44z"/>
		<g>
			<path class="st27" d="M196.72,120.19c0,0,0.07,0.01,0.19,0.02c-0.19-0.81-1.12-2.29-1.88-2.58c-0.85-0.33-1.93-2-2.33-2.7
				c-0.4-0.7-0.63,0.51-0.63,0.51c-0.77,0.05-0.9-0.33-1.48-0.42c-0.58-0.09,0.27,0.83,0.27,0.83c-9.44-0.96-11.57-7.4-11.57-7.4
				c-2.98,3.43-6.71,6.09-7.7,6.51c-0.99,0.41-0.03,0.17-0.03,0.17s-0.22,0.56-0.19,1.44c0.04,0.72-0.36,2.81-0.51,3.54
				c0.07-0.01,0.12-0.01,0.12-0.01c0.22,0.56-0.5,6.43-0.51,7.85s0.36,3.84,0.83,4.76c0,0-0.16,3.1,2.26,3.81c0,0,2.47,0.2,2.8-1.01
				c0.33-1.21-0.34-3.98,3.24-4.49c3.61-0.51,4.19-0.58,4.19-0.58l0,0c0,0,0.15,0,3.54-0.45c3.38-0.45,3.54,4.37,3.85,5.59
				c0.32,1.21,2.79,1.03,2.79,1.03c2.43-0.7,2.29-3.8,2.29-3.8c0.49-0.93,0.87-3.33,0.87-4.75
				C197.16,126.63,196.51,120.74,196.72,120.19z"/>
			<path class="st5" d="M198.79,132.36c-0.05-0.62-0.59-3.19-0.44-7.22c0,0,0-3.64-0.14-4.67l0,0c0,0-0.28-1.53-0.09-3.28
				c0.19-1.76-0.87-6.43-2.62-9.91c-1.84-3.67-4.23-5.42-8.35-6.18c-2.47-0.45-2.39,0.01-3.3-0.02c-0.95-0.04-3.96,0.68-4.87,0.95
				c-0.9,0.27-0.46,1.02,0,1.16c0.45,0.14,0,0.83,0,0.83s-1.43-1.3-3.06-0.29c-1.63,1.01-1.85,2.41-3.07,2.72
				c-1.22,0.32-1.72,2.31-2.17,2.59c-0.45,0.27,0.41,1.69,0.17,2.13c-0.22,0.42-0.13,1.64-0.4,2.42c-0.27,0.79-0.87,1.52-0.83,1.94
				c0.04,0.39,0.03,4.25,0.03,4.76c-0.15,0.95,0.43,4.59,0.43,4.59c-0.59,1.24,0.56,7.36,0.31,7.94c-0.79,1.82,0.91,1.53,2.01,7.29
				c0,0,0.51,4.41,3.63,6.44c3.97,2.59,5.66,1.79,7.71,1.8c2.06,0.01,5.05,0.58,9.09-1.91c4.03-2.49,4.3-6.09,4.3-6.09
				C197.42,134.78,198.86,133.18,198.79,132.36z M196.29,132.8c0,0-1.98,3.69-2.29,3.8c0,0-1.26,0.24-1.58-0.96
				c-0.32-1.21-0.72-5.01-2.32-5.08c-3.42-0.16-8.15,0.32-8.15,0.32l1.64,0.58c0,0,0.99-1.09-2.63-0.57
				c-3.57,0.51-2.46,3.82-3.48,4.9c-0.85,0.92-3.88,0.73-3.88,0.73c-1.35-1.2-2.26-3.81-2.26-3.81c-0.48-0.94-0.32-3.85-0.31-5.27
				c0.01-1.42,0.07-6.78-0.15-7.34c0,0,0.07-0.01,0,0c0.14-0.74,1.87-1.97,1.84-2.7c-0.05-0.88,0.72-2.34,0.72-2.34
				s-0.96,0.24,0.03-0.17s2.85-3.02,5.83-6.46c0,0,2.12,6.44,11.57,7.4c0,0-0.85-0.93-0.27-0.83c0.58,0.09,0.72,0.47,1.48,0.42
				c0,0,0.23-1.21,0.63-0.51c0.4,0.7,1.48,2.38,2.33,2.7c0.77,0.29,2.36,1.67,2.55,2.47c-0.11-0.01,0,0,0,0
				c-0.22,0.55,0.22,6.63,0.22,8.06C197.78,129.59,196.77,131.88,196.29,132.8z"/>
		</g>
	</g>
	<path class="st0" d="M207.4,327.28l-1.24-1.71c0,0-0.63-5.38-0.78-5.85c-0.16-0.47-0.39-4.21-0.47-5.22
		c-0.07-1.01,1.24-2.03,1.52-1.33s0.66,0.85,2.07,1.95c1.4,1.09,2.41,2.26,3.12,2.34s2.73,0.23,2.73,0.23s1.95-3.13,1.95-3.58
		c0-0.47,10.06-0.17,10.84-0.16c0.78,0.01,0.7,1.72,0.94,2.35s1.4,1.01,1.8-0.07c0.39-1.09,1.71-0.47,1.71-0.47l-0.22,4.12
		c0,0-0.47,1.53-0.78,2.52c-0.31,0.99-0.63,2.63-0.47,3.01c0.16,0.39-22.53,1.95-22.53,1.95"/>
	<path class="st16" d="M228.56,335.42c-1.56-0.2-4.61,0.95-6.28-0.87c-3.19-3.5-3.81-9.85-3.34-15.54c0.07-0.77,8-0.46,8.19-0.54
		c0.19-0.08-0.22,8.41,0.47,9.64c0.7,1.22,3.92,4.97,4.88,5.92C233.44,334.99,232.05,335.86,228.56,335.42z"/>
	<path class="st28" d="M225.94,318.39c0,0-6.45,0.7-5.9,0.86c0.54,0.16,5.77,0.78,6.32,0.9c0.54,0.12,0,1.28-1.09,1.75
		c-1.09,0.47-5.38,1.4-5.38,1.4s1.56,1.01,3.12,1.06c1.56,0.05,2.6,1.2,2.6,1.2c-0.66,0.97-5.42,2.61-4.57,3
		c0.86,0.39,6.75,1.05,6.32,1.71c-0.43,0.66-6.71,1.6-3.78,2.07c2.93,0.47,12.52,1.83,6.75,2.23c-5.77,0.39-8.46-1.05-4.84-1.24
		s5.73-2.03,2.11-1.8s-7.49-0.74-5.92-0.82c1.56-0.07,6.82-2.3,5.11-2.38s-6.71-1.6-6.71-1.6l2.78-1.17l2.57-1.71
		c0,0-1.71-2.57-2.57-2.57s-1.48-0.63-1.48-0.63"/>
	<path class="st10" d="M204.13,312.54c0,0,3.2-0.94,4.05-0.86c0.86,0.07,3.35,3.35,4.29,2.81c0.94-0.54,1.87-2.11,3.04-2.11
		c1.17,0,6.48,0.07,7.49,0.54c1.01,0.47,4.91-0.16,5.61-0.16c0.7,0,2.11-0.39,2.41,0c0.31,0.39,0.54,1.86,0.31,2.34
		c-0.23,0.48-0.7,1.25-1.48,1.09c-0.78-0.16-2.3-2.03-2.9-2.03c-0.61,0-7.47,0-7.7,0.07s-3.51,1.62-3.67,1.94s-3.35,1.72-3.35,1.72
		s-2.26-0.54-2.97-1.95c-0.7-1.4-1.09-1.8-1.4-1.87"/>
	<path class="st5" d="M204.52,315.73c0,0,0.94-0.86,2.03,0.16c1.09,1.01,3.74,3.04,4.45,3.28s3.74,0.78,3.98,0.47
		c0.23-0.31,2.34-4.27,2.97-4.24s8.38-0.09,8.64,0.1c0.25,0.2,0.34,2.57,1.74,2.5c1.4-0.07,1.8-0.57,2.41-0.44
		c0.63,0.13,1.71-0.19,1.71-0.5s0.7-2.5,0-2.88c-0.7-0.38-1.64-0.54-2.41-0.39c-0.78,0.16-1.09-0.47-1.4-1.01
		c-0.31-0.54-3.74-1.17-4.68-1.17c-0.94,0-6.08,0.07-6.78,0c-0.7-0.07-1.8,1.78-1.95,2.33c-0.16,0.55-1.4,1.88-1.8,2.03
		c-0.39,0.16-3.28-0.78-3.67-1.24c-0.39-0.47-1.64-2.97-2.5-3.13c-0.86-0.15-3.33,0.76-3.33,0.76s-1.24,2.37,0.45,3.38"/>
	<path class="st3" d="M251.97,314.1l-1.13-2.01c0,0,4.52-0.67,5.46-0.5c0.94,0.18,8.42,0.8,8.96,0.95s5.85,1.56,6.63,1.33
		s0.7,2.11,0.63,2.65c-0.07,0.54,0.78,1.64-0.86,1.48c-1.64-0.16-5.47-2.34-5.47-2.34s-7.23-0.95-8.09-0.7"/>
	<path class="st26" d="M278.47,325.2c0.33-0.07,4,0.56,4,0.56s0,0.7-0.63,1.33s-1.8,1.64,0.07,1.24c1.87-0.39,4.05-1.48,3.51-0.54
		c-0.54,0.94-2.41,2.73-0.63,2.41c1.8-0.31,4.33-1.2,3.65-0.51c-0.68,0.67-1.94,1.77-1,1.84c0.94,0.07,2.5-0.31,3.2-0.31
		c0.7,0-0.63,1.01-1.09,1.17s-0.09-1.36-0.18-1.77c-0.08-0.41-2.31-0.18-2.94,0.06c-0.63,0.23,0-1.34,0.07-1.87
		c0.07-0.54-2.03,0.16-2.81,0.16s-0.36-1.69-0.07-2.16c0.29-0.47-1.8-0.49-2.81-0.49s1.01-1.8,1.24-1.95"/>
	<path class="st5" d="M253.67,316.74c0,0,6.77-0.53,7.7-0.37c0.94,0.16,4.75,0.63,4.75,0.63s1.8,2.88,4.6,2.97
		c2.81,0.07,4.45-0.07,4.21-1.09c-0.23-1.01-0.54-4.38-0.54-4.38s4.91-1.15,5.54-1.54c0.63-0.39,0.63-1.87,0.23-2.57
		c-0.39-0.7-2.03-0.39-2.65,0c-0.62,0.39-3.98,1.4-3.98,1.4s-2.34,0.39-2.03,1.71c0.31,1.33,0.63,3.35,0.31,3.35
		c-0.31,0-2.65-0.87-3.35-1.88c-0.7-1.01-7.18-1.64-8.35-1.71c-1.17-0.07-7.87,0.14-8.11,0.23
		C251.77,313.57,252.19,316.43,253.67,316.74z"/>
	<path class="st16" d="M217.46,323.92c0,0-3.67,1.95-4.68,1.95c-1.01,0,4.21,0.34,4.68,0.28
		C217.93,326.11,217.46,323.92,217.46,323.92z"/>
	<path class="st16" d="M261.37,323.92c0.78-0.16,8.96-0.23,8.96-0.23s-7.65,1.33-8.73,1.48c-1.09,0.16-2.34,0.23-2.34,0.23
		l-0.47-1.24L261.37,323.92z"/>
	<path class="st29" d="M104.61,198.73c0,0-0.36-2.09-0.91-2.96c-0.54-0.87-3.71-1.97-3.67-4.59c0.04-2.6,2.69-3.02,2.34-2.2
		c-0.94,2.24,0.2,3.13,1.87,4.75c1.73,1.68,1.91,2.39,1.91,4.91C106.16,198.65,105.08,200.05,104.61,198.73z"/>
	<path class="st29" d="M107.52,198.19c0,0-1.08-5.6,1.35-6.9c2.42-1.29,5.67-3.75,5.62-6.93c-0.05-3.19-0.48-5.66,1.03-5.75
		c0.71-0.04,1.05,0.3,1.05,0.86s-0.06,5.01-0.05,5.47c0.05,3.1-1.31,5.17-4.15,6.73c-2.84,1.56-2.81,2.29-2.85,3.06
		s0.14,2.99,0.06,3.23C109.49,198.21,108.11,198.89,107.52,198.19z"/>
	<path class="st11" d="M98.6,197.75v16.45c0,0,0.54,2.55,3.58,2.55s11.23,0,11.23,0s2.81-0.29,2.81-3.02
		c0-2.73,0.07-16.14,0.07-16.14L98.6,197.75z"/>
	<path class="st11" d="M98.67,199.31c0,0-0.78,1.24-1.33,1.32c-0.55,0.07-4.72-0.58-6.01,2.73c-1.08,2.77,0.28,6.26,2.84,7.52
		c2.54,1.24,4.48,1.04,4.48,1.9s0.78-2.49,0.78-2.49s-3.4-0.88-4.32-1.48c-1.09-0.7-2.45-2.88-1.44-4.84
		c1.05-2.02,4.29-0.31,5.31-1.24"/>
</g>
</svg>
