<?xml version="1.0" encoding="utf-8"?>
<!-- Generator: Adobe Illustrator 19.2.0, SVG Export Plug-In . SVG Version: 6.00 Build 0)  -->
<svg version="1.1" id="Layer_1" xmlns="http://www.w3.org/2000/svg" xmlns:xlink="http://www.w3.org/1999/xlink" x="0px" y="0px"
	 width="380px" height="380px" viewBox="0 0 380 380" style="enable-background:new 0 0 380 380;" xml:space="preserve">
<style type="text/css">
	.st0{fill:#23B2C9;}
	.st1{fill:none;stroke:#7B331A;stroke-width:3;stroke-miterlimit:10;}
	.st2{fill:#721F17;}
	.st3{fill:#FFFFFF;}
	.st4{fill:none;stroke:#EE2C24;stroke-width:0.75;stroke-miterlimit:10;stroke-dasharray:1.9916,1.9916;}
	.st5{fill:#ED2826;}
	.st6{fill:#FEFEFB;}
	.st7{fill:#C3E5E3;}
	.st8{fill:#D12227;}
	.st9{opacity:0.5;fill:#7B2417;enable-background:new    ;}
	.st10{fill:#F9F9FA;}
	.st11{fill:#E9E9E9;}
	.st12{fill:#DEDDDD;}
	.st13{fill:#752C16;}
	.st14{fill:#7ACED7;}
	.st15{fill:#348597;}
	.st16{fill:#20989E;}
	.st17{fill:#5EC093;}
	.st18{fill:none;stroke:#DE3B27;stroke-width:2;stroke-miterlimit:10;}
	.st19{fill:#7B2417;}
	.st20{fill:#ED2426;}
	.st21{fill:none;stroke:#ED1C24;stroke-miterlimit:10;}
	.st22{fill:none;stroke:#ED1C24;stroke-miterlimit:10;stroke-dasharray:1.9449,1.9449;}
	.st23{fill:none;stroke:#ED1C24;stroke-miterlimit:10;stroke-dasharray:1.1663,1.1663;}
	.st24{fill:#198E8E;}
	.st25{fill:none;stroke:#20989E;stroke-miterlimit:10;}
	.st26{fill:none;stroke:#7B2417;stroke-miterlimit:10;}
	.st27{fill:none;}
	.st28{fill:none;stroke:#7B2417;stroke-linejoin:round;stroke-miterlimit:10;}
	.st29{opacity:0.4;fill:#F7F7F7;enable-background:new    ;}
	.st30{fill:#FFFFFB;}
	.st31{fill:#E2E2E1;}
	.st32{fill:#20B1C8;}
	.st33{fill:#ED2726;}
	.st34{fill:#C2E5E3;}
	.st35{fill:#5DBF92;}
	.st36{fill:#DE3B27;}
	.st37{fill:#348496;}
	.st38{fill:none;stroke:#ED2726;stroke-miterlimit:10;}
	.st39{fill:none;stroke:#ED2726;stroke-miterlimit:10;stroke-dasharray:2.0278,2.0278;}
	.st40{fill:#DD2627;}
	.st41{fill:#7ABC89;}
	.st42{fill:#8AC987;}
	.st43{fill:none;stroke:#752C16;stroke-miterlimit:10;}
	.st44{opacity:0.5;fill:#348496;}
	.st45{fill:none;stroke:#7B2417;stroke-linecap:round;stroke-linejoin:round;stroke-miterlimit:10;}
	.st46{fill:none;stroke:#348496;stroke-linejoin:round;stroke-miterlimit:10;}
	.st47{fill:none;stroke:#20B1C8;stroke-miterlimit:10;}
	.st48{fill:#21A7AE;}
	.st49{fill:#22B1C8;}
	.st50{fill:none;stroke:#ED2726;stroke-width:2;stroke-miterlimit:10;}
	.st51{fill:#189DAA;}
	.st52{fill:#1F979D;}
	.st53{fill:none;stroke:#752C16;stroke-width:0.75;stroke-linecap:round;stroke-linejoin:round;stroke-miterlimit:10;}
</style>
<g>
	<path class="st30" d="M64.5,37.79c-1.3-0.32-2.62,0.62-3.42,1.33c0.01,0.16-0.01,0.28-0.07,0.35c-0.41,0.45-3.42,5.18-3.78,5.76
		c-0.36,0.59-3.77-1.99-4.49-2.75c-0.72-0.77-1.19-3.64-1.28-4.36c-0.09-0.72-0.54-6.8-0.54-6.8l0.09-0.29
		c-0.19-0.75-0.38-1.28-0.58-1.37c-0.87-0.43-2.56,0.08-2.52,0.47c0.04,0.39-0.08,8.96-0.04,9.51c0.04,0.55-0.12,1.41-0.35,0.94
		c-0.24-0.47-1.93-5.07-2.12-5.58c-0.2-0.51-1.1-5.42-2.04-5.98c-0.94-0.55-2.52,0.36-2.59,0.63c-0.08,0.28,2,8.73,2.12,9.39
		c0.12,0.67,0.59,2.12,0.08,1.81c-0.51-0.31-4.68-5.46-5.07-6.09c-0.39-0.63-1.38-1.69-1.81-1.38c-0.43,0.31-1.34,1.14-1.22,1.65
		c0.12,0.51,5.34,7.7,5.89,8.72c0.55,1.02-0.67,0.55-2.24,0.32c-1.57-0.24-4.48-1.69-4.95-1.41c-0.47,0.27-0.59,1.41-0.24,1.81
		c0.35,0.39,1.34,1.26,3.22,2.55c1.89,1.3,4.76,4.09,5.03,4.76c0.27,0.67,3.25,5.08,4.35,6.1c1.1,1.02,3.28,2.15,3.4,2.62
		c0.12,0.47,1.42,2.16,1.42,2.16c1.65,0.31,8.21-6.96,8.1-7.55c-0.12-0.59,0.12-0.71,0.47-1.14c0.35-0.43,1.26-2.36,1.26-3.42
		c0-1.06,1.06-4.01,1.69-6.17c0.63-2.16,3.07-5.27,3.22-5.54C65.64,38.58,65.96,38.14,64.5,37.79z"/>
	<path class="st31" d="M51.46,38.12c0.09,0.72,0.56,3.59,1.28,4.36c0.72,0.77,2.83,4.19,4.49,2.75c0.52-0.45,3.38-5.31,3.78-5.76
		c0.06-0.07,0.08-0.19,0.07-0.35c-0.1,0.08-0.19,0.17-0.27,0.24c-0.75,0.71-3.5,3.93-3.85,4.44c-0.35,0.51-1.57,0.27-2.04-0.24
		c-0.47-0.51-2.04-2.63-2.4-3.77c-0.27-0.88-0.85-6.2-1.5-8.77l-0.09,0.29C50.92,31.32,51.37,37.4,51.46,38.12z"/>
</g>
<path class="st13" d="M89.18,141.25c0,0-2.43,2.3-3.38,2.3s-1.49,2.9-1.49,4.08s-1.22,42.37-1.22,44.13c0,1.76,0.68,3.78,3.65,4.86
	c2.97,1.08,14.72,3.11,14.72,3.11s48.6,4.19,49.55,3.24c0.96-0.95,4.43-27.82,4.45-29.85s4.61-18.51,3.39-19.45
	c-1.22-0.94-5.94-3.62-5.94-3.62S91.21,139.9,89.18,141.25z"/>
<path class="st13" d="M152.76,151.48l9.62,2.1c0,0,1.8,0.45,2.7-0.72c0.9-1.17,5.58-7.64,6.48-12.69c0.9-5.05-0.36-16.25-0.36-16.25
	l-19.18-4.58L152.76,151.48z"/>
<path class="st32" d="M50.56,61.3c0,0,17.83,40.7,18.37,41.78s19.81,26.29,22.33,30.07c2.52,3.78,8.28,15.3,7.74,22.33
	c-0.54,7.02-0.18,41.77-0.18,41.77s-1.08,6.48-0.72,7.92c0.36,1.44,1.62,3.06,1.62,3.06s15.49-1.8,19.27-2.52
	c3.78-0.72,23.05-0.36,24.85-0.18c1.8,0.18,4.32-0.18,5.22-1.98c0.9-1.8,0.54-2.7,0.54-3.6s-0.07-2.42,0.36-4.14
	c0.54-2.16,0.72-5.94,0.72-5.94c4.5-20.17,1.63-22.09,3.42-27.91c1.44-4.68,2.88-15.13,5.58-16.39c3.73-1.74,17.11-0.36,21.43-0.9
	c4.32-0.54,7.02-1.08,9.54-6.48s15.31-34.75,15.31-34.75l-1.44-22.15c0,0-16.21,24.49-20.89,33.85c-4.68,9.36-5.04,7.02-9.36,6.12
	c-4.32-0.9-13.68-6.12-17.83-7.02c-4.14-0.9-7.03,0.36-8.47,1.44c-1.44,1.08-4.78,11.7-21.42,11.7c-10.98,0-15.55-16.68-16.81-18.3
	s-8.42-2.29-14.7-8.89c-6.75-7.1-12.06-10.8-15.13-15.13C76.85,80.75,61.19,55,60.46,53.02L50.56,61.3z"/>
<path class="st2" d="M100.44,207.87c-1.37-0.3-1.62,1.8-1.8,3.6c-0.18,1.8,1.08,5.58,0.9,6.84s1.26,12.78,1.26,14.95
	c0,2.16-0.54,4.68,0,6.48c0.54,1.8,3.82,25.93,3.89,27.37c0.07,1.44-0.48,8.82,0.43,10.44c0.91,1.62,2.49,3.06,2.96,4.5
	c0.47,1.44,2.63,6.12,2.99,8.28c0.36,2.16,3.06,18.19,3.24,19.09c0.18,0.9-0.9,4.5,1.08,3.6c1.98-0.9,7.2-4.32,8.82-4.86
	s4.68,0.18,5.58,1.08s4.5,6.12,5.58,6.66c1.08,0.54,2.7,0.54,2.88-1.8c0.18-2.34-1.26-3.96-0.72-6.12c0.54-2.16,1.44-3.06,0.54-4.86
	c-0.9-1.8-1.08-1.62-1.08-2.88c0-1.26-1.44-27.19-1.62-29.17s-0.18-10.98-0.18-10.98l0.36-30.07c0,0,5.22-4.32,7.2-5.94
	c1.98-1.62,4.86-4.86,5.04-5.94c0.18-1.08,2.52-3.42,2.34-5.58s0.18-9.01-1.08-9s-14.95,1.26-18.37,1.26
	c-3.42,0-14.05,0.72-16.75,1.26C111.24,206.61,102.06,208.23,100.44,207.87z"/>
<path class="st13" d="M86.75,140.02c0,0,13.49,4.43,13.86,4.45c0.37,0.02,2.89-12.07,2.89-12.07l-2.52-18.7l-10.89,3.42
	L86.75,140.02z"/>
<path class="st30" d="M114.75,107.74c0,0-2.24,1.52-4.43,1.98c-2.19,0.46,4.27,14.3,9.57,16.15c5.31,1.85,21.22,1.61,24.34-3
	c3.11-4.61,3.11-7.5,3.11-7.5s-6.49-2.41-6.22-10.59c0.09-2.66-25.43-3.24-25.43-3.24"/>
<path class="st33" d="M86.75,110.83c0,0-4.32,14.99-3.78,23.04c0.54,8.05,8.1,9.54,10.08-2.29
	C95.04,119.74,92.88,99.96,86.75,110.83z"/>
<path class="st19" d="M87.03,113.11c0,0-3.57,12.38-3.12,19.02c0.45,6.64,6.69,7.88,8.33-1.89
	C93.87,120.47,92.09,104.14,87.03,113.11z"/>
<path class="st34" d="M115.71,107.04c0,0,1.76,6.79,3.83,8.93c2.07,2.13,10.45,6.13,15.94,1.06c5.48-5.06,5.17-8.79,5.07-9.46
	C140.44,106.91,115.71,107.04,115.71,107.04z"/>
<path class="st33" d="M109.64,108.12c0,0-4.26-1.56-4.73-1.56s-0.19,1.3-0.19,1.3s2.46,11.85,10.18,17.62
	c5.63,4.2,16.05,6.62,26.1,0.13c8.22-5.3,9.17-9.8,9.55-10.38c0.34-0.53,0.65-0.83,0.19-0.83c-0.46,0-4.59-1.25-4.59-1.25
	s-3.61,6.77-10.75,9.64c-5.97,2.4-15.66,1.76-20.5-4.07C109.92,112.68,109.64,108.12,109.64,108.12z"/>
<path class="st13" d="M110.16,107.75c0,0-4.14-1.52-4.59-1.52s-0.18,1.26-0.18,1.26s2.39,11.52,9.89,17.11
	c5.47,4.08,15.59,6.43,25.36,0.13c7.98-5.15,8.91-9.52,9.27-10.08c0.33-0.51,0.63-0.81,0.18-0.81c-0.45,0-4.46-1.22-4.46-1.22
	s-3.51,6.57-10.44,9.36c-5.8,2.33-15.22,1.71-19.91-3.96C110.43,112.18,110.16,107.75,110.16,107.75z"/>
<path class="st30" d="M99.54,104.52c0,0,4.33,16.21,5.77,20.89s6.46,10.16,12.71,11.78c2.01,0.52,10.76,2.86,18.79,1
	c0,0,8.82-0.54,13.96-7.25c1.87-2.44,9.22-15.5,9.22-15.5l16.96,6.58c0,0,2.17,3.54-8.27,22.64c0,0-6.71,0.51-7.38,0.91
	s-3.35,1.94-3.89,3.61c-0.54,1.67-3.51,23.54-4.3,25.29c-0.79,1.76-5.78-1.87-29.64-2.2c-8.91-0.12-24.78,1.51-24.76,0.29
	c0.01-1.22,0.98-20.76-1.84-27.93c-2.82-7.16-13.78-22.14-14.58-23.63s-5.39-7.17-5.39-7.17l-1.74-2.31c0,0,8.49-16.6,9.3-21.46
	C84.46,90.07,98.82,102.9,99.54,104.52z"/>
<g>
	<path class="st35" d="M104.81,144.12l1.78,0.34c0.3,0.06,0.59-0.16,0.65-0.49c0.06-0.33-0.12-0.64-0.42-0.7l-1.78-0.34
		c-0.29-0.06-0.59,0.16-0.65,0.49C104.33,143.75,104.51,144.06,104.81,144.12z"/>
	<path class="st35" d="M109.2,144.97l1.78,0.34c0.3,0.06,0.59-0.16,0.65-0.49c0.06-0.33-0.12-0.64-0.42-0.7l-1.78-0.34
		c-0.29-0.06-0.59,0.16-0.65,0.49C108.72,144.6,108.91,144.91,109.2,144.97z"/>
	<path class="st35" d="M113.28,146.02l1.78,0.34c0.3,0.06,0.59-0.16,0.65-0.49c0.06-0.33-0.12-0.64-0.42-0.7l-1.78-0.35
		c-0.3-0.06-0.59,0.16-0.65,0.49C112.79,145.65,112.98,145.96,113.28,146.02z"/>
	<path class="st35" d="M117.63,146.86l1.78,0.34c0.3,0.06,0.59-0.16,0.65-0.49c0.06-0.33-0.12-0.64-0.42-0.7l-1.78-0.35
		c-0.29-0.06-0.59,0.16-0.65,0.49C117.15,146.49,117.34,146.8,117.63,146.86z"/>
	<path class="st35" d="M122.16,147.59l1.81,0.12c0.3,0.02,0.56-0.24,0.58-0.57c0.02-0.34-0.2-0.62-0.5-0.64l-1.81-0.12
		c-0.3-0.02-0.56,0.24-0.58,0.57C121.63,147.28,121.86,147.57,122.16,147.59z"/>
	<path class="st35" d="M126.63,147.89l1.81,0.12c0.3,0.02,0.56-0.24,0.58-0.57c0.02-0.34-0.2-0.62-0.5-0.64l-1.81-0.12
		c-0.3-0.02-0.56,0.24-0.58,0.57C126.1,147.58,126.33,147.87,126.63,147.89z"/>
	<path class="st35" d="M130.84,148.77l1.81-0.17c0.3-0.03,0.52-0.32,0.48-0.66c-0.03-0.33-0.3-0.58-0.6-0.55l-1.81,0.17
		c-0.3,0.03-0.52,0.32-0.48,0.66C130.27,148.55,130.54,148.8,130.84,148.77z"/>
	<path class="st35" d="M135.25,148.34l1.81-0.17c0.3-0.03,0.52-0.32,0.48-0.66c-0.03-0.33-0.3-0.58-0.6-0.55l-1.81,0.17
		c-0.3,0.03-0.52,0.32-0.49,0.66C134.69,148.13,134.95,148.37,135.25,148.34z"/>
	<path class="st35" d="M140.07,147.63l1.81-0.17c0.3-0.03,0.52-0.32,0.48-0.66c-0.03-0.34-0.3-0.58-0.6-0.55l-1.81,0.17
		c-0.3,0.03-0.52,0.32-0.48,0.66C139.51,147.41,139.77,147.65,140.07,147.63z"/>
	<path class="st35" d="M144.53,147.2l1.81-0.17c0.3-0.03,0.52-0.32,0.48-0.66c-0.03-0.33-0.3-0.58-0.6-0.55l-1.81,0.17
		c-0.3,0.03-0.52,0.32-0.48,0.66C143.96,146.98,144.23,147.23,144.53,147.2z"/>
	<path class="st35" d="M148.73,147.06l1.81-0.17c0.3-0.03,0.52-0.32,0.48-0.66c-0.03-0.33-0.3-0.58-0.6-0.55l-1.81,0.17
		c-0.3,0.03-0.52,0.32-0.48,0.66C148.16,146.84,148.43,147.09,148.73,147.06z"/>
	<path class="st35" d="M104.67,146.18c0.06-0.33-0.12-0.64-0.42-0.7l-1.78-0.34c-0.3-0.06-0.59,0.16-0.65,0.49
		c-0.06,0.33,0.12,0.64,0.42,0.7l1.78,0.34C104.32,146.73,104.61,146.51,104.67,146.18z"/>
	<path class="st35" d="M106.22,146.48c-0.06,0.33,0.12,0.64,0.42,0.7l1.78,0.34c0.29,0.06,0.59-0.16,0.65-0.49
		c0.06-0.33-0.12-0.64-0.42-0.7l-1.78-0.35C106.57,145.93,106.28,146.15,106.22,146.48z"/>
	<path class="st35" d="M110.94,147.04c-0.3-0.06-0.59,0.16-0.65,0.49c-0.06,0.33,0.12,0.64,0.42,0.7l1.78,0.34
		c0.29,0.06,0.59-0.16,0.65-0.49c0.06-0.33-0.12-0.64-0.42-0.7L110.94,147.04z"/>
	<path class="st35" d="M115.3,147.88c-0.3-0.06-0.59,0.16-0.65,0.49c-0.06,0.33,0.12,0.64,0.42,0.7l1.78,0.34
		c0.3,0.06,0.59-0.16,0.65-0.49c0.06-0.33-0.12-0.64-0.42-0.7L115.3,147.88z"/>
	<path class="st35" d="M122.28,149.66c0.02-0.34-0.2-0.62-0.5-0.64l-1.81-0.12c-0.3-0.02-0.56,0.24-0.58,0.57
		c-0.02,0.33,0.2,0.62,0.5,0.64l1.81,0.12C122,150.25,122.26,149.99,122.28,149.66z"/>
	<path class="st35" d="M123.85,149.76c-0.02,0.33,0.2,0.62,0.5,0.64l1.81,0.12c0.3,0.02,0.56-0.24,0.58-0.57
		c0.02-0.33-0.2-0.62-0.5-0.64l-1.81-0.12C124.14,149.17,123.87,149.43,123.85,149.76z"/>
	<path class="st35" d="M128.88,150.41c-0.3,0.03-0.52,0.32-0.48,0.66c0.03,0.33,0.3,0.58,0.6,0.55l1.81-0.17
		c0.3-0.03,0.52-0.32,0.48-0.66c-0.03-0.33-0.3-0.58-0.6-0.55L128.88,150.41z"/>
	<path class="st35" d="M133.3,149.99c-0.3,0.03-0.52,0.32-0.48,0.66c0.03,0.33,0.3,0.58,0.6,0.55l1.81-0.17
		c0.3-0.03,0.52-0.32,0.48-0.66c-0.03-0.33-0.3-0.58-0.6-0.55L133.3,149.99z"/>
	<path class="st35" d="M140.53,149.65c-0.03-0.33-0.3-0.58-0.6-0.55l-1.81,0.17c-0.3,0.03-0.52,0.32-0.48,0.66
		c0.03,0.33,0.3,0.58,0.6,0.55l1.81-0.17C140.34,150.27,140.56,149.98,140.53,149.65z"/>
	<path class="st35" d="M142.09,149.5c0.03,0.33,0.3,0.58,0.6,0.55l1.81-0.17c0.3-0.03,0.52-0.32,0.48-0.66
		c-0.03-0.33-0.3-0.58-0.6-0.55l-1.81,0.17C142.28,148.87,142.06,149.16,142.09,149.5z"/>
	<path class="st35" d="M146.78,148.7c-0.3,0.03-0.52,0.32-0.48,0.66c0.03,0.34,0.3,0.58,0.6,0.55l1.81-0.17
		c0.3-0.03,0.52-0.32,0.48-0.66c-0.03-0.33-0.3-0.58-0.6-0.55L146.78,148.7z"/>
	<path class="st35" d="M106.3,148.58l-1.78-0.34c-0.29-0.06-0.59,0.16-0.65,0.49c-0.06,0.33,0.12,0.64,0.42,0.7l1.78,0.34
		c0.3,0.06,0.59-0.16,0.65-0.49C106.79,148.95,106.6,148.63,106.3,148.58z"/>
	<path class="st35" d="M110.7,149.43l-1.78-0.34c-0.3-0.06-0.59,0.16-0.65,0.49c-0.06,0.33,0.12,0.64,0.42,0.7l1.78,0.35
		c0.3,0.06,0.59-0.16,0.65-0.49C111.18,149.8,111,149.48,110.7,149.43z"/>
	<path class="st35" d="M114.77,150.48l-1.78-0.34c-0.3-0.06-0.59,0.16-0.65,0.49c-0.06,0.33,0.12,0.64,0.42,0.7l1.78,0.34
		c0.3,0.06,0.59-0.16,0.65-0.49C115.25,150.85,115.07,150.54,114.77,150.48z"/>
	<path class="st35" d="M119.13,151.32l-1.78-0.34c-0.29-0.06-0.59,0.16-0.65,0.49c-0.06,0.33,0.12,0.64,0.42,0.7l1.78,0.35
		c0.3,0.06,0.59-0.16,0.65-0.49C119.61,151.69,119.42,151.38,119.13,151.32z"/>
	<path class="st35" d="M124.2,151.83l-1.81-0.12c-0.3-0.02-0.56,0.24-0.58,0.57c-0.02,0.33,0.2,0.62,0.5,0.64l1.81,0.12
		c0.3,0.02,0.56-0.24,0.58-0.57C124.72,152.14,124.5,151.85,124.2,151.83z"/>
	<path class="st35" d="M128.66,152.13l-1.81-0.12c-0.3-0.02-0.56,0.24-0.58,0.57c-0.02,0.33,0.2,0.62,0.5,0.64l1.81,0.12
		c0.3,0.02,0.56-0.24,0.58-0.57C129.19,152.44,128.96,152.15,128.66,152.13z"/>
	<path class="st35" d="M133.53,152.62l-1.81,0.17c-0.3,0.03-0.52,0.32-0.48,0.66c0.03,0.33,0.3,0.58,0.6,0.55l1.81-0.17
		c0.3-0.03,0.52-0.32,0.48-0.66C134.1,152.84,133.83,152.59,133.53,152.62z"/>
	<path class="st35" d="M137.95,152.2l-1.81,0.17c-0.3,0.03-0.52,0.32-0.49,0.66c0.03,0.33,0.3,0.58,0.6,0.55l1.81-0.17
		c0.3-0.03,0.52-0.32,0.48-0.66C138.52,152.42,138.25,152.17,137.95,152.2z"/>
	<path class="st35" d="M142.77,151.48l-1.81,0.17c-0.3,0.03-0.52,0.32-0.48,0.66c0.03,0.33,0.3,0.58,0.6,0.55l1.81-0.17
		c0.3-0.03,0.52-0.32,0.48-0.66C143.34,151.7,143.07,151.45,142.77,151.48z"/>
	<path class="st35" d="M147.22,151.06l-1.81,0.17c-0.3,0.03-0.52,0.32-0.48,0.66c0.03,0.33,0.3,0.58,0.6,0.55l1.81-0.17
		c0.3-0.03,0.52-0.32,0.48-0.66C147.79,151.28,147.52,151.03,147.22,151.06z"/>
	<path class="st35" d="M151.43,150.92l-1.81,0.17c-0.3,0.03-0.52,0.32-0.48,0.66c0.03,0.33,0.3,0.58,0.6,0.55l1.81-0.17
		c0.3-0.03,0.52-0.32,0.48-0.66C151.99,151.14,151.72,150.89,151.43,150.92z"/>
	<path class="st35" d="M104.68,150.92l-1.78-0.34c-0.29-0.06-0.59,0.16-0.65,0.49c-0.06,0.33,0.12,0.64,0.42,0.7l1.78,0.34
		c0.29,0.06,0.59-0.16,0.65-0.49C105.17,151.29,104.98,150.98,104.68,150.92z"/>
	<path class="st35" d="M109.08,151.77l-1.78-0.34c-0.29-0.06-0.59,0.16-0.65,0.49c-0.06,0.33,0.12,0.64,0.42,0.7l1.78,0.35
		c0.3,0.06,0.59-0.16,0.65-0.49C109.56,152.14,109.38,151.83,109.08,151.77z"/>
	<path class="st35" d="M113.15,152.82l-1.78-0.34c-0.3-0.06-0.59,0.16-0.65,0.49c-0.06,0.33,0.12,0.64,0.42,0.7l1.78,0.34
		c0.29,0.06,0.59-0.16,0.65-0.49C113.63,153.19,113.45,152.88,113.15,152.82z"/>
	<path class="st35" d="M117.51,153.67l-1.78-0.34c-0.29-0.06-0.59,0.16-0.65,0.49c-0.06,0.33,0.12,0.64,0.42,0.7l1.78,0.35
		c0.3,0.06,0.59-0.16,0.65-0.49C117.99,154.04,117.8,153.72,117.51,153.67z"/>
	<path class="st35" d="M122.88,154.36l-1.81-0.12c-0.3-0.02-0.56,0.24-0.58,0.57c-0.02,0.33,0.2,0.62,0.5,0.64l1.81,0.12
		c0.3,0.02,0.56-0.24,0.58-0.57C123.4,154.66,123.18,154.38,122.88,154.36z"/>
	<path class="st35" d="M127.35,154.66l-1.81-0.12c-0.3-0.02-0.56,0.24-0.58,0.57c-0.02,0.33,0.2,0.62,0.5,0.64l1.81,0.12
		c0.3,0.02,0.56-0.24,0.58-0.57C127.87,154.96,127.65,154.68,127.35,154.66z"/>
	<path class="st35" d="M132.64,155.33l-1.81,0.17c-0.3,0.03-0.52,0.32-0.48,0.66c0.03,0.33,0.3,0.58,0.6,0.55l1.81-0.17
		c0.3-0.03,0.52-0.32,0.48-0.66C133.2,155.55,132.94,155.3,132.64,155.33z"/>
	<path class="st35" d="M137.05,154.91l-1.81,0.17c-0.3,0.03-0.52,0.32-0.48,0.66c0.03,0.33,0.3,0.58,0.6,0.55l1.81-0.17
		c0.3-0.03,0.52-0.32,0.48-0.66C137.62,155.13,137.35,154.88,137.05,154.91z"/>
	<path class="st35" d="M141.87,154.19l-1.81,0.17c-0.3,0.03-0.52,0.32-0.48,0.66c0.03,0.33,0.3,0.58,0.6,0.55l1.81-0.17
		c0.3-0.03,0.52-0.32,0.48-0.66C142.44,154.41,142.17,154.16,141.87,154.19z"/>
	<path class="st35" d="M146.33,153.76l-1.81,0.17c-0.3,0.03-0.52,0.32-0.48,0.66c0.03,0.33,0.3,0.58,0.6,0.55l1.81-0.17
		c0.3-0.03,0.52-0.32,0.48-0.66C146.9,153.98,146.63,153.74,146.33,153.76z"/>
	<path class="st35" d="M150.53,153.62l-1.81,0.17c-0.3,0.03-0.52,0.32-0.49,0.66c0.03,0.33,0.3,0.58,0.6,0.55l1.81-0.17
		c0.3-0.03,0.52-0.32,0.48-0.66C151.1,153.84,150.83,153.6,150.53,153.62z"/>
</g>
<path class="st33" d="M97.62,151.2c0,0-6.35,0.61-8.07,1.27c-1.72,0.66-5.44,3.1-5.44,3.1v4.45c0,0,4.79-3.1,6.75-3.31
	c1.97-0.2,8.45-0.69,8.45-0.69l0.45-4.82H97.62z"/>
<path class="st33" d="M96.62,177.53c0,0-6.35,0.61-8.07,1.27c-1.72,0.66-5.44,3.1-5.44,3.1v4.45c0,0,4.79-3.1,6.75-3.31
	c1.97-0.2,8.89-0.68,8.89-0.68v-4.84H96.62z"/>
<path class="st32" d="M97.61,102.3c1.17,1,2.11,2.75,4,1.67c1.89-1.08,2.57,0,2.7,0.54c0.14,0.54,0.3,2.31,0.34,2.7
	c0.04,0.39,1.42,7.83,1.42,7.83"/>
<g>
	<path class="st36" d="M129.65,145.5c-8.24,0-16.79-1.89-22.75-6.47c-12.6-9.7-14.38-40.42-14.43-41.67l2.55,2.46
		c0.01,0.29,1.4,28.41,13.2,37.5c12.06,9.28,36.42,6.67,43.19-0.06c6.96-6.92,12.42-20.2,12.47-20.34l2,0.81
		c-0.23,0.56-5.67,13.82-12.95,21.05C148.89,142.81,139.48,145.5,129.65,145.5z"/>
</g>
<ellipse class="st37" cx="154.12" cy="116.92" rx="1.81" ry="1.63"/>
<ellipse class="st37" cx="152.76" cy="121.56" rx="2.12" ry="1.91"/>
<ellipse transform="matrix(0.8489 -0.5286 0.5286 0.8489 -42.6113 71.5005)" class="st37" cx="103.74" cy="110.27" rx="1.81" ry="1.63"/>
<ellipse transform="matrix(0.8488 -0.5286 0.5286 0.8488 -44.8817 72.901)" class="st37" cx="105.04" cy="114.93" rx="2.12" ry="1.91"/>
<path class="st13" d="M105.57,106.23l-5.18,29.76l-3.11,9.99c0,0,0.68,12.83,1.35,12.83s5.67-16.48,6.48-21.07
	c0.81-4.59,5.54-29.04,5.54-29.71c0-0.68-2.3-2.03-2.63-2.03C107.69,106,106.02,106.05,105.57,106.23z"/>
<path class="st33" d="M108.43,105.6c0,0-2.7-0.17-2.97-0.09c-0.27,0.09-0.88,3.36-1.01,3.61c-0.14,0.26,2.36,0.6,3.51,0.77
	c1.15,0.17,2.3,0.21,2.63-0.64c0.34-0.85,0.74-2.04,0.2-2.51C110.25,106.28,109.85,105.81,108.43,105.6z"/>
<path class="st13" d="M145.64,112.08c0,0,8.01,53.56,8.28,56.13s1.98-6.16,2.52-8.46c0.54-2.3-2.57-27.69-2.7-29.98
	c-0.14-2.3-1.35-14.59-1.62-16.07C151.85,112.21,146.99,111.4,145.64,112.08z"/>
<path class="st33" d="M279.43,93.6c0,0-9.07-1.63-12.82,4.6c-3.75,6.23-5.61,39.96-5.61,39.96s2.9,40.31,4.87,44.38
	c1.27,2.62,13.46,4.47,13.85,4.36c0.39-0.11,31.61-1.42,31.61-1.42s-6.59-37.66-7.25-41.3c-0.66-3.63,1.35-4.57-0.08-6.06
	c-1.43-1.48-3.42-7.41-3.42-7.41s-5.93-20.09-6.71-21.73c-0.78-1.65,0.2-1.59-1.05-3.52C291.57,103.52,290.56,96.41,279.43,93.6z"/>
<path class="st33" d="M148.55,110.57c0,0,2.91,0.29,3.19,0.42c0.28,0.13,0.41,3.46,0.52,3.74c0.1,0.28-2.62,0.19-3.87,0.16
	c-1.25-0.03-2.49-0.18-2.71-1.08c-0.23-0.9-0.47-2.14,0.18-2.51C146.49,110.93,147,110.54,148.55,110.57z"/>
<path class="st30" d="M205.26,83.85c0-0.2,1.45-5.18,1.97-6.44c2.16-5.21,3.23-8.7,3.52-13.02c0.28-4.32-0.78-8.38,0.35-8.51
	c3.09-0.35,3.34,5.96,3.45,8.7c0.09,2.22-0.98,10.24-0.7,10.9c0.28,0.66,0.07,7.9,0,9.83c-0.07,1.93-2.11,5.86-4.67,10.18
	c-2.19,3.7-2.72,8.15-2.72,8.15L205.26,83.85z"/>
<path class="st30" d="M265.2,135.49c0,0,6.47,3.72,7.92,2.16c1.45-1.56-0.22-3.9-0.22-3.9l-1.15-2.1c0,0-2.53-0.69-2.59-2.61
	c-0.06-1.92,0.46-3.97,1.39-3.49c0.94,0.49,1.1-1.9,0.89-3.51c-0.22-1.61-0.22-6.04,0.68-7.62c0.9-1.58,2.46,1.76,4.37,2.89
	c1.91,1.13,6.96,3.34,9.15,3.27c2.2-0.07,3.69,0.44,3.78,0.83c0.09,0.4,1.07,4.88,1.19,5.41c0.12,0.53,2.96,2.09-0.01,9.4
	c-1.19,2.93-1.26,6.28,2.88,8.24c1.59,0.75,3.78,2.56,3.78,2.56s-7.18,3.85-7.83,4.05c-0.65,0.2-18.68-3.86-19.12-4.59
	C269.86,145.75,265.2,135.49,265.2,135.49z"/>
<path class="st19" d="M142.55,192.14c-2.21-0.43-7.63,0.37-8.38,0.56c-0.74,0.19-6.94,6.21-8.34,7.7
	c-1.4,1.49,0.09,12.97,0.45,18.19c0.36,5.21,1.36,22.15,3.35,28.48c1.99,6.33,3.44,9.61,3.98,12.62c0.54,3.01-0.36,3.01,1.08,3.94
	c1.45,0.93,2.56,0.56,2.91,1.67c0.35,1.12,3.06-1.67,3.96-5.03c0.9-3.35,7.59-5.59,10.31-5.21c2.71,0.37,3.25,4.65,3.44,2.79
	c0.18-1.86-0.77-3.35-0.3-4.84c0.48-1.49,0.88-4.47,0.32-8.75c-0.57-4.28-1.07-23.31-2.4-29.37c-1.36-6.21-2.11-17.05-3.25-18.52
	C147.92,194.11,146.43,192.89,142.55,192.14z"/>
<path class="st32" d="M262.18,173.18c0,0,0.83,7.99,1.33,9.45c1.04,3.06-0.92,11.38-3.08,14.4c-1.5,2.09-2.97,6.54-2.97,6.54
	s-3.65,3.87,1.35,5.22c5,1.35,18.23,4.05,18.23,4.05s6.89,2.7,8.1,3.51c1.22,0.81,7.7,5.54,8.24,4.32c0.54-1.22,2.39-6.03,2.25-8.46
	c-0.14-2.43-0.9-10.4-0.9-12.42s-0.54-14.9-0.54-14.9l0.16-5.67L262.18,173.18z"/>
<path class="st30" d="M301.89,189.57c0,0,3.26,12.9,3.53,13.54c0.27,0.63,2.41,19.3,2.41,20.56c0,1.26,1.08,11.87,1.08,11.87
	l-1.35,5.56c0,0,2.97,4.55,3.38,4.8c0.41,0.25,7.83-1.77,7.83-2.65c0-0.88-0.68-9.35-0.68-9.35s-3.24-3.03-3.65-5.56
	c-0.41-2.53-1.63-23.2-2.03-27.11c-0.41-3.92-2.97-17.97-2.97-17.97L301.89,189.57z"/>
<path class="st30" d="M213.16,92.27c0,0,4.86,7.56,6.3,10.8c1.44,3.24,12.24,22.36,13.33,23.87c1.08,1.52,10.44,11.24,12.06,12.5
	s1.08-10.08,1.08-10.08s-10.44-10.07-12.24-13.23c-1.8-3.16-14.47-23.19-14.83-25.53c-0.36-2.34,1.6-6.72,1.6-8.52
	c0-1.8-0.27-5.04-0.45-8.18c-0.18-3.14-0.72-6.92-0.72-6.92s-0.72-2.83-1.62-1.41c-0.9,1.41-4.5,19.9-4.5,26.22"/>
<path class="st30" d="M244.09,126.26c0,0,0.95,13.91,0.95,15.67c0,1.76,3.51,5.14,5.54,5.61c2.03,0.47,3.24,3.37,4.59,3.94
	c1.35,0.57,5.13,6.52,5.27,9.89c0.14,3.38,0,11.61,2.97,12.96s11.75,1.76,18.91,3.78c7.16,2.03,10.26,2.84,12.02,1.62
	c1.76-1.22,2.16-1.89,2.16-1.89s0.54,5,0.41,6.35c-0.14,1.35,0.95,6.48,0.95,6.89s2.43,0.41,4.86-1.22
	c2.43-1.62,8.64-6.35,8.64-6.35s-2.7-20.39-4.73-25.66c-2.03-5.27-7.7-11.22-8.64-11.48c-0.95-0.26-6.89,6.51-16.75,3.05
	c-9.86-3.45-13.23-13.04-13.64-13.72c-0.41-0.68-7.7-2.03-11.07-4.05c-3.38-2.03-10.4-5-10.94-5.13
	C245.03,126.39,244.09,126.26,244.09,126.26z"/>
<path class="st32" d="M260.42,133.34c0,0,0.02,0.08,0.06,0.24c0.48,1.72,3.66,12.39,10.02,16.77c6.93,4.77,11.12,6.17,11.12,6.17
	s13.82-1.58,17.6-3.74c3.78-2.16,3.12-1.96,3.12-1.96l-2.67-3.45l-13.32,3.24l-8.19-1.53l-7.29-6.12l-3.6-7.02l-0.54-0.81"/>
<path class="st2" d="M309.61,294.04c0,0-1.73,34.12-1.87,34.79c-0.14,0.67-1.48,10.07,2.02,10.36c3.5,0.28,19.39,1.75,21.69,1.65
	c2.3-0.11,4.05,0.1,3.97-1.25c-0.08-1.35,1.01-27.13,1.22-29.28s1.2,0.32,1.08-3.47c-0.11-3.79-0.26-6.77-0.24-7.31
	c0.02-0.54-0.34-1.64-0.34-1.64S317.18,294.22,309.61,294.04z"/>
<path class="st33" d="M266.54,133.63c0,0,4.86,11.29,13.43,14.22c8.57,2.93,15.72-1.37,17.14-2.59c1.43-1.22,2.68,0.84,3.29,2.08
	c0,0-9.91,8.39-23.43,2.16c-10.84-4.99-13.47-17.12-13.47-17.12S265.26,133.02,266.54,133.63z"/>
<polygon class="st33" points="307.95,225.42 313.5,223.66 314.58,223.41 314.18,220 307.29,222.4 "/>
<path class="st33" d="M314.04,218.99l-0.81,0.76v4.29h1.62l0.68-0.38C315.53,223.66,315.39,219.75,314.04,218.99z"/>
<circle class="st37" cx="264.3" cy="177.44" r="1.08"/>
<circle class="st37" cx="267.9" cy="178.25" r="1.08"/>
<circle class="st37" cx="271.68" cy="179.15" r="1.08"/>
<circle class="st37" cx="275.55" cy="179.69" r="1.08"/>
<circle class="st37" cx="279.6" cy="180.59" r="1.08"/>
<circle class="st37" cx="284.11" cy="181.67" r="1.08"/>
<circle class="st37" cx="288.25" cy="182.58" r="1.08"/>
<circle class="st37" cx="265.74" cy="180.91" r="1.08"/>
<circle class="st37" cx="269.34" cy="181.72" r="1.08"/>
<circle class="st37" cx="273.12" cy="182.62" r="1.08"/>
<circle class="st37" cx="276.99" cy="183.16" r="1.08"/>
<circle class="st37" cx="281.04" cy="184.06" r="1.08"/>
<circle class="st37" cx="285.55" cy="185.14" r="1.08"/>
<circle class="st37" cx="289.69" cy="186.04" r="1.08"/>
<circle class="st37" cx="291.94" cy="183.02" r="1.08"/>
<path class="st30" d="M251.16,253.82c0,0-1.26,0.73-0.72,1.95c0.54,1.22,0.68,4.46,0.54,7.43c-0.14,2.97-0.67,3.78-0.67,3.78
	l8.64,2.3c0,0,2.57,0.81,2.57-0.81c0-1.62,0.9-9.99,1.53-11.07c0.63-1.08-0.05-1.76-0.45-1.89
	C262.18,255.37,251.16,253.82,251.16,253.82z"/>
<path class="st32" d="M250.81,265.05c0,0-2.54,4.77-3.44,5.58c-0.9,0.81-3.6,2.52-3.42,7.02c0.18,4.5,0.45,5.04,4.32,5.67
	c3.87,0.63,8.55-1.71,9.09-2.52c0.54-0.81,4.05-1.81,4.68-5.41c0.63-3.6,0.63-9.35,0.63-10.43c0-1.08-0.56-1.33-0.82-0.71
	c-0.26,0.62-1.7,2.69-2.06,2.69c-0.36,0-0.27-2.7-0.27-3.24s-7.65-2.43-8.82-2.25C249.53,261.62,249.66,263.34,250.81,265.05z"/>
<ellipse transform="matrix(0.0416 -0.9991 0.9991 0.0416 41.9074 576.6849)" class="st33" cx="321.55" cy="266.5" rx="11.21" ry="11.21"/>
<path class="st13" d="M314.57,278.97c-0.12-0.01-0.27,0.04-0.45,0.11c-1.2,0.54-3.47,2.76-3.61,3.23c-0.16,0.53-0.99,10.77-1.3,11.7
	c-0.31,0.93,2.27,0.64,4.44,0.59c2.16-0.05,20.68,3.16,22.84,3.25c2.16,0.09,2.27-2.47,2.31-3.42c0.04-0.95,0.31-10.8-0.29-12.45
	c-0.61-1.65-4.99-3.45-9.72-3.65c-4.72-0.2-11.33-0.61-11.86-0.76"/>
<path class="st33" d="M328.78,340.04c-0.67,0.44,1.8,2.15,4.36,1.88c2.56-0.27,3.16-1.19,2.89-3.84c-0.27-2.65-0.21-4.06-0.21-4.06
	s-1.31-0.34-1.82,0.68C333.48,335.71,332.85,337.38,328.78,340.04z"/>
<g>
	<g>
		<path class="st38" d="M307.53,329.05c0,0,0.37,0.17,0.92,0.39"/>
		<path class="st39" d="M310.34,330.18c0.77,0.27,1.51,0.49,1.94,0.51c0.95,0.04,15.81,0.96,21.28,1.3"/>
		<path class="st38" d="M334.56,332.05c0.63,0.04,1,0.06,1,0.06"/>
	</g>
</g>
<path class="st33" d="M334.82,297.79c0,0,0.13,9.87-0.23,9.86c-0.36-0.01-3.32-0.32-3.32-0.32l-0.22-10.01
	C331.06,297.32,334.02,297.62,334.82,297.79z"/>
<path class="st2" d="M334.14,303.24c0,0,0.19,3.59-0.04,3.58c-0.22-0.01-2.08-0.15-2.08-0.15l-0.24-3.64
	C331.78,303.03,333.63,303.17,334.14,303.24z"/>
<path class="st2" d="M331.51,266.91c-0.23,5.5-4.87,9.77-10.37,9.54c-5.5-0.23-8.67-5.01-8.45-10.51c0.23-5.5,3.78-9.63,9.28-9.4
	C327.47,256.77,331.74,261.41,331.51,266.91z"/>
<path class="st33" d="M323.63,276.07c0,0-7.69-1.31-8.89-7.22c0,0,1.02,5.88,6.08,7.59C325.89,278.15,323.98,276.14,323.63,276.07z"
	/>
<path class="st33" d="M321.46,268.32c0.06,0.24,2.62,1.46,3.61-0.66c0.99-2.12-1.65-3.4-1.65-3.4s1.53,1.95,0.7,2.46
	C323.28,267.23,321.01,266.5,321.46,268.32z"/>
<path class="st2" d="M311.13,239.76l-6.21,91.93c0,0-1.42,2.22-0.11,1.96c1.31-0.26,2.71-1.53,2.71-1.53l6.02-89.54l0.31-4.02
	c0,0-1.16-1.59-1.7-1.54C311.61,237.06,311.3,237.61,311.13,239.76z"/>
<path class="st33" d="M311.06,295.05c0,0-0.01,0.09-0.02,0.27c-0.22,3.12-2.26,31.85-2.3,32.75c-0.04,0.95,2.11,1.29,2.51,1.38
	c0.4,0.09-1.83-1.49-1.57-4.59"/>
<ellipse transform="matrix(0.0416 -0.9991 0.9991 0.0416 -40.678 633.3979)" class="st33" cx="309.82" cy="337.9" rx="4.59" ry="4.59"/>
<ellipse transform="matrix(0.0413 -0.9991 0.9991 0.0413 -40.6047 633.4848)" class="st30" cx="309.82" cy="337.9" rx="1.62" ry="1.62"/>
<path class="st2" d="M108.68,204.52c0,0,1.98-0.86,2.25,0.67c0.27,1.53,1.4,5.13,0.38,5.58s-1.75,0.81-1.75,0.81l-1.07-6.93"/>
<path class="st40" d="M90.09,209.31c0,0,1.94,14.05,2.21,15.4c0.27,1.35,5.43,3.66,6.75,3.51c1.33-0.15,7.53-1.22,9.03-3.65
	c1.5-2.43,2.99-6.48,3.06-8.37c0.07-1.89-1.16-9.4-1.16-9.4l-15.79,1.16L90.09,209.31z"/>
<path class="st33" d="M90.09,209.31c0.54,0.72,11.56-0.9,13.16-0.9c1.6,0,6.72-1.62,6.72-1.62s-0.62-6.85-0.98-7.66
	c-0.36-0.81-0.18-4.23-3.51-4.05c-3.33,0.18-7.92,1.44-9.09,1.98c-1.17,0.54-6.57,3.6-6.75,5.49S89.55,208.59,90.09,209.31z"/>
<path class="st41" d="M92.97,203.55c0,0,5.81-3.42,6.48-1.94c0.68,1.49,0.68,10.13,0.68,10.13s-1.76,2.43-3.38,2.57
	c-1.62,0.14-4.19-3.78-4.05-5.67s-0.01-4.86-0.01-4.86"/>
<path class="st42" d="M98.28,201.57c0,0,1.26,8.82,0.72,9.18c-0.54,0.36-0.63-1.44-0.63-2.25c0-0.81,0.36-6.66-1.08-6.03
	c-1.44,0.63-4.32,1.98-4.32,1.62S96.39,201.03,98.28,201.57z"/>
<path class="st33" d="M90.2,157.25c0.47-0.02-0.41,5.94-0.41,5.94s-0.14-3.92-0.27-4.32s-1.15-0.07-1.15-0.07l-2.03,1.42
	c0,0,2.16-1.96,1.92-1.96C88.04,158.27,88.65,157.32,90.2,157.25z"/>
<path class="st33" d="M86.27,178.69c0.15-0.1,2.38-0.76,2.48-1.06c0.1-0.3-1.22-0.46-1.01-0.76c0.2-0.3,1.11-2.94,1.11-3.95
	c0-1.01-0.2,0.46-0.81,1.67c-0.61,1.22-1.56,2.53-1.11,2.79c0.45,0.25-2.69,1.97-1.93,1.87C85.76,179.14,86.27,178.69,86.27,178.69z
	"/>
<path class="st33" d="M84.23,146.94c0,0,0.54-0.79,0.99-1.62c0.45-0.83,0.9-1.37,1.53-1.46s1.85-0.99,2.1-1.35
	c0.24-0.36,6.19-0.18,6.64-0.18c0.45,0-0.23-1.1-0.23-1.1s-5.62,0.02-6.07,0.02s-2.33,1.62-2.83,1.8
	C85.85,143.23,84.16,145.33,84.23,146.94z"/>
<path class="st33" d="M83.51,193.11c0.29,1.31,0.67,2.25,1.37,1.8c0.7-0.45,1.06-1.89,2.95-2.7c1.89-0.81,2.34-1.35,2.34-1.35
	s-2.16,0.63-2.88,0.99c-0.72,0.36-2.16,2.07-2.79,1.98c-0.63-0.09-0.99-2.52-0.99-2.97C83.51,190.41,83.51,193.11,83.51,193.11z"/>
<path class="st33" d="M105.49,110.27c-0.1,0.28-1.32,9.46-1.12,8.38c0.2-1.08,1.12-6.84,1.83-7.29c0.71-0.45,2.05-0.63,2.05-0.63
	l0.29,0.9l0.23-0.81L105.49,110.27z"/>
<path class="st37" d="M54.7,70.75c0,0,6.03-7.02,6.57-8.01c0.54-0.99,2.25-2.43,2.25-3.24s-0.36-1.26-0.36-1.26l-9.18,10.35
	L54.7,70.75z"/>
<path class="st13" d="M64.47,58.06c0,0-10.74,12.32-11.34,12.02c-1.35-0.68-3.92-8.1-3.92-8.1l11.07-9.99
	C60.28,51.98,64.2,56.84,64.47,58.06z"/>
<polygon class="st37" points="199.84,89.47 198.17,92.9 201.28,113.43 202.98,110.27 "/>
<path class="st13" d="M205.33,79.94c0,0-0.68-0.41-1.08,0c-0.41,0.41-5.98,9.03-5.81,9.72c0.17,0.7,3.65,23.63,4.19,22.82
	c0.54-0.81,3.02-5.81,3.33-6.89c0.31-1.08,0.72-2.13,0.59-3.29C206.41,101.14,207.49,96.14,205.33,79.94z"/>
<path class="st33" d="M157.07,151.27c0,0,4.89,0.92,6.13,1.03c2.57,0.22,4.52-3.3,4.52-3.3s-1.67,5.39-5.33,4.58
	c-3.66-0.8-5.47-1.12-5.47-1.12L157.07,151.27z"/>
<path class="st13" d="M91.01,152.8c0,0-0.83,3.38-0.08,3.38s7.17-0.47,7.17-0.47l-0.34-4.09l-5.83,0.69
	C91.94,152.3,91.21,152.46,91.01,152.8z"/>
<path class="st13" d="M98.76,177.92c0,0-2.28,0-2.55,0s-5.78,0.81-6.03,0.95c-0.25,0.14-0.52,0.95-0.52,1.28
	c0,0.34-0.46,1.96,0.28,1.96s5.86-0.18,6.47-0.16c0.61,0.02,2.35,0,2.35,0V177.92z"/>
<path class="st40" d="M154.28,245.78c-0.4-0.86,0.95,3.92-0.54,4.46c-1.49,0.54-10.13,2.43-11.61,2.97
	c-1.49,0.54,4.05-0.54,7.02-0.54s4.73,0.68,5.27-0.68C154.95,250.64,155.36,248.07,154.28,245.78z"/>
<path class="st40" d="M137.67,304.16c-1.46-0.54-4.86-4.63-5-5.17c-0.14-0.54,2.97,1.35,3.65,2.3S138.88,304.61,137.67,304.16z"/>
<path class="st40" d="M105.66,276.7c0.4,1.72,4.59-1.62,5-1.76c0.41-0.14-3.11-2.16-3.11-4.46s-1.35-4.46-1.49-2.84
	C105.93,269.28,105.26,274.95,105.66,276.7z"/>
<path class="st40" d="M134.65,262.61c0,0,1.98-2.52,1.26-3.24c-0.72-0.72-6.93-20.17-7.51-24.49c-0.59-4.32-1.21-7.2-1.21-7.2
	s0.44,9.9,2.42,16.39c1.98,6.48,4.86,13.5,5.04,14.22C134.83,259.01,133.54,261.08,134.65,262.61z"/>
<path class="st40" d="M154.64,147.03c0.03-0.26,0.49,14.03,0.25,15.11c-0.25,1.08-0.26,4.61-0.12,4.87
	c0.14,0.26,1.62-3.88,1.74-4.15S154.55,147.95,154.64,147.03z"/>
<path class="st43" d="M312.43,259.27l4.77-3.11c0,0,2.49-1.37,6.52-0.67c4.03,0.71,7.77,3.52,8.93,7.8
	c0.73,2.69,0.44,15.32,0.44,15.32"/>
<path class="st30" d="M311.02,281.62c0,0,16.5,1,17.71,1.05c1.22,0.05,4.18,0.31,4.12,1.66c-0.06,1.35,0.25,12.84,0.25,12.84
	s4.42,0.51,5.05,0.44c0.64-0.06,0.43-1.69,0.65-3.58c0.21-1.88,0.03-12.7,0.03-12.7s0.42-1.79-3.93-2.49
	c-4.36-0.7-21.76-1.42-22.57-1.45C311.52,277.36,311.19,279.56,311.02,281.62z"/>
<path class="st37" d="M112.14,205.4c0,0,8.78-0.68,9.66-0.81c0.88-0.14-8.66-0.81-8.96-0.81c-0.29,0-2.32-0.67-2.32-0.67
	L112.14,205.4z"/>
<polyline class="st31" points="249.99,129.6 250.03,129.91 250.07,130.32 252.03,147.87 248.52,145.98 247.7,127.88 "/>
<path class="st31" d="M297.53,184.2l-0.1,2.03h2.97l4.73-2.16l5.2-3.47l-0.34-2.68c0,0-7.16,5.33-8.37,5.6
	C300.4,183.79,297.53,184.2,297.53,184.2z"/>
<path class="st13" d="M248.28,127.66c0,0,1.79,18.94,1.79,19.8c0,0.87-3.09-0.75-4.22-1.68c-1.14-0.94-0.81-3.31-0.81-3.31
	l-1.62-16.2C243.41,126.26,244.55,125.56,248.28,127.66z"/>
<path class="st13" d="M296.93,185.27l0.91,5.81c0,0,1.31,1.22,4.82-0.76c3.51-1.98,8.1-6.12,9-6.48c0.9-0.36-0.32,0-0.32,0
	l-0.41-4.14c0,0-8.01,5.13-9.09,5.49S298.76,186.17,296.93,185.27z"/>
<path class="st44" d="M293.2,214.76c0,0-1.68,3.4-2.12,3.87c-0.44,0.47,2.73-1.17,2.91-1.53c0.18-0.35,0.26-6.75,0.26-6.75
	L293.2,214.76z"/>
<path class="st44" d="M270.41,207.16c0,0,8.62,2.99,9.64,3.45c1.02,0.46-8.58-2.11-9.77-2.23c-1.19-0.12-1.47-0.56-1.47-0.56
	S269.17,206.73,270.41,207.16z"/>
<path class="st40" d="M263.22,203.3c0,0,3.73,3.4,3.73,6.47c0,3.07-0.66,21.5-0.66,21.5l1.87-22.42
	C268.16,208.86,268.04,205.72,263.22,203.3z"/>
<path class="st40" d="M250.87,249.52c-0.24-0.67-0.51,3.15,0.59,3.37c1.1,0.22,2.11,0,2.02-0.33c-0.08-0.33-1.01-8.34-1.01-8.34
	S252.98,255.47,250.87,249.52z"/>
<path class="st40" d="M268.43,219.33c0,0,1.71,8.98,1.68,10.21c-0.03,1.23-1.24-11.93-1.25-12.42c-0.02-0.49,1.38,2.09,1.38,2.09
	l-1.22-9.72L268.43,219.33z"/>
<path class="st40" d="M250.02,263.47c0,0,4.91,1.48,5.72,1.48c0.81,0,2.79,1.44,2.79,1.44l0.83,1.84l3.3-2.38v-2.84
	c0,0-1.33,2.75-2.23,2.75s-1.06-2.61-1.06-2.61l-8.7-2.16C250.66,260.99,248.89,261.63,250.02,263.47z"/>
<path class="st40" d="M262.66,263.02l-0.03-0.01l-0.6-0.18c0,0,0.02,1.31-0.79,2.12c-0.81,0.81-1.26,0.99-1.26,0.99l2.16-0.45"/>
<polyline class="st45" points="252.08,265.04 256.02,266.75 251.15,267.02 255.3,269.48 249.8,269.91 254.4,272.18 248,271.53 
	252.77,273.29 247.37,272.92 "/>
<path class="st46" d="M257.37,265.94l-2.07,6.98c0,0-2.61,1.66-3.42,1.58c-0.81-0.09-6.57-1.08-6.57-1.08s1.44-1.35,2.7-2.7
	c1.26-1.35,3.15-6.43,3.15-6.43l0.35-0.38C251.5,263.91,256.65,265.31,257.37,265.94z"/>
<path class="st31" d="M213.52,87.95c0,0,4.95-2.88,5.58-3.51c0.63-0.63,0.9-3.51,0.9-3.51l-5.09,2.43L213.52,87.95z"/>
<g>
	<path class="st2" d="M262.34,229.63c0,0,4.4,1.51,4.75,4.5c1.52,13.05,2.4,28.1,1.28,40.9c-0.85,9.7-3.37,20.52-4.68,30.53
		c-0.16,1.23-0.78,7.03-1.48,8.06c-0.7,1.03,1.66,2.87,1.66,2.87s8.48,1.27,9.06,1.32c0.58,0.05,2.02-0.37,2.24-1.99
		c0.23-1.62,1.66-6.24,1.66-6.24c2.9-10.46,5.78-20.94,8.4-31.46c0.63-2.53,2.22-9.64,2.8-13.23c1.55-9.62,3.33-19.49,4.28-29.17
		c0.23-2.32-0.98-14.42-0.88-15.16c0.1-0.74-14.4-9.03-14.4-9.03c-6.64-2.01-9.9-3.02-16.27-5.05"/>
	<path class="st30" d="M269.37,315.63c1.51,0.01,4.17-0.05,4.75,0.41c0.58,0.46-1.97,8.03-2.57,10.3c-0.61,2.27-1.12,6.05-1.12,6.05
		s-10.11,0.19-9.93-1.57c0.18-1.76,1.27-9.3,1.43-10.78c0.16-1.49,0.1-2.31,0.38-3.51C262.59,315.32,262.41,315.58,269.37,315.63z"
		/>
	<path class="st32" d="M261.26,326.9c0,0-0.18,0.07-0.42,0.19c-0.46,0.23-1.14,0.69-1.2,1.31c-0.09,0.95-0.78,4.97-1.3,6.15
		c-0.53,1.18-0.9,5.8,1.01,6.77c0.84,0.43,2.61,2.31,4.34,2.47c1.73,0.16,9.03,0,9.03,0s2.81-0.67,3.43-1.98
		c0.63-1.31,1.41-2.92,1.57-3.87c0.16-0.94-0.9-1.18-1.61-1.93c-0.71-0.75-3.66-1.56-4.21-1.61c-0.55-0.05,1.63-5.05-0.73-5.67
		c-2.36-0.62-5.52,0.74-5.52,0.74s-1.75,4.07-2.72,3.99c-0.97-0.09-2.01-0.86-2.01-0.86"/>
	<path class="st40" d="M262.61,314.41c0,0,1.09-0.02,1.81,0.04c0.72,0.06,0.94-0.81,0.94-0.81c-0.77-0.02-1.15-0.03-1.92-0.05
		c0,0,0.88-5.69,1.02-7.01c0.15-1.32-2.12,7.58-2.12,7.58"/>
	<path class="st40" d="M261.4,326.64c0,0-1.87,0.56-1.9,0.83c-0.03,0.27-1.04,2.91-0.67,2.94c0.37,0.03,2.12,0.46,2.31-0.43
		C261.33,329.09,261.4,326.64,261.4,326.64z"/>
	<path class="st40" d="M265.17,329.43c-0.03,0.09-0.07,0.2-0.1,0.31c-0.24,0.85-0.43,2.19-0.01,2.23c0.46,0.04,1.75-0.48,2.22-1.26
		c0.47-0.78,2.8-0.48,3.45-0.42c0.65,0.06,1.08,1.72,1.23,1.33c0.15-0.39,0.6-0.9,0.45-1.82c-0.15-0.93,0.25-1.63-0.43-1.68
		c-0.67-0.05-3.71,0.03-4.61,0.32"/>
	<path class="st45" d="M267.98,331.14c1.05,0.21,1.58,0.32,2.63,0.53c-1.35,0.31-2.02,0.46-3.36,0.77c1.51,0.23,2.26,0.35,3.76,0.58
		c-1.7,0.12-2.55,0.17-4.24,0.29c1.83,0.28,2.75,0.42,4.57,0.7c-1.65,0.1-2.48,0.15-4.13,0.25c2.43,0.22,3.64,0.33,6.06,0.54"/>
	<path class="st46" d="M266,331.73c0,0-2.32,2.48-0.23,2.94s8.8,0.79,8.8,0.79"/>
	<path class="st40" d="M261.04,328.29c0,0,0.03,3.53,0.87,3.61c0.84,0.08,3.63-1.08,3.87-1.91c0.24-0.83,1.27-0.19,1.27-0.19
		s-0.1,2.28-1.16,2.99c-1.06,0.71-2.77,2.02-4.61,0.58c-1.85-1.44-1.46-5.37-1.46-5.37C260.3,328.12,260.55,328.18,261.04,328.29z"
		/>
</g>
<polyline class="st32" points="281.63,156.51 281.78,156.64 284.14,158.74 285.74,155.85 288.44,158.09 290.27,155.23 
	293.34,157.13 294.58,154.62 296.91,155.81 297.52,153.51 300.48,155.12 300.62,152.28 304.19,153.47 302.35,150.82 282.49,154.62 
	281.41,156.35 "/>
<path class="st32" d="M281.62,156.22c-0.32,0.27-2.61,1.69-2.61,1.69l-0.18-2.75l-2.93,0.78l-0.34-2.56l-3.5,0.73l0.18-2.84
	l-2.88,0.41l-0.23-2.7h-2.84l0.41-2.38l-2.52-0.87l0.37-2.15l-2.7-2.43l0.67-1.92l-2.18-2.07l0.82-1.48l-2.1-2.78l-0.13-0.12
	l2.1,0.71l5.54,9.02l8.38,8.75"/>
<path class="st30" d="M115.24,307.13c0,0,12.07-5.76,15.36-4.05c3.28,1.71,3.28,7.81,4.43,8.46c1.15,0.65,2.95,0.73,2.95,0.73
	s1.11,0.65,0.56,1.95c-0.54,1.3-1.29,4.07-2.97,3.09c-1.69-0.98-3.91-6.35-3.91-6.92c0-0.57-1.35-4.64-1.35-4.64
	s-4.39-0.08-4.73-0.08s-7.02,2.2-7.02,2.2"/>
<path class="st30" d="M221.05,80.27c-0.76-2.02-2.21-1.83-2.21-1.83l-2.92,0.95c-0.87-0.54-2.55-1.78-2.44-3.32
	c0.14-2.08-0.42,3.75-1.13,4.58c-0.19,0.22-0.33,0.75-0.43,1.4l-2.54,1.7l2.24,1.78c-0.04,0.86-0.07,1.58-0.12,1.9
	c-0.14,1-0.47,3.99-0.47,3.99s1.5-5.03,5.53-7.25l0,0C218.15,82.57,221.52,81.51,221.05,80.27z"/>
<path class="st19" d="M255.18,201.96c0,0,3.77-1.11,5.76-1.11c1.99,0,6.72,4.45,7.48,6.49c0.76,2.04-0.19,15.75-1.13,23.35
	c-0.95,7.6-3.79,25.08-3.79,25.08s-5.29-0.46-8.32-0.72c-3.03-0.26-4.93-1.19-5.11-3.23c-0.19-2.04,0.19-2.78,0.57-5
	c0.38-2.22,2.46-38.55,3.03-41.7C254.24,201.96,254.05,201.96,255.18,201.96z"/>
<path class="st33" d="M297.25,120.18c0,0,5.4,12.6,10.44,15.49c0,0,3.78,1.5,5.94,0.84c0,0-7.2,4.83-11.88-0.57
	c-4.68-5.4-5.22-15.13-5.22-15.13"/>
<g>
	<path class="st30" d="M117.7,85.3c0,0-0.78-0.62-1.45-0.7c-0.67-0.07-2.03,1-1.84,2.94c0.19,1.94,2.15,2.46,2.15,2.46l-0.25,0.83
		c0,0-2.45-0.55-2.76-3.01c-0.31-2.45,1.21-4.44,2.14-4.57c1.39-0.19,2.22,0.75,2.22,0.75L117.7,85.3z"/>
	<path class="st30" d="M127.33,72.9l-5.79,3.46l-3.99,3.62l-0.61,4.17l-1.28-0.07l-1.59,1.84l0.09,2.75l1.37,1.2
		c0,0,0.24,9.8,0.21,10.01c-0.03,0.2,6.94,6.49,6.94,6.49l11.83-2.19c0,0,1.45,1.49,1.65,1.52c0.2,0.03,4.34-2.49,4.34-2.49
		l2.23-4.48l0.41-4.56l0.94-0.35l1.25-1.82l0.28-1.7l-0.85-1.47l-0.79-0.13c0,0-3.23-6.41-3.28-6.91c-0.05-0.5-1.68-5.52-1.68-5.52
		l-10.54-4.88L127.33,72.9z"/>
	<path class="st30" d="M141.99,89.28c0,0,1.02-0.33,1.74-0.17c0.72,0.16,1.78,1.63,0.94,3.39c-0.85,1.77-3.05,1.6-3.05,1.6
		l-0.02,0.87c0,0,2.73,0.29,3.88-1.92c1.14-2.21,0.23-4.6-0.7-5.03c-1.39-0.65-2.56-0.04-2.56-0.04L141.99,89.28z"/>
	<g>
		<path class="st27" d="M142.53,89.12c0,0,0.07,0.02,0.18,0.05c-0.06-0.81-0.73-2.4-1.43-2.8c-0.78-0.45-1.56-2.24-1.84-2.98
			c-0.28-0.74-0.69,0.39-0.69,0.39c-0.75-0.07-0.82-0.46-1.38-0.64c-0.55-0.18,0.13,0.85,0.13,0.85C128.47,81.59,127.4,75,127.4,75
			c-3.42,2.88-7.46,4.88-8.49,5.13c-1.03,0.25-0.06,0.16-0.06,0.16s-0.31,0.51-0.4,1.37c-0.08,0.71-0.78,2.67-1.04,3.36
			c0.07,0,0.12,0.01,0.12,0.01c0.12,0.58-1.48,6.17-1.7,7.55c-0.23,1.38-0.24,3.78,0.07,4.76c0,0-0.64,2.98,1.61,4.05
			c0,0,2.37,0.58,2.87-0.54c0.5-1.12,0.29-3.92,3.84-3.86c3.59,0.06,4.17,0.09,4.17,0.09l0,0c0,0,0.14,0.03,3.51,0.11
			c3.35,0.09,2.76,4.8,2.88,6.02c0.12,1.22,2.55,1.43,2.55,1.43c2.47-0.3,2.82-3.33,2.82-3.33c0.61-0.82,1.36-3.11,1.58-4.49
			S142.24,89.62,142.53,89.12z"/>
		<path class="st33" d="M142.65,101.27c0.05-0.61-0.08-3.19,0.69-7.09c0,0,0.56-3.54,0.59-4.56l0,0c0,0-0.04-1.53,0.42-3.21
			c0.46-1.68,0.15-6.38-1.01-10.04c-1.22-3.85-3.27-5.92-7.15-7.3c-2.33-0.82-2.32-0.36-3.21-0.53c-0.91-0.18-3.95,0.05-4.87,0.17
			c-0.92,0.13-0.6,0.92-0.18,1.12c0.41,0.21-0.13,0.81-0.13,0.81s-1.19-1.49-2.93-0.76c-1.74,0.73-2.17,2.05-3.41,2.17
			c-1.23,0.12-2.03,1.98-2.51,2.18c-0.48,0.2,0.13,1.71-0.16,2.1c-0.29,0.37-0.38,1.57-0.77,2.29c-0.39,0.72-1.08,1.34-1.11,1.75
			c-0.02,0.38-0.63,4.13-0.71,4.63c-0.29,0.89-0.3,4.52-0.3,4.52c-0.77,1.11-0.6,7.24-0.93,7.75c-1.05,1.65,0.65,1.62,0.83,7.39
			c0,0-0.19,4.36,2.53,6.82c3.46,3.13,5.23,2.61,7.22,2.94c2,0.33,4.82,1.35,9.12-0.44c4.3-1.79,5.12-5.25,5.12-5.25
			C140.95,103.39,142.59,102.06,142.65,101.27z M140.16,101.3c0,0-2.5,3.27-2.82,3.33c0,0-2.79-0.23-2.55-1.43
			c0.36-1.84,1.48-5.92-1.02-5.38c-3.73,0.79-3.59,0.76-4.71,0.45l0,0c0,0-1.08,0.27-3.61-0.66c-4.28-1.57-3.81,1.83-4.31,2.95
			c-0.5,1.12-3.62,0.83-3.62,0.83c-1.13-1.38-1.61-4.05-1.61-4.05c-0.32-0.98-0.3-3.38-0.07-4.76c0.23-1.38,1.7-6.98,1.58-7.56
			c0,0,0.07,0,0,0c0.25-0.69,2.13-1.62,2.21-2.33c0.1-0.86,1.06-2.16,1.06-2.16s-0.97,0.09,0.06-0.16c1.03-0.25,3.24-2.49,6.66-5.37
			c0,0,1.07,6.59,10.09,8.99c0,0-0.68-1.03-0.13-0.85c0.55,0.18,0.63,0.56,1.38,0.64c0,0,0.41-1.13,0.69-0.39
			c0.28,0.74,1.07,2.53,1.84,2.98c0.7,0.4,1.38,1.99,1.43,2.8c-0.11-0.03-0.18-0.05-0.18-0.05c-0.3,0.51-0.57,6.32-0.79,7.7
			S140.77,100.48,140.16,101.3z"/>
	</g>
</g>
<path class="st32" d="M115.38,309.87c0,0,1.08,5,0.41,7.16c-0.68,2.16-1.49,7.29-0.68,5.54c0.81-1.76,1.89-3.92,1.89-3.92
	s0.54,4.73,0.68,5.81c0.14,1.08,0.68,5.27,0,5.67s-3.92,2.84-4.59,3.38s-3.51,5.4-3.65,5.94c-0.14,0.54-0.14,2.57,0,3.65
	c0.14,1.08,2.84,2.7,7.02,2.7s12.83-0.27,12.83-0.27s6.08-2.3,6.75-2.84c0.68-0.54,0.27-1.89,0.27-2.57
	c0-0.68,0.24-11.07,0.12-12.96c-0.12-1.89,1.77-8.91,1.77-10.13c0-1.22-0.27-2.84-0.81-3.11c-0.54-0.27-0.95,0.27-1.22,1.08
	c-0.27,0.81-1.08,6.62-1.08,6.62s-1.89-3.78-1.76-5c0.14-1.22-2.3-9.72-2.7-10.53c-0.41-0.81-1.08-2.16-2.03-1.89
	s-10.26,2.16-11.75,2.84C115.38,307.71,115.15,308.65,115.38,309.87z"/>
<path class="st40" d="M115.38,309.87c0,0,6.11-2.51,8.39-2.91c2.28-0.41,5.39-1.62,5.59-0.95c0.2,0.68,3.54,7.98,3.54,7.98
	s-1.85-8.52-1.99-8.92c-0.14-0.41-0.95-1.49-2.16-1.22c-1.22,0.27-9.06,2.37-9.06,2.37S114.3,305.49,115.38,309.87z"/>
<path class="st40" d="M136.4,313.44c0,0,3.47,0.54,3.15,1.35c-0.32,0.81-1.58,3.38-1.58,3.38s-1.51-0.4-2.21-0.54
	C135.08,317.48,136.4,313.44,136.4,313.44z"/>
<path class="st46" d="M117.82,309.16c0,0,2.16,8.46,2.43,10.26c0.27,1.8,0.54,4.5,0.54,4.5l-0.45,4.14c0,0-0.27,0.9-1.04,1.26
	s-4.19,3.69-4.64,4.05s-2.07,1.71,2.16,2.07c4.23,0.36,6.21-2.34,6.57-2.52c0.36-0.18,3.24-3.87,3.6-4.23
	c0.36-0.36,1.17-3.69,1.17-5.4s-1.89-14.05-1.98-14.77c-0.09-0.72-0.42-1.26-0.42-1.26l-0.57-0.81"/>
<polyline class="st45" points="119.57,310.6 125.24,311.95 121.06,315.27 126.59,317.35 121.73,321.41 126.59,323.16 120.92,327.08 
	125.11,328.7 119.57,329.91 123.77,330.99 118.09,331.94 122.68,332.34 116.6,333.02 121.19,333.48 115.79,334.5 119.71,335.04 "/>
<path class="st40" d="M131.96,309.66c0,0,2.18,5.29,2.79,5.5c0.62,0.21,1.64,0.67,1.64,0.92s1.59,2.08,1.59,2.08
	s-1.43-0.08-1.59,0.8c-0.15,0.87-0.67,3.18-1.08,3.13c-0.41-0.05-3.93-9.14-4.71-13.19"/>
<path class="st30" d="M137.4,265.16c0,0-2.09,0.61-1.42-0.81c0.68-1.42,3.78-5.67,4.25-6.35c0.47-0.68,3.87-3.97,6.21-4.39
	c6.75-1.22,8.79,0.23,9.2,1.76c0.41,1.52-3.86,3.04-4.06,3.11"/>
<path class="st40" d="M137.36,264.85c0,0-2.07,1.14-1.29,2.24c0.79,1.1,1.29,2.8,1.29,2.8l1.8-1.29l-1.55-3.29"/>
<path class="st32" d="M137.13,268.87c0,0,2.71,12.21,2.92,13.91c0.63,5.22,1.05,3.67,3.42,4.94c2.28,1.22,3.58,1.65,6.93,1.08
	c5.32-0.91,7.47-1.07,10.17-2.15c2.17-0.87,0.75-5.23-0.18-7.56c-0.63-1.58-0.05-1.62-1.13-3.6c-1.08-1.98-1.76-5.14-2.03-6.94
	s-1.25-9.81-1.52-10.44c-0.28-0.63-2.44-2.61-3.61-2.61c-1.17,0-6.12,0.18-7.29,1.62c-1.17,1.44-3.24,5.67-3.33,5.9"/>
<polyline class="st45" points="145.28,257.89 150,258.29 145.68,259.97 150.41,260.72 146.22,262.48 151.76,262.7 147.51,265.85 
	152.3,265.85 148.11,268.33 152.84,266.53 "/>
<path class="st46" d="M154.46,268.25c0,0,0.09,0.3,0,0.33c-0.87,0.3-5.98,1.27-6.35,2c-0.41,0.81-1.62,2.8-1.62,2.8
	s-1.08-8.34-1.22-8.74s-1.89-7.16-1.89-7.16s4.46-1.76,5.94-1.62c1.49,0.14,3.51,2.03,3.51,2.03s-1.22,2.35-0.54,4.28
	c0.68,1.93,2.16,6.41,2.16,6.41"/>
<path class="st40" d="M143.11,258.15c0,0-1.85,1.95-2.21,2.82c-0.36,0.87-3.34,4.77-3.7,4.72c-0.36-0.05,0.51,2.67,2.77,2.93
	c2.26,0.26,2.93,0.97,3.03-2.21c0.1-3.18,0.46-8.52,0.46-8.52"/>
<path class="st40" d="M142.49,263.47l1.12-1.08c0,0-0.68-3.92,0.95-4.46s3.92-1.89,6.89-1.49s3.88,3.1,3.88,3.1s0.58-0.53,0.58-0.94
	s-0.14-2.24-0.14-2.24s-2.57-1.82-4.05-1.82s-7.19,0.46-8.51,2.7C141.89,259.49,141.63,261.04,142.49,263.47z"/>
<path class="st32" d="M54.14,69.13c0.36,1.01,0,1.28,0.14,2.16c0.14,0.88,0.88,1.32,1.28,1.82c0.4,0.51,1.76,1.89,1.89,1.42"/>
<path class="st32" d="M64.11,59.49c0.3-0.02,3.27,3.16,3.07,3.7s0.4,2.11,0.57,2.39c0.17,0.28-1.99,0.72-1.99,0.72"/>
<path class="st32" d="M77.66,81.65c0,0,2.07,1.46,2.2,2.07s0.14,1.69,0.27,2.16s-0.47,1.62-1.01,1.35"/>
<path class="st32" d="M178.65,122.48c0.14-0.68,0.41,0.07,0.41-0.74s-0.81-1.15,0.27-1.89c1.08-0.74,1.69-0.2,1.89-0.81
	s0.2-1.76,1.15-2.36s2.9-2.84,3.31-3.11s4.12,1.28,3.11,3.17c-1.01,1.89-4.12,6.68-4.25,7.19"/>
<path class="st32" d="M180.75,123.09c-1.22-0.41-1.82-2.23-2.5-2.23s-0.34,1.55-0.68,2.23s-1.01,1.96,0.81,1.69
	C180.21,124.5,180.75,123.09,180.75,123.09z"/>
<path class="st32" d="M98.76,189.33c0,0-0.39,2.3-0.52,2.97c-0.14,0.68-0.68,2.03-0.34,2.5c0.34,0.47,0.44,1.51,0.72,1.49
	c0.28-0.03,5.75-2.36,5.76-2.7c0-0.34,0.07-4.59,0.07-4.59"/>
<path class="st32" d="M262.25,194.93c-0.88,1.01-1.28,0.88-2.09,1.96s-0.54,1.62-0.27,1.76c0.27,0.14-0.45,0.72-0.9,1
	c-0.45,0.28-3.5,2.1-0.25,1.46"/>
<path class="st32" d="M295.15,215.51c0,0-0.69,1.57-0.35,2.51c0.34,0.95,0.47,1.97,0.47,1.97s-0.61-0.22-0.81,0.39
	c-0.2,0.61-0.68,0.73-0.74,0.47c-0.07-0.27-0.92-1.68-0.92-1.68"/>
<path class="st30" d="M309.31,170.76c0,0,1.55,4.73,1.76,5.27c0.2,0.54-0.07,1.15,0,1.96c0.07,0.81,0.08,0.77-0.2,1.35
	c-0.28,0.58-1.89-4.46-1.89-5.4"/>
<path class="st30" d="M252.36,148.64c0,0,0.91,2.87,1.38,3.01c0.47,0.14,1.42-0.34,1.89,0c0.47,0.34-0.2,1.42,0.2,1.69
	s1.28,0.07,1.62,0.34c0.34,0.27,1.22,1.15,1.01-0.74s-2.63-5.87-2.63-5.87"/>
<path class="st30" d="M77.57,114.25c0,0,3.33,4.4,3.51,6.02c0.18,1.62,2.07,5.22,2.52,5.67c0.45,0.45,4.5,4.5,5.58,5.85
	s2.88,3.24,2.88,3.24s0.71-1.62,0.4-2.79c-0.31-1.17-2.72-12.76-2.72-12.76"/>
<path class="st19" d="M154.28,236.86c0,0,0.72,5.85,1.8,7.38c1.08,1.53,2.52,1.89,1.62,2.52c-0.9,0.63-1.35,1.44-0.9,2.16
	s0.99,0.72,0.45,1.62s-0.81,3.51-1.89,3.15c-1.08-0.36-0.4-2.16-0.4-2.16s-0.32-5.55-0.32-6.24c0-0.69-1.17-3.57-1.17-3.84"/>
<path class="st2" d="M111.87,296.11c0,0,1.08,6.67,0.81,7.7c-0.27,1.03-2.61,1.75-0.99,3.01c1.62,1.26,1.98,1.53,1.98,1.53
	s0.26,2.16,0.31,2.52c0.05,0.36,0.68,0.45,0.68,0.18c0-0.27-0.18-4.77-0.18-5.4s1.44-6.21,1.89-8.01"/>
<path class="st2" d="M279.51,307.36c-0.18,1.44-0.91,2.97-0.73,4.14c0.19,1.17-0.44,1.21-0.71,1.91c-0.27,0.7-0.18,1.33,0,2.05
	c0.18,0.72-0.18,1.44-1.17,1.35s-2.43-4.5-2.07-5.22"/>
<path class="st2" d="M287.62,274.86c0,0,0.36,3.6,0.18,4.41c-0.18,0.81-2.43,4.41-2.7,5.04c-0.27,0.63-1.08,1.44-1.08,1.44
	l-2.79-12.06"/>
<path class="st19" d="M250.99,242.8c-0.19,1.18-1.95,1.99-1.34,3.34c0.61,1.35,1.24,1.98,1.24,2.61s-0.9,0.99-0.99,1.8
	c-0.09,0.81-0.22,1.35-0.25,1.98c-0.02,0.63,0.46,1.05,1.21,1.02c0.75-0.03,4.08-4.26,4.08-4.26"/>
<path class="st32" d="M98.88,172.85c0,0,1.84-0.3,3.82-0.45c1.98-0.15,2.4,0.3,3.48,0.45c1.07,0.15,1.68,0.41,2.91-0.27
	c1.23-0.68,2.88-0.93,4.51-0.78c1.63,0.15,9.34,0.54,9.98,1.14c0.64,0.61-3.07,0.82-3.07,0.82l-9.95,3.17"/>
<path class="st31" d="M214.92,78.45l0.88-1.01c0,0-0.88-1.28-0.14-2.57c0.74-1.28,0.81-2.08,0.74-3.47
	c-0.07-1.39,0.74-3.42,0.95-4.16c0.2-0.74,0.2-1.01,0.2-1.01S216.2,68.73,214.92,78.45z"/>
<path class="st31" d="M214.92,88.31c0,0,0.55,3.24-0.15,3.87c-0.7,0.63-0.72,1.23-0.72,1.23s-1.15-0.64-0.88-2.06
	c0.27-1.42,0.27-1.42,0.27-1.42"/>
<path class="st31" d="M45.97,37.62c0,0,0.9,4.59,1.53,4.5c0.63-0.09,0.38-5.04,0.38-5.04s-0.38,3.6-0.56,3.24
	c-0.18-0.36-1.28-3.59-1.28-3.59L45.97,37.62z"/>
</svg>
