<?xml version="1.0" encoding="utf-8"?>
<!-- Generator: Adobe Illustrator 19.2.0, SVG Export Plug-In . SVG Version: 6.00 Build 0)  -->
<svg version="1.1" id="Layer_1" xmlns="http://www.w3.org/2000/svg" xmlns:xlink="http://www.w3.org/1999/xlink" x="0px" y="0px"
	 width="75px" height="50px" viewBox="0 0 75 50" style="enable-background:new 0 0 75 50;" xml:space="preserve">
<path id="Icon" style="fill:#FFFFFF;" d="M10.5,32.9c4.1,0,9.3-7,12.4-11.3c0.4-0.5,0.7-0.9,1-1.4c1.7-2.3,3.2-6.4,4.6-10
	c2-5.4,3.3-8.9,5.7-8.9c2.8,0,6.2,3.1,9.8,6.6c1.6,0,4.7-0.1,6.8-1.2C51.9,5.9,53.1,5,54.1,4c2.2-2.1,4.4-4,6.4-4
	c4.1,0,7,7.7,7.8,10.1c0.6,1.5,1.5,2.8,2.7,3.9c1.9,2.2,4,4.7,4,8.3c0,6.7-10.6,9.7-19.1,12.1c-2.3,0.6-4.5,1.3-6.7,2.2
	c-0.8,0.4-2,1-3.4,1.8C38.3,42.5,24.1,50,17.1,50C1.7,50,0,43.6,0,40.8C0,37.2,4.7,32.9,10.5,32.9z M17.1,47.4
	c6.3,0,20.7-7.6,27.5-11.2c1.4-0.8,2.6-1.4,3.4-1.8c2.3-1,4.7-1.8,7.1-2.4c6.8-1.9,17.1-4.9,17.1-9.6c0-1.2-0.3-2.4-1-3.4
	c-2.7,3.4-8.4,5.2-13.1,6.7c-1.7,0.5-3.4,1.1-5.1,1.8c-2.4,1.3-4.7,2.8-6.9,4.4C37.8,37.6,25.1,46.1,14,47.3
	C15,47.3,16,47.4,17.1,47.4z M2.8,42.1c0.2,0,0.4,0.1,0.6,0.2c10.8,7.8,30-5,41.4-12.7c2.3-1.6,4.7-3.1,7.2-4.5
	c1.8-0.8,3.6-1.4,5.4-2c4.5-1.4,10.6-3.4,12.3-6.5c-0.2-0.3-0.5-0.6-0.8-0.9c-1.3-1.4-2.4-3-3.2-4.8c-1.7-5.1-4.1-8.3-5.3-8.3
	c-1.1,0-3.2,1.9-4.7,3.3c-1.2,1.2-2.5,2.3-4,3.1c-2.9,1.5-7.1,1.5-8.5,1.5h-0.5l-0.4-0.4c-2.1-2.1-6.1-6.1-8.2-6.2
	c-0.7,0.5-1.9,3.4-2.8,5.8l3.4,2.3c0.6,0.4,0.8,1.2,0.4,1.8c-0.4,0.6-1.2,0.8-1.8,0.4l-2.9-1.9c-0.5,1.4-1.1,2.8-1.6,4.1l3.3,2.2
	c0.6,0.4,0.8,1.2,0.4,1.8c-0.4,0.6-1.2,0.8-1.8,0.4l-3-2c-0.5,1.1-1.1,2.1-1.8,3c-0.2,0.2-0.3,0.4-0.5,0.7c0.1,0,0.1,0,0.2,0.1
	l3.9,2.6c0.6,0.4,0.8,1.2,0.4,1.8c0,0,0,0,0,0c-0.2,0.4-0.7,0.6-1.1,0.6c-0.3,0-0.5-0.1-0.7-0.2l-3.9-2.6c-0.1-0.1-0.2-0.1-0.2-0.2
	c-3.6,4.8-8.6,11-13.5,11c-4.6,0-7.9,3.4-7.9,5.3C2.6,41.2,2.7,41.7,2.8,42.1z"/>
</svg>
