<?xml version="1.0" encoding="utf-8"?>
<!-- Generator: Adobe Illustrator 19.2.0, SVG Export Plug-In . SVG Version: 6.00 Build 0)  -->
<svg version="1.1" id="Layer_1" xmlns="http://www.w3.org/2000/svg" xmlns:xlink="http://www.w3.org/1999/xlink" x="0px" y="0px"
	 width="65px" height="54.7px" viewBox="0 0 65 54.7" style="enable-background:new 0 0 65 54.7;" xml:space="preserve">
<path id="Icon" style="fill:#FFFFFF;" d="M63.8,15.6L49.4,1.1c-1.4-1.4-3.7-1.4-5.2,0l-7.1,7.1l-5.1,5.1l-4-4.1L28,9.2l-0.1-0.1l-7.1-7.2
	c-1.5-1.5-3.9-1.5-5.4,0L1.1,16.4c-1.5,1.5-1.5,3.9,0,5.5l7.1,7.2l0.1,0.1l0.1,0.1l6.6,6.7l-0.2,0.2c-0.1,0.1-0.2,0.3-0.3,0.5
	c-1.4,1.4-1.4,3.7,0,5.1l11.8,11.8c0.7,0.7,1.6,1.1,2.5,1.1c1,0,1.9-0.4,2.6-1.1L32,53l0.2,0.2c-0.2-0.2,8,2.4,14.1-3.7
	c7.8-7.8,2.6-13.6,2.6-13.6l7.9-7.9l7.1-7.1c0.7-0.7,1.1-1.7,1.1-2.6C64.9,17.2,64.5,16.3,63.8,15.6z M3.2,18.6L17.6,4.1
	C17.8,4,18,3.9,18.2,3.9c0.2,0,0.4,0.1,0.6,0.2l6.1,6.1L9.2,25.8l-6.1-6.1C2.9,19.3,2.9,18.9,3.2,18.6z M28.7,51.7
	c-0.2,0-0.3-0.1-0.4-0.2L16.5,39.7c-0.2-0.2-0.2-0.6,0-0.8c0,0,0,0,0,0l0.4-0.4l0,0l0.8-0.8l1.9-1.9l0.1-0.1
	c0.1-0.1,0.2-0.1,0.3-0.1c0.2,0,0.3,0.1,0.4,0.2l11.7,11.8c0.2,0.2,0.3,0.5,0.1,0.8c0,0,0,0-0.1,0.1l-1.4,1.4l-1.7,1.7
	C29,51.6,28.9,51.7,28.7,51.7z M47,38c0,0,0.8,5.5-2.9,9.3c-2.6,2.5-6.2,3.8-9.9,3.6l-0.1-0.1l0.2-0.2l0,0c0.1-0.1,0.2-0.2,0.2-0.3
	c0.1-0.1,0.2-0.2,0.2-0.2c0.1-0.1,0.1-0.2,0.1-0.2c0.1-0.2,0.2-0.2,0.2-0.4l0,0c0.5-1.4,0.2-2.9-0.8-4L22.6,33.5
	c-0.2-0.2-0.4-0.3-0.6-0.5c-0.1-0.1-0.2-0.1-0.2-0.1c-0.2-0.1-0.2-0.2-0.4-0.2c-0.1,0-0.2-0.1-0.2-0.1c-0.1-0.1-0.3-0.1-0.4-0.1
	h-0.2c-0.2,0-0.3-0.1-0.5-0.1h-0.7c-0.2,0-0.4,0.1-0.6,0.2h-0.1c-0.4,0.2-0.9,0.4-1.2,0.8l-0.2,0.2l-5.7-5.7L27,12.5l2.9,3l-8.2,8.3
	c-1.3,1.2-1.3,3.1-0.2,4.4c0.1,0.1,0.1,0.1,0.2,0.2l3.2,3.2c0.1,0.1,0.3,0.2,0.5,0.3c0.5,0.3,1.1,0.5,1.6,0.5c0.2,0,0.4,0,0.6-0.1
	h0.1c0.2,0,0.3-0.1,0.5-0.2h0.1c0.2-0.1,0.3-0.2,0.5-0.2c0,0,0.1,0,0.1-0.1c0,0,0,0,0,0c0.2-0.1,0.4-0.3,0.5-0.4l5.3-5.4l10.6,10.7
	C45.3,36.7,46.5,37.5,47,38z M46.8,33.7l-9.9-9.9l1.4-1.4c0.3-0.3,0.4-0.7,0.4-1.1c0-0.4-0.2-0.8-0.4-1.1c-0.6-0.6-1.5-0.6-2.1,0
	l-2.5,2.5l-6.4,6.4c-0.1,0-0.1,0.1-0.2,0.2l0,0l-3.2-3.2c-0.1,0-0.1-0.1-0.1-0.2c0-0.1,0.1-0.1,0.1-0.2l14.4-14.5l8.5,8.6l6.8,6.9
	L46.8,33.7z M61.7,18.7l-6,6L43.3,12.2l-3-3l6-6C46.5,3.1,46.7,3,46.8,3c0.2,0,0.4,0,0.5,0.2l14.5,14.6c0.1,0.1,0.2,0.3,0.2,0.5
	C61.9,18.4,61.8,18.5,61.7,18.7L61.7,18.7z"/>
</svg>
